{"glyphs":{"0":{"ha":543,"x_min":0,"x_max":0,"o":"m 131 -42 b 357 74 222 -60 301 9 b 501 796 484 221 609 665 b 171 726 408 909 254 847 b 1 228 77 586 13 391 b 131 -42 -7 116 26 -21 z m 151 154 b 356 717 158 352 219 569 b 442 742 372 734 426 781 b 431 446 477 654 452 535 b 293 140 405 336 359 232 b 183 36 265 99 228 58 b 163 45 173 31 167 34 b 151 154 153 80 149 117 z m 323 783 l 281 747 b 323 783 287 766 303 780 z m 238 764 l 243 759 b 210 720 232 746 221 733 b 238 764 214 737 224 752 z m 254 772 b 276 796 257 783 265 792 b 254 772 272 784 265 781 z "},"1":{"ha":475,"x_min":0,"x_max":0,"o":"m 240 573 b 192 421 224 523 207 472 b 126 100 161 316 139 208 b 104 78 124 85 119 81 b 12 48 67 73 32 64 b 1 -8 -4 35 0 11 b 46 -38 1 -40 16 -47 b 101 -21 65 -33 83 -27 b 139 -28 115 -18 125 -30 b 257 -42 179 -21 218 -30 b 298 -48 270 -48 284 -50 b 309 -39 303 -47 312 -45 b 314 -2 302 -24 327 -11 b 306 37 300 8 313 24 b 255 63 297 55 275 57 b 235 94 231 70 232 70 b 467 779 268 330 360 567 b 460 836 478 801 479 826 b 329 792 391 873 364 836 b 180 638 285 735 241 678 b 83 632 164 627 86 591 b 86 649 83 638 84 644 b 85 651 89 657 89 659 b 131 553 64 610 78 549 b 241 594 156 555 234 591 b 240 573 245 588 241 579 z m 163 196 l 163 165 b 154 139 155 160 160 149 b 163 165 153 152 149 161 b 163 196 159 175 159 187 z m 229 362 b 218 313 231 345 227 327 b 196 232 214 285 212 256 b 186 163 202 208 193 186 b 174 88 186 138 182 112 b 187 163 170 113 175 140 b 196 231 180 187 190 209 b 219 312 201 259 203 287 b 230 361 216 329 220 347 b 243 406 229 377 234 393 b 275 515 247 444 263 479 b 329 658 290 563 309 611 b 352 695 333 672 341 685 b 343 669 348 683 346 676 b 255 431 311 590 281 512 b 242 407 252 423 254 411 b 229 362 245 390 240 374 z m 266 569 b 281 612 267 584 273 599 b 266 569 281 597 275 581 z m 150 90 b 149 116 142 99 148 107 b 150 90 152 108 153 98 z "},"2":{"ha":663,"x_min":0,"x_max":0,"o":"m 210 544 b 409 796 220 609 282 731 b 575 743 487 835 574 834 b 514 590 575 689 545 632 b 221 251 416 461 322 360 b 14 39 154 178 87 106 b 0 18 8 33 0 27 b 16 10 0 6 8 8 b 19 6 17 10 19 7 b 27 -26 10 -8 22 -16 b 89 -36 43 -54 65 -57 b 213 2 116 -13 170 -2 b 489 -41 302 9 415 10 b 528 -39 505 -52 523 -51 b 514 66 543 -8 546 44 b 269 115 444 113 352 120 b 240 114 259 114 253 114 b 250 134 229 113 245 129 b 498 411 333 226 417 317 b 658 764 595 525 680 654 b 414 855 643 833 564 910 b 181 526 261 800 127 620 b 218 510 195 501 231 502 b 210 544 212 515 208 534 z m 192 149 l 188 153 l 231 200 l 235 195 z m 301 275 l 305 272 l 277 241 l 273 245 z m 219 62 b 237 62 224 65 231 65 z m 252 251 b 249 253 248 250 248 251 b 255 260 251 256 253 258 b 258 257 258 261 259 260 b 252 251 256 255 254 253 z "},"3":{"ha":683,"x_min":0,"x_max":0,"o":"m 63 235 b 3 110 32 200 11 157 b 142 -64 -13 23 43 -62 b 298 -23 198 -65 249 -47 b 651 307 441 45 577 165 b 659 522 684 371 699 457 b 477 594 621 581 542 596 b 453 601 469 594 460 590 b 657 750 514 660 583 710 b 677 769 665 754 677 759 b 652 834 675 793 666 816 b 614 850 642 845 628 851 b 573 834 600 849 586 839 b 261 833 492 804 346 799 b 212 836 226 846 209 864 b 303 725 219 766 236 730 b 398 709 334 723 406 718 b 272 578 348 656 314 622 b 249 462 240 543 223 508 b 250 453 250 460 249 456 b 270 429 252 442 259 433 b 300 434 280 426 291 427 b 493 506 360 471 422 501 b 532 354 592 513 564 416 b 130 31 455 209 296 65 b 32 86 86 22 40 36 b 80 248 24 144 49 209 b 63 235 88 259 68 241 z m 373 80 b 339 55 367 64 350 63 b 373 79 347 67 359 76 b 400 99 378 90 388 97 b 424 120 402 109 411 112 b 399 99 415 106 409 100 b 373 80 395 88 385 81 z m 536 192 b 463 118 517 162 492 136 l 536 192 z m 296 34 b 256 12 286 19 271 16 z m 423 82 b 443 97 426 91 434 96 b 423 82 439 89 432 84 z m 415 689 b 427 699 412 698 420 699 z "},"4":{"ha":631,"x_min":0,"x_max":0,"o":"m 422 750 b 377 846 436 792 426 828 b 347 836 354 855 354 857 b 188 560 314 734 260 640 b 13 421 139 505 83 449 b 13 357 -12 410 6 374 b 64 324 22 335 36 307 b 340 359 152 376 245 370 b 348 352 347 358 348 355 b 343 333 346 344 344 339 b 292 55 320 242 303 149 b 286 -23 289 30 289 2 b 376 -38 282 -49 355 -42 b 394 -21 389 -35 393 -32 b 617 770 426 236 512 528 b 619 832 626 792 640 820 b 501 781 548 872 527 832 b 381 472 451 681 417 577 b 362 455 378 463 377 452 b 257 470 330 461 296 464 b 422 750 326 555 388 645 z m 402 462 b 415 490 408 476 407 485 b 438 562 415 517 427 539 b 414 491 434 537 426 513 b 402 462 415 480 410 469 z m 449 587 b 459 622 448 599 452 612 b 508 742 472 663 488 703 b 510 728 512 738 513 732 b 469 633 496 696 483 664 b 458 623 467 628 466 622 b 449 587 464 611 457 603 z m 414 456 b 416 436 410 450 410 441 b 436 438 422 431 431 432 b 434 458 441 444 440 453 b 459 541 436 487 449 514 b 522 698 477 595 499 647 b 536 722 525 706 527 716 b 536 709 540 717 538 713 b 442 470 502 631 471 551 b 434 458 441 466 441 460 b 414 456 428 463 419 462 z m 343 57 b 393 320 349 146 366 234 b 343 57 374 233 357 145 z m 165 463 l 204 505 b 165 463 195 488 181 474 z m 322 76 b 319 112 314 87 319 96 b 322 76 323 100 324 88 z m 330 128 b 324 158 321 140 327 147 b 330 128 332 147 327 140 z m 192 528 b 197 539 185 533 195 535 b 202 541 197 540 200 540 b 192 528 201 534 194 527 z m 338 216 b 341 219 339 217 340 218 b 341 210 341 216 341 213 b 338 206 341 209 340 208 b 338 216 338 209 338 212 z "},"5":{"ha":728,"x_min":0,"x_max":0,"o":"m 82 232 b 58 219 75 234 62 223 b 1 79 24 179 8 134 b 145 -84 -10 -16 52 -81 b 511 104 281 -87 419 13 b 683 415 591 183 683 308 b 513 581 683 510 640 570 b 369 566 464 586 415 581 b 348 567 362 564 355 557 b 406 704 371 611 391 657 b 427 715 409 717 416 718 b 686 743 511 694 610 700 b 720 773 700 750 712 760 b 713 826 731 790 728 812 b 671 829 698 842 696 843 b 605 802 650 817 628 808 b 369 836 522 787 443 792 b 354 844 364 839 359 842 b 323 822 334 851 324 844 b 204 552 320 726 258 628 b 167 523 195 538 182 528 b 154 434 129 511 123 458 b 298 410 190 407 258 378 b 522 483 361 461 441 486 b 568 443 546 484 566 466 b 462 228 578 368 505 280 b 224 46 397 151 316 89 b 36 87 163 17 48 -9 b 59 199 33 126 41 165 b 81 230 64 211 71 222 b 82 232 81 231 81 231 z m 301 10 b 329 27 307 20 317 26 b 364 50 336 41 351 45 b 328 28 355 39 345 28 b 301 10 324 15 311 14 z m 467 95 b 444 76 463 86 454 79 b 467 95 449 85 457 92 z m 561 188 b 551 175 558 184 554 180 b 561 188 547 185 554 187 z m 444 118 b 434 94 445 105 435 107 b 444 118 430 111 440 110 z m 414 86 b 387 68 405 76 400 70 b 414 86 393 78 403 84 z m 430 64 b 410 50 427 56 419 51 b 430 64 414 58 421 63 z "},"6":{"ha":600,"x_min":0,"x_max":0,"o":"m 595 768 b 484 836 581 814 536 839 b 344 775 437 834 386 807 b 38 297 197 662 91 471 b 102 -84 0 171 -46 -28 b 288 -30 165 -108 235 -68 b 550 347 410 57 516 200 b 548 496 561 395 571 449 b 319 507 500 591 389 560 b 267 465 301 494 284 479 b 266 472 264 468 265 469 b 392 657 301 538 343 600 b 494 746 420 693 455 723 b 599 736 529 764 564 771 b 595 768 600 747 598 757 z m 197 288 b 416 483 258 362 325 444 b 474 470 432 490 476 502 b 341 195 469 382 397 273 b 153 18 290 125 230 60 b 130 61 129 4 129 38 b 197 288 134 133 148 229 z m 377 155 b 353 121 375 140 366 128 b 377 155 356 134 364 142 z m 362 182 b 344 156 361 171 355 166 b 362 182 349 171 353 177 z m 354 753 b 375 769 358 761 366 767 b 354 753 371 761 363 755 z "},"7":{"ha":576,"x_min":0,"x_max":0,"o":"m 306 611 b 17 35 186 432 89 238 b 23 -49 9 12 -20 -49 b 91 -48 46 -50 69 -49 b 118 -26 104 -48 116 -39 b 560 717 210 246 378 498 b 576 752 570 726 576 739 b 465 814 573 802 511 852 b 165 728 385 748 266 718 b 54 811 110 734 76 763 b 41 832 51 819 47 831 b 34 795 26 834 32 808 b 236 629 55 693 131 630 b 319 631 243 629 320 633 b 306 611 312 622 310 617 z m 86 72 b 108 132 88 94 95 115 b 164 259 119 178 145 217 b 190 307 171 275 180 289 b 181 278 193 293 185 286 b 120 150 161 235 141 192 b 108 133 117 143 118 134 b 86 72 110 109 95 92 z m 232 380 b 211 341 233 363 220 353 b 233 379 213 356 221 370 b 241 400 233 387 236 394 b 396 640 288 483 340 563 b 408 650 399 644 402 649 b 404 634 414 643 407 639 b 244 390 348 555 293 474 b 232 380 241 386 239 380 z m 294 541 b 270 505 290 527 281 514 b 294 541 274 519 283 531 z m 340 616 b 350 631 343 621 346 626 b 360 640 353 635 357 638 b 345 613 358 630 353 621 b 342 613 344 613 343 612 b 340 616 342 613 341 614 z m 87 153 b 88 162 85 155 85 159 b 93 169 89 164 91 166 b 87 153 94 161 89 158 z "},"8":{"ha":611,"x_min":0,"x_max":0,"o":"m 296 -38 b 445 476 476 57 532 311 b 459 504 435 496 438 499 b 606 657 534 522 591 582 b 382 832 634 806 516 890 b 263 607 297 795 240 698 b 279 565 267 592 273 578 b 272 544 284 555 282 549 b 1 160 120 473 17 327 b 296 -38 -14 -36 149 -115 z m 181 451 b 132 399 164 434 154 411 b 56 277 109 357 79 319 b 133 398 74 322 92 368 b 181 451 140 424 165 433 z m 278 80 b 144 56 250 51 167 -7 b 141 162 132 90 131 127 b 322 435 167 275 233 363 b 340 446 328 439 334 443 b 278 80 395 312 365 169 z m 432 734 b 502 721 461 758 496 753 b 402 584 512 660 471 599 b 374 616 378 579 373 604 b 432 734 378 661 399 703 z m 226 448 b 124 327 191 409 156 369 b 226 448 145 378 183 415 z m 341 773 b 314 746 335 761 325 752 b 341 773 319 758 329 768 z m 512 583 b 486 560 502 565 502 565 z m 493 605 b 512 622 495 611 499 616 b 493 605 503 612 503 604 z m 207 349 b 217 367 207 356 211 363 b 207 349 221 359 214 357 z m 350 140 b 357 157 349 149 354 153 b 356 147 361 153 358 150 b 350 140 355 145 353 144 z "},"9":{"ha":635,"x_min":0,"x_max":0,"o":"m 3 -6 b 109 -80 14 -53 58 -80 b 253 -27 156 -80 210 -56 b 585 434 406 78 522 263 b 542 817 630 557 686 753 b 353 774 480 845 408 809 b 71 412 227 694 113 557 b 65 263 57 364 44 311 b 293 239 107 166 220 191 b 347 278 311 252 329 265 b 348 272 350 276 349 274 b 212 94 309 208 264 148 b 104 11 182 59 145 31 b 1 26 69 -6 34 -11 b 3 -6 -1 15 0 5 z m 427 451 b 197 269 362 381 290 303 b 140 285 181 263 136 253 b 288 552 150 373 227 477 b 485 719 343 619 406 681 b 506 674 510 731 508 697 b 427 451 498 602 479 508 z m 254 595 b 280 626 257 609 267 621 b 254 595 277 614 268 606 z m 287 591 b 268 567 281 577 277 571 b 287 591 269 577 276 582 z m 244 -4 b 222 -19 240 -12 231 -18 b 244 -4 227 -11 235 -6 z "},"\u0000":{"ha":0,"x_min":0,"x_max":0,"o":""},"\n":{"ha":0,"x_min":0,"x_max":0,"o":""},"\r":{"ha":0,"x_min":0,"x_max":0,"o":""}," ":{"ha":400,"x_min":0,"x_max":0,"o":""},"!":{"ha":293,"x_min":0,"x_max":0,"o":"m 486 1043 b 389 993 448 1050 408 1024 b 134 418 278 814 192 620 b 92 235 116 355 98 291 b 126 196 89 201 96 201 b 196 216 152 192 189 179 b 520 961 247 481 377 735 b 525 1011 530 975 532 994 b 486 1043 518 1028 503 1040 z m 389 943 b 367 898 385 924 374 913 b 389 943 367 917 367 917 z m 352 879 b 327 832 347 862 339 846 b 352 879 331 850 340 866 z m 285 751 b 289 749 286 753 288 753 b 272 719 285 738 279 728 b 285 751 273 730 278 741 z m 170 348 b 155 307 168 333 163 319 b 199 456 167 358 174 410 b 170 348 194 419 177 385 z m 200 461 b 216 506 201 477 207 493 b 200 461 214 490 209 475 z m 228 536 b 236 566 227 547 230 557 b 228 536 240 556 236 547 z m 237 569 b 250 598 240 579 244 589 b 237 569 252 586 247 575 z m 251 600 b 303 713 262 640 280 678 b 266 624 297 681 277 654 b 251 600 263 615 262 604 z m 413 916 b 318 735 380 857 348 796 b 304 716 314 728 313 719 b 307 733 303 722 304 728 b 408 923 338 798 371 861 b 417 931 410 926 412 930 b 414 916 421 925 416 921 z m 173 108 b 160 115 166 107 164 113 b 133 108 148 124 138 125 b 126 101 132 104 127 98 b 104 98 115 128 110 108 b 99 101 102 99 101 99 b 81 92 85 116 82 104 b 70 2 77 62 73 32 b 103 -43 67 -25 76 -37 b 166 -22 124 -48 160 -49 b 186 86 173 14 179 50 b 173 108 184 95 191 110 z m 91 9 b 91 15 91 11 91 13 b 91 18 91 16 91 17 l 93 14 b 91 9 92 13 92 11 z m 98 62 l 98 71 b 98 62 103 66 98 60 z "},"\"":{"ha":486,"x_min":0,"x_max":0,"o":"m 260 1099 b 310 1024 260 1063 273 1036 b 208 953 288 982 261 950 b 211 939 209 948 210 943 b 264 895 221 917 240 900 b 331 909 287 889 312 894 b 429 1047 378 943 412 992 b 260 1099 473 1175 264 1231 z m 456 1099 b 506 1024 455 1063 468 1036 b 404 953 483 982 456 950 b 406 939 404 948 405 943 b 459 895 416 917 436 900 b 527 909 483 889 508 894 b 625 1047 574 943 608 992 b 456 1099 669 1175 459 1231 z "},"“":{"ha":486,"x_min":0,"x_max":0,"o":"m 260 1099 b 310 1024 260 1063 273 1036 b 208 953 288 982 261 950 b 211 939 209 948 210 943 b 264 895 221 917 240 900 b 331 909 287 889 312 894 b 429 1047 378 943 412 992 b 260 1099 473 1175 264 1231 z m 456 1099 b 506 1024 455 1063 468 1036 b 404 953 483 982 456 950 b 406 939 404 948 405 943 b 459 895 416 917 436 900 b 527 909 483 889 508 894 b 625 1047 574 943 608 992 b 456 1099 669 1175 459 1231 z "},"”":{"ha":486,"x_min":0,"x_max":0,"o":"m 260 1099 b 310 1024 260 1063 273 1036 b 208 953 288 982 261 950 b 211 939 209 948 210 943 b 264 895 221 917 240 900 b 331 909 287 889 312 894 b 429 1047 378 943 412 992 b 260 1099 473 1175 264 1231 z m 456 1099 b 506 1024 455 1063 468 1036 b 404 953 483 982 456 950 b 406 939 404 948 405 943 b 459 895 416 917 436 900 b 527 909 483 889 508 894 b 625 1047 574 943 608 992 b 456 1099 669 1175 459 1231 z "},"#":{"ha":643,"x_min":0,"x_max":0,"o":"m 642 544 b 620 567 645 561 632 563 b 628 591 634 572 643 578 b 603 596 621 598 612 595 b 534 598 580 595 557 595 b 552 662 540 621 546 641 b 508 725 561 700 549 719 b 504 728 506 725 504 725 b 469 743 502 754 475 724 b 439 710 447 743 444 726 b 410 614 429 678 418 646 b 332 591 401 580 358 591 b 312 615 308 591 307 591 b 333 696 319 642 327 669 b 303 750 337 710 316 747 b 282 757 295 752 290 749 b 240 764 274 765 254 765 b 222 739 228 763 226 749 b 185 614 210 697 197 656 b 176 598 185 608 181 602 b 158 594 171 594 164 593 b 80 596 132 596 106 596 b 58 578 69 596 57 595 b 145 574 86 572 114 576 b 48 553 113 566 79 582 b 142 546 83 547 113 550 b 62 538 116 545 89 542 b 53 512 48 536 44 524 b 70 504 57 507 64 504 b 131 502 92 503 114 502 b 59 491 111 497 85 506 b 109 484 77 480 94 485 b 143 477 119 483 137 487 b 113 413 151 462 133 412 b 55 417 93 412 74 414 b 47 415 52 418 49 417 b 43 408 45 414 43 411 b 54 400 42 400 49 402 b 60 396 56 399 60 400 b 37 382 52 392 39 398 b 106 370 58 370 83 376 b 43 368 85 368 64 369 b 31 346 27 367 25 360 b 77 319 44 317 44 317 b 83 319 79 319 81 319 b 96 301 97 320 101 314 b 75 230 95 296 76 236 b 81 210 74 223 72 214 b 98 223 90 206 91 220 b 102 192 103 211 89 198 b 120 207 113 187 113 203 b 125 209 122 208 123 208 b 123 199 124 205 124 202 b 150 171 118 170 122 166 b 159 173 153 171 157 176 b 168 163 160 169 163 164 b 200 235 187 161 196 222 b 257 316 207 265 217 316 b 319 298 269 316 326 323 b 290 199 315 284 294 214 b 295 176 288 191 284 180 b 310 193 306 173 306 186 b 315 194 312 195 314 196 b 316 161 319 183 303 166 b 342 184 333 154 327 181 b 340 171 341 180 341 176 b 342 142 338 161 331 150 b 373 150 355 133 364 140 b 379 146 382 161 379 151 b 381 138 378 143 378 139 b 392 142 386 136 389 139 b 406 175 399 152 403 163 b 467 309 416 206 422 308 b 554 310 503 310 517 308 b 594 332 570 310 585 318 b 601 374 605 344 594 360 b 599 391 602 376 598 384 b 577 408 602 405 588 408 b 492 409 544 409 524 409 b 484 436 468 410 476 414 b 534 473 501 481 489 472 b 609 472 559 473 584 471 b 618 480 615 472 623 475 b 623 492 602 494 618 490 b 642 517 634 496 641 506 b 623 535 642 530 628 529 b 642 544 629 540 640 535 z m 340 502 l 341 501 l 294 501 l 294 502 z m 326 227 b 329 248 321 234 323 243 b 326 227 334 240 328 234 z m 259 390 l 259 392 l 332 392 l 333 390 z m 356 432 b 338 412 353 422 351 411 b 271 412 316 413 293 411 b 255 421 264 413 255 412 b 267 458 257 434 261 447 b 287 480 270 468 277 476 b 328 483 300 483 314 484 b 362 480 340 483 351 482 b 368 470 366 478 368 474 b 356 432 365 457 361 444 z m 303 540 b 373 540 326 548 349 544 z m 314 566 l 315 569 l 385 569 l 385 566 z m 381 420 b 389 456 376 432 383 441 b 381 420 391 439 383 430 z "},"$":{"ha":511,"x_min":0,"x_max":0,"o":"m 528 939 b 522 939 526 939 524 939 b 534 976 526 951 530 963 b 542 1040 540 997 552 1035 b 504 1056 530 1046 517 1052 b 466 1029 481 1064 478 1058 b 424 916 451 992 437 954 b 161 606 306 866 189 741 b 191 411 146 531 153 465 b 240 343 207 389 224 366 b 133 11 205 232 169 121 l 133 11 b 138 281 -20 4 74 228 b 213 287 171 309 196 312 b 215 286 214 285 215 283 b 215 287 215 286 215 287 b 126 353 215 337 175 362 b -38 146 39 336 -24 226 b 102 -86 -57 35 -1 -70 b 85 -137 96 -103 91 -120 b 102 -160 80 -152 70 -172 b 106 -165 103 -159 105 -163 b 124 -165 111 -186 117 -179 b 135 -145 128 -158 128 -149 b 137 -148 136 -146 137 -147 b 135 -186 138 -161 126 -175 b 143 -178 149 -203 133 -187 b 166 -165 167 -202 163 -172 b 193 -81 176 -137 185 -109 b 394 313 362 -38 471 176 b 346 389 380 338 362 363 b 460 742 384 506 422 624 b 478 797 466 761 472 779 b 527 818 494 806 510 813 b 503 784 517 804 510 794 b 485 574 479 746 398 597 b 501 574 490 573 497 571 b 500 588 506 578 502 584 b 621 790 463 657 567 763 b 650 835 644 802 650 808 b 528 939 650 887 605 938 z m 13 183 b -6 99 5 152 -1 129 b 3 180 -9 126 -6 154 b 24 219 8 194 15 208 b 13 183 21 209 17 199 z m 58 228 b 28 133 49 198 39 169 b 58 228 28 167 39 200 z m 404 858 b 374 831 396 844 383 839 b 344 804 365 822 354 813 b 316 776 335 795 325 785 b 291 747 308 766 299 757 b 267 715 283 737 275 726 b 245 682 260 705 252 693 b 404 858 275 756 352 836 z m 346 679 b 294 513 328 623 311 568 b 295 553 293 526 293 539 b 346 679 302 598 319 641 z m 239 59 l 295 233 b 301 182 300 217 301 199 b 239 59 297 134 275 90 z m 308 95 b 307 100 307 97 306 99 b 319 122 311 107 315 115 b 308 95 319 105 319 105 z m 346 91 b 348 87 347 91 348 88 b 342 79 348 83 346 80 b 340 84 339 78 339 82 b 346 91 340 87 343 90 z m 340 748 b 444 836 368 786 398 821 b 340 748 409 807 373 779 z "},"%":{"ha":499,"x_min":0,"x_max":0,"o":"m 560 1004 b 531 1026 552 1014 542 1021 b 483 1013 508 1040 499 1037 b 433 930 465 986 449 958 b 180 478 348 780 264 629 b -61 47 100 335 20 191 b -50 24 -68 35 -81 18 b -48 19 -49 22 -48 20 b -31 15 -46 -1 -40 4 b -17 31 -27 20 -25 28 b -16 28 -17 30 -16 29 b -25 -5 -18 16 -31 6 b 8 -5 -16 -23 -3 -11 b 30 3 25 -30 27 -3 b 97 122 53 42 75 83 b 452 755 215 333 334 544 b 558 950 488 820 523 885 b 560 1004 568 967 572 984 z m 182 389 b 195 415 184 399 188 408 b 197 416 196 416 197 416 b 197 416 197 416 197 416 b 199 413 198 416 199 414 b 182 389 195 404 190 396 z m 437 337 b 253 261 356 381 296 331 b 194 72 216 205 195 139 b 371 -40 182 -14 300 -106 b 498 220 446 30 492 116 b 437 337 501 269 484 312 z m 326 311 l 291 280 b 326 311 299 294 311 306 z m 290 25 b 396 267 301 120 327 201 b 290 25 409 197 353 67 z m 228 684 b 334 890 280 743 316 814 b 117 980 368 1039 202 1099 b 37 771 72 918 41 849 b 228 684 26 656 152 592 z m 210 1000 l 186 981 b 210 1000 192 994 196 999 z m 175 1011 b 155 991 171 999 162 996 b 175 1011 158 1000 166 1007 z m 244 955 b 127 727 250 887 194 775 b 244 955 146 817 178 893 z "},"&":{"ha":758,"x_min":0,"x_max":0,"o":"m 738 602 b 686 676 729 631 711 657 b 558 232 753 521 667 310 b 539 253 547 224 541 246 b 495 552 511 350 496 450 b 520 607 494 573 503 594 b 667 759 573 654 622 705 b 731 1044 717 824 803 974 b 465 934 630 1142 508 1059 b 407 678 436 851 416 765 b 384 631 406 660 398 642 b 160 395 302 559 227 480 b 71 199 113 338 78 274 b 382 -44 51 0 216 -112 b 523 47 434 -22 482 9 b 540 54 528 52 534 54 b 557 46 547 54 553 51 b 664 -2 585 17 623 -1 b 706 14 679 -4 694 -4 b 622 81 673 29 644 52 b 620 152 593 116 593 116 b 738 602 709 269 790 453 z m 514 775 b 555 898 523 817 537 859 b 629 985 571 931 595 970 b 654 984 637 989 647 989 b 658 961 660 977 661 968 b 579 829 645 910 610 870 b 519 766 561 806 541 785 b 514 775 515 764 513 767 z m 580 791 l 550 757 l 546 762 l 576 795 z m 591 764 b 508 683 568 733 540 705 z m 435 761 b 435 755 440 758 435 753 z m 429 721 b 429 698 432 714 432 706 b 429 721 425 704 427 711 z m 429 453 l 429 451 b 429 454 429 452 429 453 b 429 457 429 455 429 456 z m 103 228 b 112 264 102 241 105 254 b 103 228 116 251 107 240 z m 113 266 b 141 322 116 287 126 307 b 113 266 130 304 130 281 z m 145 254 b 183 330 147 283 161 311 b 145 254 171 305 158 279 z m 477 138 b 290 33 423 87 365 45 b 198 80 241 25 212 29 b 223 266 183 143 192 209 b 405 496 268 352 334 422 b 480 164 418 383 434 270 b 477 138 486 156 484 145 z "},"'":{"ha":365,"x_min":0,"x_max":0,"o":"m 260 1099 b 310 1024 260 1063 273 1036 b 208 953 288 982 261 950 b 211 939 209 948 210 943 b 264 895 221 917 240 900 b 331 909 287 889 312 894 b 429 1047 378 943 412 992 b 260 1099 473 1175 264 1231 z "},"‘":{"ha":365,"x_min":0,"x_max":0,"o":"m 260 1099 b 310 1024 260 1063 273 1036 b 208 953 288 982 261 950 b 211 939 209 948 210 943 b 264 895 221 917 240 900 b 331 909 287 889 312 894 b 429 1047 378 943 412 992 b 260 1099 473 1175 264 1231 z "},"’":{"ha":365,"x_min":0,"x_max":0,"o":"m 260 1099 b 310 1024 260 1063 273 1036 b 208 953 288 982 261 950 b 211 939 209 948 210 943 b 264 895 221 917 240 900 b 331 909 287 889 312 894 b 429 1047 378 943 412 992 b 260 1099 473 1175 264 1231 z "},"(":{"ha":303,"x_min":0,"x_max":0,"o":"m 542 1067 b 181 641 378 1007 251 800 b 74 61 103 464 53 256 b 247 -153 85 -31 131 -167 b 262 -124 265 -151 270 -140 b 249 -109 258 -119 254 -114 b 187 240 173 -15 173 126 b 341 710 207 406 259 565 b 650 1023 415 842 505 958 b 542 1067 626 1067 587 1083 z m 150 495 b 143 449 153 476 141 463 b 150 495 136 464 143 477 z m 116 336 b 111 298 112 324 110 311 b 116 336 108 312 99 326 z m 101 288 b 111 298 101 295 107 296 b 104 252 103 283 106 267 b 101 288 100 264 99 276 z m 90 162 b 90 128 94 151 94 139 z m 95 241 b 104 252 95 247 99 250 b 95 188 95 233 103 212 b 95 241 95 209 95 225 z m 96 86 b 96 67 99 80 99 73 z m 117 339 b 116 378 110 352 115 365 b 117 339 122 365 118 352 z m 124 188 l 122 188 l 122 233 l 124 233 z m 117 380 b 131 433 121 398 126 415 b 143 447 133 440 135 446 b 126 393 132 431 133 411 b 117 380 124 387 124 381 z m 136 292 b 129 261 134 281 132 271 b 136 292 130 272 120 285 z m 136 294 b 137 337 131 308 132 323 b 136 294 143 323 138 309 z m 146 352 b 137 339 145 347 146 339 b 225 625 155 437 185 533 b 237 641 228 631 228 640 b 234 626 236 636 236 631 b 146 352 196 538 166 446 z m 238 644 b 280 730 242 677 264 702 b 238 644 268 700 258 670 z m 291 750 b 308 778 292 761 298 772 b 291 750 307 767 301 756 z m 309 780 b 343 835 314 803 332 817 b 309 780 337 814 325 795 z "},")":{"ha":489,"x_min":0,"x_max":0,"o":"m 436 1014 b 323 1044 410 1055 369 1065 b 383 609 401 906 403 759 b 224 140 361 444 307 285 b -36 -102 166 41 81 -72 b -55 -106 -43 -103 -49 -104 b -61 -138 -72 -113 -74 -126 b 206 -70 23 -218 142 -138 b 469 457 340 72 425 269 b 436 1014 509 626 531 869 z m 192 -53 b 203 -38 193 -46 198 -41 z m 321 188 b 297 153 317 174 309 161 b 321 188 304 165 308 180 z m 295 151 b 282 122 303 136 288 131 b 295 151 286 132 291 141 z m 270 97 l 271 96 b 244 60 262 84 253 72 l 243 61 z m 233 -7 b 253 20 236 4 244 13 z m 297 85 b 266 44 288 73 278 60 b 296 100 273 67 293 79 b 297 86 300 96 300 90 z m 321 127 b 296 100 315 116 307 107 b 318 141 305 113 317 124 b 321 127 321 137 324 133 z m 318 141 b 338 174 327 151 334 162 b 318 141 345 156 329 150 z m 339 178 b 363 208 346 188 350 202 b 339 178 356 197 352 184 z m 384 261 b 363 210 377 244 370 227 b 364 226 358 215 362 220 b 383 280 369 244 382 260 b 384 261 389 274 387 268 z m 384 281 b 406 322 394 291 392 309 b 384 281 401 304 398 288 z m 424 471 b 322 190 401 373 367 279 b 323 205 316 195 321 200 b 418 477 364 293 395 384 b 424 491 419 482 422 487 b 424 471 431 484 426 477 z m 425 494 b 443 588 425 526 435 557 b 425 494 440 556 441 523 z m 446 610 b 450 644 442 621 444 634 b 446 610 454 632 452 620 z m 450 646 b 456 710 446 667 448 689 b 450 646 454 688 460 666 z "},"*":{"ha":304,"x_min":0,"x_max":0,"o":"m 275 913 b 306 918 286 914 296 916 b 330 971 326 923 335 945 b 298 989 326 991 326 991 b 279 990 292 989 285 986 b 278 993 279 991 278 992 b 291 1020 279 1004 287 1011 b 294 1042 295 1026 296 1035 b 280 1061 292 1050 287 1057 b 227 1057 257 1075 239 1074 b 191 1003 215 1040 207 1019 b 156 1040 177 1013 165 1026 b 119 1057 147 1052 133 1058 b 79 1033 102 1057 87 1047 b 90 1004 73 1023 85 1013 b 112 970 98 993 110 985 b 101 968 109 969 105 968 b 74 942 81 971 73 961 b 72 935 74 940 74 937 b 95 900 64 914 74 900 b 127 899 106 900 116 905 b 120 885 127 893 122 889 b 103 847 113 872 102 861 b 124 826 103 835 118 833 b 167 822 142 805 151 804 b 204 872 180 838 186 858 b 224 849 211 865 218 858 b 292 823 240 821 262 815 b 310 871 326 832 331 844 b 275 913 299 884 281 891 z "},"+":{"ha":418,"x_min":0,"x_max":0,"o":"m 414 402 b 381 448 422 437 415 446 b 300 454 354 450 327 452 b 279 461 293 454 285 452 b 298 532 285 484 292 508 b 301 557 301 540 302 549 b 281 573 300 570 279 555 b 269 574 282 580 274 578 b 263 577 265 571 263 574 b 226 595 264 610 238 590 b 208 576 216 600 211 585 b 175 481 196 545 186 513 b 138 455 166 455 166 455 b 44 454 107 455 75 455 b 20 445 35 454 19 456 b 46 434 20 430 36 435 b 65 434 52 433 59 434 b 143 434 91 434 117 434 b 26 430 104 430 65 430 b 11 422 20 430 11 430 b 26 412 11 413 22 417 b 0 394 18 405 0 412 b 25 375 0 379 12 376 b 6 363 19 368 10 374 b 131 348 46 346 89 356 b 105 247 123 314 114 281 b 125 199 101 229 109 203 b 163 188 137 194 150 190 b 194 206 181 186 189 190 b 234 320 207 244 222 281 b 275 348 246 354 245 347 b 373 350 308 349 340 352 b 416 377 396 348 404 363 b 414 402 423 387 412 394 z m 284 431 l 284 432 l 312 432 l 312 431 z "},",":{"ha":254,"x_min":0,"x_max":0,"o":"m 10 13 b 60 -61 10 -23 23 -50 b -42 -133 38 -104 11 -136 b -39 -147 -41 -138 -40 -143 b 14 -191 -29 -169 -10 -185 b 81 -177 37 -197 62 -192 b 179 -39 128 -143 162 -94 b 10 13 223 90 14 145 z "},"-":{"ha":614,"x_min":0,"x_max":0,"o":"m 558 364 b 523 399 556 392 552 395 b 500 401 515 400 508 401 b 247 406 416 403 331 405 b 169 403 221 408 195 407 b 159 388 162 402 156 401 l 356 388 b 187 384 300 384 244 384 b 147 371 174 384 159 387 b 245 358 179 353 214 366 b 157 357 216 358 186 358 b 139 348 150 357 141 358 b 147 315 137 336 149 327 b 167 307 147 308 160 307 b 241 303 192 305 217 304 b 514 301 332 298 423 297 b 555 332 533 301 550 314 b 558 364 558 342 559 353 z m 515 379 b 486 379 505 379 496 379 b 483 380 485 379 484 379 l 515 380 z "},".":{"ha":251,"x_min":0,"x_max":0,"o":"m 75 90 b 5 -29 23 80 -14 20 b 106 -89 20 -69 63 -104 b 183 3 146 -76 183 -32 b 75 90 182 48 120 99 z "},"/":{"ha":357,"x_min":0,"x_max":0,"o":"m 501 1035 b 468 1042 490 1037 481 1049 b 439 1022 449 1050 444 1035 b 336 755 401 934 369 844 b 247 511 305 674 277 592 b 73 41 189 354 131 197 b 85 13 68 27 66 19 b 115 1 96 11 106 7 b 159 19 129 -10 153 1 b 193 110 171 49 181 80 b 444 776 277 332 361 554 b 520 987 471 846 498 916 b 501 1035 526 1008 519 1031 z "},":":{"ha":397,"x_min":0,"x_max":0,"o":"m 289 643 b 219 524 237 632 201 573 b 321 463 235 484 277 449 b 397 556 361 476 398 521 b 289 643 396 601 334 652 z m 215 377 b 145 258 163 367 126 307 b 247 197 160 218 203 183 b 323 290 287 211 323 255 b 215 377 322 335 260 386 z "},";":{"ha":419,"x_min":0,"x_max":0,"o":"m 163 314 b 213 239 162 278 175 251 b 111 168 191 197 164 165 b 114 154 111 163 112 158 b 167 110 124 132 143 115 b 234 124 190 104 215 109 b 332 262 281 158 315 207 b 163 314 376 390 167 446 z m 312 643 b 242 524 260 632 223 573 b 343 463 257 484 300 449 b 419 555 383 476 420 521 b 312 643 419 601 357 652 z "},"<":{"ha":432,"x_min":0,"x_max":0,"o":"m 304 586 b 272 571 293 581 282 576 b 44 459 196 533 120 496 b 16 442 34 454 24 449 b 16 384 -5 422 -6 400 b 136 295 56 354 96 324 b 263 203 178 264 220 233 b 329 220 286 187 311 195 b 316 272 346 245 345 251 b 177 375 270 307 223 341 b 125 413 161 387 144 399 b 236 468 164 432 200 450 b 344 521 272 485 308 503 b 363 541 352 525 362 528 b 345 579 364 556 357 570 b 304 586 333 588 318 591 z "},"=":{"ha":504,"x_min":0,"x_max":0,"o":"m 434 498 b 404 527 431 518 424 525 b 228 534 345 533 287 532 b 76 534 178 536 127 535 b 35 520 62 534 46 536 b 244 514 103 515 170 518 b 229 513 235 513 232 513 b 63 512 174 513 119 512 b 25 499 50 512 36 514 b 126 486 60 482 94 494 b 38 486 97 486 67 486 b 18 479 31 486 23 487 b 36 437 13 470 26 440 b 117 431 63 429 90 433 b 391 430 208 426 300 425 b 433 461 411 431 434 445 b 434 498 432 474 436 485 z m 390 507 b 361 507 380 507 370 507 b 357 508 359 507 358 508 l 390 508 z m 415 283 b 384 328 425 313 414 326 b 53 335 274 338 163 335 b 30 333 45 335 37 334 b 20 323 24 333 19 330 b 29 316 20 319 24 315 b 61 314 40 315 50 314 b 316 314 146 314 231 314 b 180 311 271 311 225 311 b 40 311 133 311 86 311 b 8 300 29 311 16 314 l 30 291 b 9 287 23 290 16 289 b 3 265 -2 283 -1 274 b 12 257 5 261 8 258 b 24 252 16 255 22 259 b 8 249 19 251 13 250 b 5 244 7 249 7 247 b 47 234 18 237 33 234 b 376 231 157 229 266 227 b 418 264 395 233 412 245 b 415 283 421 271 412 274 z "},">":{"ha":433,"x_min":0,"x_max":0,"o":"m 346 377 b 276 429 323 394 299 412 b 107 552 220 470 164 511 b 49 554 85 568 63 570 b 30 530 42 547 36 539 b 36 497 22 515 23 506 b 103 446 58 480 80 463 b 239 347 147 414 190 382 b 162 309 210 332 186 321 b 19 238 114 285 66 262 b 3 202 1 229 -4 217 b 35 168 10 188 22 176 b 62 175 44 162 54 171 b 331 307 152 219 241 263 b 347 317 337 309 342 313 b 346 377 369 337 369 359 z "},"?":{"ha":443,"x_min":0,"x_max":0,"o":"m 480 1065 b 182 837 341 1085 218 956 b 231 608 158 762 160 659 b 258 607 239 601 251 600 b 257 633 268 617 263 626 b 228 704 239 653 229 678 b 361 975 228 814 277 907 b 504 953 412 1017 511 1041 b 349 656 495 842 412 743 b 136 267 264 537 159 417 b 173 168 130 228 135 191 b 182 159 177 166 180 163 b 245 175 209 134 240 139 b 621 879 287 448 578 602 b 589 1002 627 923 615 967 b 480 1065 562 1037 523 1060 z m 231 435 l 185 336 b 230 436 193 373 204 408 b 295 534 245 473 267 506 b 347 604 307 561 325 584 b 297 532 336 577 319 552 b 231 435 278 498 256 465 z m 252 403 b 267 432 253 414 258 425 b 252 403 268 421 261 413 z m 328 519 b 285 457 321 493 300 477 b 328 519 296 481 306 504 z m 329 521 b 348 548 329 531 336 537 b 329 521 343 533 340 524 z m 349 606 b 377 647 351 625 367 634 b 349 606 373 631 363 616 z m 144 90 b 75 -29 92 80 56 20 b 176 -89 90 -69 132 -104 b 252 3 216 -76 253 -32 b 144 90 251 48 189 99 z "},"@":{"ha":1057,"x_min":0,"x_max":0,"o":"m 997 295 b 979 257 987 295 982 266 b 668 -127 937 98 808 -47 b 309 -134 560 -189 411 -209 b 209 353 175 -35 163 186 b 538 778 259 531 370 695 b 861 704 644 831 810 835 b 834 319 906 587 874 433 b 688 67 802 226 752 141 b 624 8 669 45 648 25 b 631 84 619 34 622 60 b 765 440 668 205 713 324 b 804 536 779 472 791 504 b 766 617 817 568 801 600 b 710 599 740 630 726 625 b 688 560 702 586 695 573 b 667 532 683 549 676 539 b 647 555 660 540 654 548 b 435 525 583 623 491 588 b 256 187 348 427 283 306 b 317 6 242 123 244 33 b 420 29 353 -7 393 2 b 520 160 460 67 489 115 l 524 158 b 518 108 522 141 520 125 b 589 -58 511 48 520 -40 b 787 61 670 -79 744 4 b 967 507 889 189 951 344 b 811 877 979 641 945 814 b 338 739 658 948 448 846 b 122 -12 152 558 46 244 b 626 -224 189 -237 429 -298 b 1012 228 818 -153 965 31 b 997 295 1015 242 1021 295 z m 656 446 b 633 391 654 426 646 406 b 656 446 637 410 644 429 z m 514 534 b 496 514 516 523 506 522 b 514 534 498 523 505 530 z m 476 536 l 437 496 b 476 536 448 511 461 525 z m 379 412 b 364 385 379 401 373 391 b 379 412 362 398 372 404 z m 273 132 b 307 277 275 182 286 232 b 312 279 308 278 310 279 b 283 177 302 245 293 211 b 273 132 280 165 278 152 z m 312 280 b 328 322 308 297 320 309 b 312 280 326 307 321 293 z m 341 339 b 363 383 344 363 344 365 b 341 339 360 367 349 356 z m 370 341 b 350 297 367 323 367 323 b 370 341 354 312 361 327 z m 543 85 b 543 117 536 99 542 108 z m 570 55 b 572 108 563 74 563 74 b 570 55 571 92 571 77 z m 438 125 b 402 81 426 110 415 95 b 363 54 395 73 375 48 b 358 75 355 57 357 68 b 385 194 362 115 371 155 b 532 467 418 292 468 385 b 628 516 547 487 599 542 b 640 472 641 505 646 487 b 600 377 626 441 615 408 b 438 125 555 288 500 203 z m 616 254 b 689 436 631 318 656 379 z m 947 496 l 947 483 l 946 495 z "},"A":{"ha":1038,"x_min":0,"x_max":0,"o":"m 1297 1003 b 1272 1018 1282 1003 1281 1017 b 1237 1036 1259 1021 1247 1027 b 1201 1030 1217 1047 1216 1048 b 690 427 1032 828 862 627 b 251 -35 552 267 412 102 b 151 -101 221 -63 187 -85 b 148 41 69 -133 134 13 b 368 333 202 151 276 250 b 495 401 399 361 450 398 b 549 365 532 405 549 391 b 538 317 549 348 546 332 b 549 333 534 307 543 319 b 519 487 573 383 566 451 b 330 466 461 533 385 503 b 34 111 200 378 98 255 b 21 -122 3 42 -18 -54 b 168 -174 51 -174 109 -191 b 355 -47 241 -153 301 -97 b 731 217 463 53 579 189 b 773 174 782 226 782 225 b 760 39 764 129 760 84 b 937 -172 763 -67 829 -156 b 965 -157 952 -174 959 -171 b 951 -134 971 -142 964 -143 b 911 107 885 -90 897 41 b 1073 545 947 259 1001 406 b 1301 950 1142 683 1218 814 b 1297 1003 1309 964 1310 1003 z m 273 342 b 307 373 283 354 290 370 b 273 342 299 359 283 354 z m 350 403 b 309 375 336 394 325 380 b 391 433 326 407 360 419 b 350 403 378 423 364 412 z m 352 449 b 321 427 345 438 333 430 b 352 449 327 440 340 444 z m 209 330 b 296 413 235 360 265 387 b 320 426 303 418 309 426 b 318 421 319 424 319 422 b 192 309 275 386 234 347 b 209 330 198 316 203 324 z m 182 293 b 166 276 180 285 174 278 b 182 293 168 284 174 290 z m 794 57 b 793 105 791 73 791 89 b 794 57 796 89 796 73 z m 803 124 b 793 106 801 116 803 108 b 819 213 799 142 801 179 b 803 124 814 183 808 153 z m 814 322 b 791 303 811 311 805 303 b 691 301 758 305 724 304 b 894 534 762 382 828 458 b 866 458 890 506 876 483 b 814 322 849 413 827 369 z m 995 645 b 840 294 940 529 884 414 b 995 645 876 417 928 535 z m 951 295 b 949 304 945 297 947 301 b 955 315 950 308 953 311 l 958 312 z m 981 379 b 990 408 981 389 984 399 b 981 379 994 398 988 390 z m 991 410 b 1003 435 993 419 997 428 b 991 410 1001 423 1003 413 z m 1021 475 b 1037 508 1023 487 1028 499 b 1021 475 1035 495 1030 484 z m 1029 617 b 881 275 970 508 921 393 b 871 259 879 269 876 263 b 872 277 867 265 870 271 b 1026 631 911 400 963 518 b 1037 642 1029 635 1031 641 b 1069 699 1042 664 1053 683 b 1038 641 1064 677 1053 657 b 1029 617 1039 632 1033 625 z m 1070 701 b 1089 735 1070 713 1079 721 b 1070 701 1086 717 1081 707 z "},"À":{"ha":1038,"x_min":0,"x_max":0,"o":"m 1297 1003 b 1272 1018 1282 1003 1281 1017 b 1237 1036 1259 1021 1247 1027 b 1201 1030 1217 1047 1216 1048 b 690 427 1032 828 862 627 b 251 -35 552 267 412 102 b 151 -101 221 -63 187 -85 b 148 41 69 -133 134 13 b 368 333 202 151 276 250 b 495 401 399 361 450 398 b 549 365 532 405 549 391 b 538 317 549 348 546 332 b 549 333 534 307 543 319 b 519 487 573 383 566 451 b 330 466 461 533 385 503 b 34 111 200 378 98 255 b 21 -122 3 42 -18 -54 b 168 -174 51 -174 109 -191 b 355 -47 241 -153 301 -97 b 731 217 463 53 579 189 b 773 174 782 226 782 225 b 760 39 764 129 760 84 b 937 -172 763 -67 829 -156 b 965 -157 952 -174 959 -171 b 951 -134 971 -142 964 -143 b 911 107 885 -90 897 41 b 1073 545 947 259 1001 406 b 1301 950 1142 683 1218 814 b 1297 1003 1309 964 1310 1003 z m 273 342 b 307 373 283 354 290 370 b 273 342 299 359 283 354 z m 350 403 b 309 375 336 394 325 380 b 391 433 326 407 360 419 b 350 403 378 423 364 412 z m 352 449 b 321 427 345 438 333 430 b 352 449 327 440 340 444 z m 209 330 b 296 413 235 360 265 387 b 320 426 303 418 309 426 b 318 421 319 424 319 422 b 192 309 275 386 234 347 b 209 330 198 316 203 324 z m 182 293 b 166 276 180 285 174 278 b 182 293 168 284 174 290 z m 794 57 b 793 105 791 73 791 89 b 794 57 796 89 796 73 z m 803 124 b 793 106 801 116 803 108 b 819 213 799 142 801 179 b 803 124 814 183 808 153 z m 814 322 b 791 303 811 311 805 303 b 691 301 758 305 724 304 b 894 534 762 382 828 458 b 866 458 890 506 876 483 b 814 322 849 413 827 369 z m 995 645 b 840 294 940 529 884 414 b 995 645 876 417 928 535 z m 951 295 b 949 304 945 297 947 301 b 955 315 950 308 953 311 l 958 312 z m 981 379 b 990 408 981 389 984 399 b 981 379 994 398 988 390 z m 991 410 b 1003 435 993 419 997 428 b 991 410 1001 423 1003 413 z m 1021 475 b 1037 508 1023 487 1028 499 b 1021 475 1035 495 1030 484 z m 1029 617 b 881 275 970 508 921 393 b 871 259 879 269 876 263 b 872 277 867 265 870 271 b 1026 631 911 400 963 518 b 1037 642 1029 635 1031 641 b 1069 699 1042 664 1053 683 b 1038 641 1064 677 1053 657 b 1029 617 1039 632 1033 625 z m 1070 701 b 1089 735 1070 713 1079 721 b 1070 701 1086 717 1081 707 z "},"Á":{"ha":1038,"x_min":0,"x_max":0,"o":"m 1297 1003 b 1272 1018 1282 1003 1281 1017 b 1237 1036 1259 1021 1247 1027 b 1201 1030 1217 1047 1216 1048 b 690 427 1032 828 862 627 b 251 -35 552 267 412 102 b 151 -101 221 -63 187 -85 b 148 41 69 -133 134 13 b 368 333 202 151 276 250 b 495 401 399 361 450 398 b 549 365 532 405 549 391 b 538 317 549 348 546 332 b 549 333 534 307 543 319 b 519 487 573 383 566 451 b 330 466 461 533 385 503 b 34 111 200 378 98 255 b 21 -122 3 42 -18 -54 b 168 -174 51 -174 109 -191 b 355 -47 241 -153 301 -97 b 731 217 463 53 579 189 b 773 174 782 226 782 225 b 760 39 764 129 760 84 b 937 -172 763 -67 829 -156 b 965 -157 952 -174 959 -171 b 951 -134 971 -142 964 -143 b 911 107 885 -90 897 41 b 1073 545 947 259 1001 406 b 1301 950 1142 683 1218 814 b 1297 1003 1309 964 1310 1003 z m 273 342 b 307 373 283 354 290 370 b 273 342 299 359 283 354 z m 350 403 b 309 375 336 394 325 380 b 391 433 326 407 360 419 b 350 403 378 423 364 412 z m 352 449 b 321 427 345 438 333 430 b 352 449 327 440 340 444 z m 209 330 b 296 413 235 360 265 387 b 320 426 303 418 309 426 b 318 421 319 424 319 422 b 192 309 275 386 234 347 b 209 330 198 316 203 324 z m 182 293 b 166 276 180 285 174 278 b 182 293 168 284 174 290 z m 794 57 b 793 105 791 73 791 89 b 794 57 796 89 796 73 z m 803 124 b 793 106 801 116 803 108 b 819 213 799 142 801 179 b 803 124 814 183 808 153 z m 814 322 b 791 303 811 311 805 303 b 691 301 758 305 724 304 b 894 534 762 382 828 458 b 866 458 890 506 876 483 b 814 322 849 413 827 369 z m 995 645 b 840 294 940 529 884 414 b 995 645 876 417 928 535 z m 951 295 b 949 304 945 297 947 301 b 955 315 950 308 953 311 l 958 312 z m 981 379 b 990 408 981 389 984 399 b 981 379 994 398 988 390 z m 991 410 b 1003 435 993 419 997 428 b 991 410 1001 423 1003 413 z m 1021 475 b 1037 508 1023 487 1028 499 b 1021 475 1035 495 1030 484 z m 1029 617 b 881 275 970 508 921 393 b 871 259 879 269 876 263 b 872 277 867 265 870 271 b 1026 631 911 400 963 518 b 1037 642 1029 635 1031 641 b 1069 699 1042 664 1053 683 b 1038 641 1064 677 1053 657 b 1029 617 1039 632 1033 625 z m 1070 701 b 1089 735 1070 713 1079 721 b 1070 701 1086 717 1081 707 z "},"Â":{"ha":1038,"x_min":0,"x_max":0,"o":"m 1297 1003 b 1272 1018 1282 1003 1281 1017 b 1237 1036 1259 1021 1247 1027 b 1201 1030 1217 1047 1216 1048 b 690 427 1032 828 862 627 b 251 -35 552 267 412 102 b 151 -101 221 -63 187 -85 b 148 41 69 -133 134 13 b 368 333 202 151 276 250 b 495 401 399 361 450 398 b 549 365 532 405 549 391 b 538 317 549 348 546 332 b 549 333 534 307 543 319 b 519 487 573 383 566 451 b 330 466 461 533 385 503 b 34 111 200 378 98 255 b 21 -122 3 42 -18 -54 b 168 -174 51 -174 109 -191 b 355 -47 241 -153 301 -97 b 731 217 463 53 579 189 b 773 174 782 226 782 225 b 760 39 764 129 760 84 b 937 -172 763 -67 829 -156 b 965 -157 952 -174 959 -171 b 951 -134 971 -142 964 -143 b 911 107 885 -90 897 41 b 1073 545 947 259 1001 406 b 1301 950 1142 683 1218 814 b 1297 1003 1309 964 1310 1003 z m 273 342 b 307 373 283 354 290 370 b 273 342 299 359 283 354 z m 350 403 b 309 375 336 394 325 380 b 391 433 326 407 360 419 b 350 403 378 423 364 412 z m 352 449 b 321 427 345 438 333 430 b 352 449 327 440 340 444 z m 209 330 b 296 413 235 360 265 387 b 320 426 303 418 309 426 b 318 421 319 424 319 422 b 192 309 275 386 234 347 b 209 330 198 316 203 324 z m 182 293 b 166 276 180 285 174 278 b 182 293 168 284 174 290 z m 794 57 b 793 105 791 73 791 89 b 794 57 796 89 796 73 z m 803 124 b 793 106 801 116 803 108 b 819 213 799 142 801 179 b 803 124 814 183 808 153 z m 814 322 b 791 303 811 311 805 303 b 691 301 758 305 724 304 b 894 534 762 382 828 458 b 866 458 890 506 876 483 b 814 322 849 413 827 369 z m 995 645 b 840 294 940 529 884 414 b 995 645 876 417 928 535 z m 951 295 b 949 304 945 297 947 301 b 955 315 950 308 953 311 l 958 312 z m 981 379 b 990 408 981 389 984 399 b 981 379 994 398 988 390 z m 991 410 b 1003 435 993 419 997 428 b 991 410 1001 423 1003 413 z m 1021 475 b 1037 508 1023 487 1028 499 b 1021 475 1035 495 1030 484 z m 1029 617 b 881 275 970 508 921 393 b 871 259 879 269 876 263 b 872 277 867 265 870 271 b 1026 631 911 400 963 518 b 1037 642 1029 635 1031 641 b 1069 699 1042 664 1053 683 b 1038 641 1064 677 1053 657 b 1029 617 1039 632 1033 625 z m 1070 701 b 1089 735 1070 713 1079 721 b 1070 701 1086 717 1081 707 z "},"Ã":{"ha":1038,"x_min":0,"x_max":0,"o":"m 1297 1003 b 1272 1018 1282 1003 1281 1017 b 1237 1036 1259 1021 1247 1027 b 1201 1030 1217 1047 1216 1048 b 690 427 1032 828 862 627 b 251 -35 552 267 412 102 b 151 -101 221 -63 187 -85 b 148 41 69 -133 134 13 b 368 333 202 151 276 250 b 495 401 399 361 450 398 b 549 365 532 405 549 391 b 538 317 549 348 546 332 b 549 333 534 307 543 319 b 519 487 573 383 566 451 b 330 466 461 533 385 503 b 34 111 200 378 98 255 b 21 -122 3 42 -18 -54 b 168 -174 51 -174 109 -191 b 355 -47 241 -153 301 -97 b 731 217 463 53 579 189 b 773 174 782 226 782 225 b 760 39 764 129 760 84 b 937 -172 763 -67 829 -156 b 965 -157 952 -174 959 -171 b 951 -134 971 -142 964 -143 b 911 107 885 -90 897 41 b 1073 545 947 259 1001 406 b 1301 950 1142 683 1218 814 b 1297 1003 1309 964 1310 1003 z m 273 342 b 307 373 283 354 290 370 b 273 342 299 359 283 354 z m 350 403 b 309 375 336 394 325 380 b 391 433 326 407 360 419 b 350 403 378 423 364 412 z m 352 449 b 321 427 345 438 333 430 b 352 449 327 440 340 444 z m 209 330 b 296 413 235 360 265 387 b 320 426 303 418 309 426 b 318 421 319 424 319 422 b 192 309 275 386 234 347 b 209 330 198 316 203 324 z m 182 293 b 166 276 180 285 174 278 b 182 293 168 284 174 290 z m 794 57 b 793 105 791 73 791 89 b 794 57 796 89 796 73 z m 803 124 b 793 106 801 116 803 108 b 819 213 799 142 801 179 b 803 124 814 183 808 153 z m 814 322 b 791 303 811 311 805 303 b 691 301 758 305 724 304 b 894 534 762 382 828 458 b 866 458 890 506 876 483 b 814 322 849 413 827 369 z m 995 645 b 840 294 940 529 884 414 b 995 645 876 417 928 535 z m 951 295 b 949 304 945 297 947 301 b 955 315 950 308 953 311 l 958 312 z m 981 379 b 990 408 981 389 984 399 b 981 379 994 398 988 390 z m 991 410 b 1003 435 993 419 997 428 b 991 410 1001 423 1003 413 z m 1021 475 b 1037 508 1023 487 1028 499 b 1021 475 1035 495 1030 484 z m 1029 617 b 881 275 970 508 921 393 b 871 259 879 269 876 263 b 872 277 867 265 870 271 b 1026 631 911 400 963 518 b 1037 642 1029 635 1031 641 b 1069 699 1042 664 1053 683 b 1038 641 1064 677 1053 657 b 1029 617 1039 632 1033 625 z m 1070 701 b 1089 735 1070 713 1079 721 b 1070 701 1086 717 1081 707 z "},"Ä":{"ha":1038,"x_min":0,"x_max":0,"o":"m 1297 1003 b 1272 1018 1282 1003 1281 1017 b 1237 1036 1259 1021 1247 1027 b 1201 1030 1217 1047 1216 1048 b 690 427 1032 828 862 627 b 251 -35 552 267 412 102 b 151 -101 221 -63 187 -85 b 148 41 69 -133 134 13 b 368 333 202 151 276 250 b 495 401 399 361 450 398 b 549 365 532 405 549 391 b 538 317 549 348 546 332 b 549 333 534 307 543 319 b 519 487 573 383 566 451 b 330 466 461 533 385 503 b 34 111 200 378 98 255 b 21 -122 3 42 -18 -54 b 168 -174 51 -174 109 -191 b 355 -47 241 -153 301 -97 b 731 217 463 53 579 189 b 773 174 782 226 782 225 b 760 39 764 129 760 84 b 937 -172 763 -67 829 -156 b 965 -157 952 -174 959 -171 b 951 -134 971 -142 964 -143 b 911 107 885 -90 897 41 b 1073 545 947 259 1001 406 b 1301 950 1142 683 1218 814 b 1297 1003 1309 964 1310 1003 z m 273 342 b 307 373 283 354 290 370 b 273 342 299 359 283 354 z m 350 403 b 309 375 336 394 325 380 b 391 433 326 407 360 419 b 350 403 378 423 364 412 z m 352 449 b 321 427 345 438 333 430 b 352 449 327 440 340 444 z m 209 330 b 296 413 235 360 265 387 b 320 426 303 418 309 426 b 318 421 319 424 319 422 b 192 309 275 386 234 347 b 209 330 198 316 203 324 z m 182 293 b 166 276 180 285 174 278 b 182 293 168 284 174 290 z m 794 57 b 793 105 791 73 791 89 b 794 57 796 89 796 73 z m 803 124 b 793 106 801 116 803 108 b 819 213 799 142 801 179 b 803 124 814 183 808 153 z m 814 322 b 791 303 811 311 805 303 b 691 301 758 305 724 304 b 894 534 762 382 828 458 b 866 458 890 506 876 483 b 814 322 849 413 827 369 z m 995 645 b 840 294 940 529 884 414 b 995 645 876 417 928 535 z m 951 295 b 949 304 945 297 947 301 b 955 315 950 308 953 311 l 958 312 z m 981 379 b 990 408 981 389 984 399 b 981 379 994 398 988 390 z m 991 410 b 1003 435 993 419 997 428 b 991 410 1001 423 1003 413 z m 1021 475 b 1037 508 1023 487 1028 499 b 1021 475 1035 495 1030 484 z m 1029 617 b 881 275 970 508 921 393 b 871 259 879 269 876 263 b 872 277 867 265 870 271 b 1026 631 911 400 963 518 b 1037 642 1029 635 1031 641 b 1069 699 1042 664 1053 683 b 1038 641 1064 677 1053 657 b 1029 617 1039 632 1033 625 z m 1070 701 b 1089 735 1070 713 1079 721 b 1070 701 1086 717 1081 707 z "},"Å":{"ha":1038,"x_min":0,"x_max":0,"o":"m 1297 1003 b 1272 1018 1282 1003 1281 1017 b 1237 1036 1259 1021 1247 1027 b 1201 1030 1217 1047 1216 1048 b 690 427 1032 828 862 627 b 251 -35 552 267 412 102 b 151 -101 221 -63 187 -85 b 148 41 69 -133 134 13 b 368 333 202 151 276 250 b 495 401 399 361 450 398 b 549 365 532 405 549 391 b 538 317 549 348 546 332 b 549 333 534 307 543 319 b 519 487 573 383 566 451 b 330 466 461 533 385 503 b 34 111 200 378 98 255 b 21 -122 3 42 -18 -54 b 168 -174 51 -174 109 -191 b 355 -47 241 -153 301 -97 b 731 217 463 53 579 189 b 773 174 782 226 782 225 b 760 39 764 129 760 84 b 937 -172 763 -67 829 -156 b 965 -157 952 -174 959 -171 b 951 -134 971 -142 964 -143 b 911 107 885 -90 897 41 b 1073 545 947 259 1001 406 b 1301 950 1142 683 1218 814 b 1297 1003 1309 964 1310 1003 z m 273 342 b 307 373 283 354 290 370 b 273 342 299 359 283 354 z m 350 403 b 309 375 336 394 325 380 b 391 433 326 407 360 419 b 350 403 378 423 364 412 z m 352 449 b 321 427 345 438 333 430 b 352 449 327 440 340 444 z m 209 330 b 296 413 235 360 265 387 b 320 426 303 418 309 426 b 318 421 319 424 319 422 b 192 309 275 386 234 347 b 209 330 198 316 203 324 z m 182 293 b 166 276 180 285 174 278 b 182 293 168 284 174 290 z m 794 57 b 793 105 791 73 791 89 b 794 57 796 89 796 73 z m 803 124 b 793 106 801 116 803 108 b 819 213 799 142 801 179 b 803 124 814 183 808 153 z m 814 322 b 791 303 811 311 805 303 b 691 301 758 305 724 304 b 894 534 762 382 828 458 b 866 458 890 506 876 483 b 814 322 849 413 827 369 z m 995 645 b 840 294 940 529 884 414 b 995 645 876 417 928 535 z m 951 295 b 949 304 945 297 947 301 b 955 315 950 308 953 311 l 958 312 z m 981 379 b 990 408 981 389 984 399 b 981 379 994 398 988 390 z m 991 410 b 1003 435 993 419 997 428 b 991 410 1001 423 1003 413 z m 1021 475 b 1037 508 1023 487 1028 499 b 1021 475 1035 495 1030 484 z m 1029 617 b 881 275 970 508 921 393 b 871 259 879 269 876 263 b 872 277 867 265 870 271 b 1026 631 911 400 963 518 b 1037 642 1029 635 1031 641 b 1069 699 1042 664 1053 683 b 1038 641 1064 677 1053 657 b 1029 617 1039 632 1033 625 z m 1070 701 b 1089 735 1070 713 1079 721 b 1070 701 1086 717 1081 707 z "},"B":{"ha":743,"x_min":0,"x_max":0,"o":"m 710 1026 b 248 869 540 1083 364 983 b 72 626 175 799 116 717 b 96 437 42 564 34 484 b 239 434 128 413 191 416 b 259 443 264 443 268 446 b 191 465 243 438 217 441 b 214 614 152 502 200 594 b 446 853 276 707 355 788 b 717 862 539 920 650 950 b 740 703 745 825 749 748 b 582 490 722 612 664 534 b 489 499 553 475 514 473 b 468 502 483 504 478 511 b 472 480 460 494 467 486 b 544 337 506 438 530 389 b 237 -65 587 143 431 -50 b 155 -48 209 -67 180 -61 b 217 344 -2 37 47 310 b 240 357 226 345 240 347 b 227 374 241 365 235 373 b 85 321 180 383 120 354 b 10 44 10 252 -16 143 b 409 -143 55 -131 248 -195 b 623 386 618 -76 744 191 b 607 410 619 393 613 401 b 610 415 605 412 608 415 b 862 658 713 425 824 541 b 710 1026 917 829 848 981 z m 159 722 b 142 694 159 711 151 703 b 159 722 142 705 149 716 z m 155 654 b 122 593 147 632 136 611 b 155 654 128 616 133 639 z m 156 656 b 171 680 154 667 163 673 b 156 656 169 670 164 661 z m 160 724 b 198 772 169 743 182 759 b 160 724 186 755 179 735 z m 453 -66 l 523 -2 b 453 -66 505 -29 481 -51 z m 533 -42 b 500 -69 526 -55 514 -65 b 531 -40 507 -57 518 -46 l 578 16 b 533 -42 572 -8 560 -23 z m 774 614 b 800 683 775 635 778 644 b 774 614 798 655 786 636 z m 814 628 b 807 618 812 625 809 622 l 805 621 l 813 638 b 814 628 819 635 816 631 z m 827 671 l 846 735 b 827 671 848 710 845 696 z m 228 152 b 277 125 229 127 256 125 b 335 149 298 124 330 121 b 382 338 345 213 361 276 b 608 786 440 496 515 646 b 570 861 630 821 612 858 b 461 793 523 863 484 831 b 242 250 361 624 283 442 b 228 152 233 218 229 185 z m 362 460 b 351 448 360 455 358 449 b 390 541 362 480 375 511 b 362 460 391 511 371 487 z m 495 746 b 494 728 499 740 499 733 b 405 558 462 672 433 616 b 392 544 402 552 402 543 b 495 746 420 614 455 682 z m 406 644 b 426 687 413 659 419 673 b 406 644 429 670 421 653 z m 478 777 l 484 774 b 435 690 468 746 452 718 b 427 689 434 689 430 689 b 478 777 444 719 461 748 z m 404 640 b 392 607 407 627 397 618 b 404 640 390 620 398 630 z m 392 605 b 379 582 390 596 385 588 b 392 605 379 593 380 601 z m 350 446 b 339 397 356 428 341 414 b 350 446 334 415 345 430 z m 338 394 b 309 302 326 364 319 333 b 301 291 308 297 308 291 b 328 385 305 324 319 354 b 338 394 329 390 333 394 z m 301 289 b 297 249 303 276 302 262 b 286 211 295 236 291 223 b 301 289 285 238 290 265 z m 273 288 b 271 272 275 283 274 277 b 273 288 268 277 269 284 z m 262 242 b 261 216 265 233 265 224 b 262 242 255 225 260 233 z "},"C":{"ha":571,"x_min":0,"x_max":0,"o":"m 638 310 b 599 290 616 321 613 318 b 449 15 551 192 504 106 b 210 -86 387 -87 290 -148 b 146 237 128 -22 134 146 b 503 884 178 473 311 738 b 658 920 537 910 620 962 b 653 828 681 896 667 852 b 501 647 614 758 563 697 b 386 625 485 634 408 582 b 388 664 380 638 381 652 b 381 654 391 669 384 659 b 482 533 342 580 401 502 b 764 896 617 585 759 761 b 582 1042 767 986 696 1057 b 217 801 433 1022 305 919 b 0 215 94 636 7 422 b 76 -92 -3 112 16 -14 b 314 -167 132 -166 225 -202 b 626 236 469 -108 554 95 b 638 310 654 291 661 298 z m 190 482 b 196 500 184 491 197 494 b 190 482 198 492 194 487 z m 320 724 b 333 744 320 732 325 740 b 320 724 334 735 328 731 z m 367 919 b 355 908 367 913 361 908 b 367 919 356 915 361 918 z m 32 179 b 320 876 36 449 137 679 b 32 179 146 676 48 444 z m 98 389 b 106 420 96 400 99 411 b 98 389 107 409 104 398 z m 419 914 b 125 472 282 792 190 642 b 419 914 147 600 305 853 z "},"Ç":{"ha":571,"x_min":0,"x_max":0,"o":"m 638 310 b 599 290 616 321 613 318 b 449 15 551 192 504 106 b 210 -86 387 -87 290 -148 b 146 237 128 -22 134 146 b 503 884 178 473 311 738 b 658 920 537 910 620 962 b 653 828 681 896 667 852 b 501 647 614 758 563 697 b 386 625 485 634 408 582 b 388 664 380 638 381 652 b 381 654 391 669 384 659 b 482 533 342 580 401 502 b 764 896 617 585 759 761 b 582 1042 767 986 696 1057 b 217 801 433 1022 305 919 b 0 215 94 636 7 422 b 76 -92 -3 112 16 -14 b 314 -167 132 -166 225 -202 b 626 236 469 -108 554 95 b 638 310 654 291 661 298 z m 190 482 b 196 500 184 491 197 494 b 190 482 198 492 194 487 z m 320 724 b 333 744 320 732 325 740 b 320 724 334 735 328 731 z m 367 919 b 355 908 367 913 361 908 b 367 919 356 915 361 918 z m 32 179 b 320 876 36 449 137 679 b 32 179 146 676 48 444 z m 98 389 b 106 420 96 400 99 411 b 98 389 107 409 104 398 z m 419 914 b 125 472 282 792 190 642 b 419 914 147 600 305 853 z "},"D":{"ha":933,"x_min":0,"x_max":0,"o":"m 911 979 b 342 856 728 1131 484 993 b 160 610 269 785 198 706 b 185 446 138 554 141 481 b 320 428 222 416 275 413 b 352 444 348 438 357 448 b 325 434 344 439 335 435 b 264 473 299 433 274 448 b 309 606 249 513 286 572 b 541 837 369 697 453 774 b 813 879 615 890 729 944 b 855 632 887 821 877 711 b 422 25 789 395 622 165 b 129 -68 342 -31 230 -109 b 92 167 31 -28 45 93 b 290 335 138 243 208 302 b 303 344 296 336 300 340 b 280 367 309 356 292 370 b 140 296 228 354 181 330 b 16 -28 50 219 -37 93 b 321 -141 63 -136 206 -174 b 687 97 459 -100 587 -2 b 1014 707 846 255 992 479 b 911 979 1024 809 995 909 z m 249 708 b 234 678 246 697 241 687 b 214 648 227 668 220 658 b 249 708 220 671 233 692 z m 220 590 b 269 672 225 620 236 641 z m 279 741 l 274 745 b 313 782 283 760 297 773 z m 828 378 b 832 375 829 380 831 379 b 790 310 820 352 806 330 l 784 314 b 828 378 799 335 813 357 z m 525 -10 l 551 9 l 525 -11 z m 636 84 b 653 103 639 93 645 99 b 636 84 653 94 645 86 z m 667 114 b 679 131 666 123 674 126 b 681 132 680 131 681 132 b 683 129 682 131 682 130 b 667 114 680 122 674 117 z m 728 178 b 715 163 724 173 720 168 b 711 165 713 161 710 163 b 723 180 715 170 719 176 b 728 183 725 181 726 182 b 728 178 728 179 729 178 z m 731 231 b 662 150 712 201 689 173 b 601 88 645 126 624 105 b 472 -16 563 47 520 12 b 598 91 516 18 555 57 b 659 153 616 113 637 134 b 729 234 680 182 703 209 b 774 294 741 256 756 276 b 731 231 765 270 750 248 z m 756 209 b 751 206 755 207 752 207 b 754 218 747 211 751 215 b 817 298 776 244 792 275 b 795 259 817 281 804 271 b 756 209 783 241 769 225 z m 832 311 b 818 299 829 306 826 299 b 828 319 818 307 824 313 b 938 525 871 384 908 453 b 956 544 941 533 942 546 b 932 489 947 526 938 508 b 832 311 905 427 871 367 z m 957 545 b 958 573 953 554 953 564 b 957 545 962 562 955 554 z m 364 109 b 423 130 391 106 418 109 b 723 777 472 355 589 589 b 679 854 750 814 722 854 b 573 788 630 854 598 827 b 347 299 474 637 398 472 b 316 165 333 255 322 210 b 322 122 314 151 308 130 b 364 109 335 115 350 111 z m 591 768 b 581 747 595 758 587 754 b 591 768 578 758 584 763 z m 561 712 b 534 668 552 697 543 683 b 561 712 535 686 545 703 z m 518 647 b 506 616 517 636 512 625 b 518 647 503 627 509 635 z m 505 614 b 492 590 500 606 496 598 b 505 614 492 600 492 611 z m 605 738 b 619 757 610 744 614 750 b 616 739 627 748 619 744 b 450 423 552 639 496 533 b 442 415 448 419 446 416 b 472 492 449 442 459 468 b 605 738 510 578 554 660 z m 437 479 b 430 463 441 471 434 468 b 437 479 429 471 434 474 z m 441 413 b 427 370 442 399 434 387 b 441 413 426 385 431 401 z m 413 331 l 377 200 b 413 331 378 246 393 289 z m 363 280 l 365 280 l 363 262 l 361 262 z m 349 233 l 354 231 b 351 206 353 223 352 214 b 347 207 349 203 347 204 b 350 233 348 216 349 224 z "},"E":{"ha":726,"x_min":0,"x_max":0,"o":"m 791 282 b 781 328 801 298 813 314 b 745 298 767 335 752 309 b 481 -20 668 185 582 70 b 195 -123 407 -85 291 -160 b 159 97 123 -94 141 39 b 466 381 203 235 321 356 b 508 392 484 384 504 385 b 512 413 512 399 516 405 b 458 555 487 457 460 504 b 547 807 453 647 485 738 b 759 915 603 870 677 916 b 793 801 830 915 818 844 b 579 588 746 720 671 618 b 531 605 557 581 537 582 b 534 642 528 617 530 630 b 528 632 537 648 530 637 b 570 515 506 588 519 527 b 762 612 634 500 716 567 b 886 785 814 661 856 720 b 595 1007 968 969 855 1112 b 333 687 452 949 351 815 b 353 505 324 623 327 564 b 340 481 362 486 361 485 b 12 130 196 456 46 278 b 253 -196 -26 -36 16 -219 b 791 282 461 -176 676 81 z m 191 230 b 206 248 194 237 195 246 b 262 311 215 277 243 291 b 206 248 248 286 229 265 b 191 230 206 238 199 234 z m 79 200 b 218 380 105 273 153 336 b 79 200 163 326 117 266 z m 250 351 b 151 241 218 313 183 278 b 250 351 172 287 206 325 z m 406 761 b 499 901 421 816 454 865 b 449 832 482 878 464 856 b 406 761 433 809 420 785 z m 473 804 b 568 913 491 850 524 889 b 473 804 536 877 502 842 z "},"È":{"ha":726,"x_min":0,"x_max":0,"o":"m 791 282 b 781 328 801 298 813 314 b 745 298 767 335 752 309 b 481 -20 668 185 582 70 b 195 -123 407 -85 291 -160 b 159 97 123 -94 141 39 b 466 381 203 235 321 356 b 508 392 484 384 504 385 b 512 413 512 399 516 405 b 458 555 487 457 460 504 b 547 807 453 647 485 738 b 759 915 603 870 677 916 b 793 801 830 915 818 844 b 579 588 746 720 671 618 b 531 605 557 581 537 582 b 534 642 528 617 530 630 b 528 632 537 648 530 637 b 570 515 506 588 519 527 b 762 612 634 500 716 567 b 886 785 814 661 856 720 b 595 1007 968 969 855 1112 b 333 687 452 949 351 815 b 353 505 324 623 327 564 b 340 481 362 486 361 485 b 12 130 196 456 46 278 b 253 -196 -26 -36 16 -219 b 791 282 461 -176 676 81 z m 191 230 b 206 248 194 237 195 246 b 262 311 215 277 243 291 b 206 248 248 286 229 265 b 191 230 206 238 199 234 z m 79 200 b 218 380 105 273 153 336 b 79 200 163 326 117 266 z m 250 351 b 151 241 218 313 183 278 b 250 351 172 287 206 325 z m 406 761 b 499 901 421 816 454 865 b 449 832 482 878 464 856 b 406 761 433 809 420 785 z m 473 804 b 568 913 491 850 524 889 b 473 804 536 877 502 842 z "},"É":{"ha":726,"x_min":0,"x_max":0,"o":"m 791 282 b 781 328 801 298 813 314 b 745 298 767 335 752 309 b 481 -20 668 185 582 70 b 195 -123 407 -85 291 -160 b 159 97 123 -94 141 39 b 466 381 203 235 321 356 b 508 392 484 384 504 385 b 512 413 512 399 516 405 b 458 555 487 457 460 504 b 547 807 453 647 485 738 b 759 915 603 870 677 916 b 793 801 830 915 818 844 b 579 588 746 720 671 618 b 531 605 557 581 537 582 b 534 642 528 617 530 630 b 528 632 537 648 530 637 b 570 515 506 588 519 527 b 762 612 634 500 716 567 b 886 785 814 661 856 720 b 595 1007 968 969 855 1112 b 333 687 452 949 351 815 b 353 505 324 623 327 564 b 340 481 362 486 361 485 b 12 130 196 456 46 278 b 253 -196 -26 -36 16 -219 b 791 282 461 -176 676 81 z m 191 230 b 206 248 194 237 195 246 b 262 311 215 277 243 291 b 206 248 248 286 229 265 b 191 230 206 238 199 234 z m 79 200 b 218 380 105 273 153 336 b 79 200 163 326 117 266 z m 250 351 b 151 241 218 313 183 278 b 250 351 172 287 206 325 z m 406 761 b 499 901 421 816 454 865 b 449 832 482 878 464 856 b 406 761 433 809 420 785 z m 473 804 b 568 913 491 850 524 889 b 473 804 536 877 502 842 z "},"Ê":{"ha":726,"x_min":0,"x_max":0,"o":"m 791 282 b 781 328 801 298 813 314 b 745 298 767 335 752 309 b 481 -20 668 185 582 70 b 195 -123 407 -85 291 -160 b 159 97 123 -94 141 39 b 466 381 203 235 321 356 b 508 392 484 384 504 385 b 512 413 512 399 516 405 b 458 555 487 457 460 504 b 547 807 453 647 485 738 b 759 915 603 870 677 916 b 793 801 830 915 818 844 b 579 588 746 720 671 618 b 531 605 557 581 537 582 b 534 642 528 617 530 630 b 528 632 537 648 530 637 b 570 515 506 588 519 527 b 762 612 634 500 716 567 b 886 785 814 661 856 720 b 595 1007 968 969 855 1112 b 333 687 452 949 351 815 b 353 505 324 623 327 564 b 340 481 362 486 361 485 b 12 130 196 456 46 278 b 253 -196 -26 -36 16 -219 b 791 282 461 -176 676 81 z m 191 230 b 206 248 194 237 195 246 b 262 311 215 277 243 291 b 206 248 248 286 229 265 b 191 230 206 238 199 234 z m 79 200 b 218 380 105 273 153 336 b 79 200 163 326 117 266 z m 250 351 b 151 241 218 313 183 278 b 250 351 172 287 206 325 z m 406 761 b 499 901 421 816 454 865 b 449 832 482 878 464 856 b 406 761 433 809 420 785 z m 473 804 b 568 913 491 850 524 889 b 473 804 536 877 502 842 z "},"Ë":{"ha":726,"x_min":0,"x_max":0,"o":"m 791 282 b 781 328 801 298 813 314 b 745 298 767 335 752 309 b 481 -20 668 185 582 70 b 195 -123 407 -85 291 -160 b 159 97 123 -94 141 39 b 466 381 203 235 321 356 b 508 392 484 384 504 385 b 512 413 512 399 516 405 b 458 555 487 457 460 504 b 547 807 453 647 485 738 b 759 915 603 870 677 916 b 793 801 830 915 818 844 b 579 588 746 720 671 618 b 531 605 557 581 537 582 b 534 642 528 617 530 630 b 528 632 537 648 530 637 b 570 515 506 588 519 527 b 762 612 634 500 716 567 b 886 785 814 661 856 720 b 595 1007 968 969 855 1112 b 333 687 452 949 351 815 b 353 505 324 623 327 564 b 340 481 362 486 361 485 b 12 130 196 456 46 278 b 253 -196 -26 -36 16 -219 b 791 282 461 -176 676 81 z m 191 230 b 206 248 194 237 195 246 b 262 311 215 277 243 291 b 206 248 248 286 229 265 b 191 230 206 238 199 234 z m 79 200 b 218 380 105 273 153 336 b 79 200 163 326 117 266 z m 250 351 b 151 241 218 313 183 278 b 250 351 172 287 206 325 z m 406 761 b 499 901 421 816 454 865 b 449 832 482 878 464 856 b 406 761 433 809 420 785 z m 473 804 b 568 913 491 850 524 889 b 473 804 536 877 502 842 z "},"F":{"ha":535,"x_min":0,"x_max":0,"o":"m 635 992 b 845 1070 705 1018 774 1047 b 1049 1072 890 1084 994 1105 b 1089 1003 1081 1052 1090 1035 b 1097 1003 1088 975 1090 984 b 1103 1049 1101 1018 1103 1033 b 752 1197 1102 1232 884 1229 b 294 1062 585 1156 462 1100 b 148 1036 267 1055 181 1036 b 16 1087 90 1035 38 1058 b 0 1086 0 1107 -1 1119 b 32 987 2 1051 13 1017 b 170 901 57 948 120 909 b 199 885 182 901 192 895 b 300 613 251 809 293 711 b 275 587 301 599 292 592 b 179 560 248 577 208 566 b 82 576 146 552 111 558 b 57 572 62 589 54 601 b 91 500 61 534 69 513 b 161 449 116 485 140 468 b 208 263 213 402 231 329 b 78 -105 171 154 118 3 b 76 -136 74 -114 73 -126 b 85 -145 77 -140 81 -144 b 94 -138 91 -146 92 -141 b 113 -96 102 -125 101 -108 b 109 -123 114 -105 112 -115 b 105 -149 107 -132 105 -140 b 112 -162 104 -154 106 -160 b 124 -152 118 -163 122 -158 b 130 -137 126 -147 128 -142 b 225 122 159 -65 196 50 b 374 494 274 246 324 370 b 395 523 378 503 379 515 b 383 489 390 509 387 499 b 188 -16 319 320 255 151 b 137 -152 175 -48 148 -119 b 139 -189 129 -177 113 -195 b 154 -183 145 -188 151 -178 b 175 -181 165 -203 170 -186 b 191 -153 181 -172 187 -163 b 474 532 289 58 385 317 b 513 569 480 550 495 564 b 583 567 536 576 561 575 b 619 534 611 556 615 547 b 624 532 622 526 620 520 b 561 630 636 572 607 613 b 520 641 548 635 534 638 b 608 881 551 721 580 800 b 602 944 616 903 621 924 b 586 975 595 954 590 964 b 635 992 604 982 620 987 z m 344 296 b 303 193 339 258 317 227 b 344 296 315 228 323 264 b 384 399 352 332 370 365 b 418 466 392 422 404 445 b 408 436 415 456 412 446 b 355 310 391 394 373 352 b 344 296 353 305 352 297 z m 773 1074 b 820 1089 786 1087 803 1088 b 773 1075 805 1082 791 1072 b 772 1072 772 1074 772 1072 b 550 990 700 1040 625 1015 b 562 1003 548 1003 557 1001 b 739 1067 621 1024 680 1046 b 773 1074 750 1071 760 1078 z m 272 901 b 483 942 335 909 419 927 b 365 661 449 858 402 746 b 323 790 349 718 336 755 b 272 901 309 826 289 866 z m 159 36 b 334 505 213 194 274 350 l 344 501 z m 251 384 b 193 460 241 417 213 443 b 202 478 184 468 184 474 b 294 496 223 482 270 491 b 251 384 281 460 268 427 z m 831 1153 b 464 1040 708 1117 588 1070 b 831 1153 504 1067 792 1156 z m 524 1087 l 522 1094 b 780 1173 607 1122 692 1153 l 781 1167 z m 386 624 b 454 790 403 681 426 737 b 386 624 437 732 414 677 z m 495 1083 b 452 1069 482 1075 467 1070 b 495 1083 465 1078 480 1083 z m 508 913 b 498 890 508 904 504 896 b 508 913 494 899 501 903 z m 280 142 b 280 133 285 139 282 136 b 274 123 278 129 276 126 l 271 126 z "},"G":{"ha":747,"x_min":0,"x_max":0,"o":"m 462 -128 b 447 -172 458 -143 457 -159 b 481 -203 445 -208 445 -208 b 487 -201 483 -203 486 -200 b 516 -189 507 -221 509 -198 b 522 -174 519 -184 521 -179 b 644 156 564 -64 602 46 b 725 386 674 232 699 309 b 724 410 727 394 733 401 b 723 447 706 428 706 432 b 784 501 743 465 763 483 b 886 522 814 526 854 549 b 834 580 875 546 857 566 b 694 575 784 614 745 603 b 395 362 586 515 499 426 b 330 337 380 352 352 336 b 290 355 315 337 300 343 b 286 351 281 364 282 362 b 328 296 295 329 309 310 b 481 282 377 261 426 253 b 499 283 486 284 493 289 b 356 41 459 198 411 117 b 231 -76 324 -2 283 -56 b 141 73 166 -100 144 30 b 299 658 123 277 195 485 b 602 938 366 769 473 898 b 666 881 643 950 674 923 b 641 817 661 858 653 837 b 508 658 605 758 560 704 b 423 611 485 638 454 616 b 391 618 412 607 400 610 b 379 650 382 626 377 638 b 384 666 380 656 382 661 b 377 655 386 670 378 659 b 382 568 364 627 366 594 b 524 561 409 519 478 533 b 747 830 625 625 704 719 b 613 1043 779 915 752 1033 b 218 812 449 1055 310 934 b 1 234 93 645 10 443 b 183 -167 -5 91 13 -145 b 370 -61 250 -176 314 -133 b 491 129 412 -7 458 75 b 436 -20 487 117 438 -14 b 393 -146 421 -62 407 -104 b 395 -170 390 -155 386 -167 b 429 -188 407 -174 416 -185 b 436 -181 431 -188 434 -184 b 447 -172 439 -178 440 -171 b 462 -128 448 -156 453 -141 z m 582 466 b 610 487 591 480 598 487 b 631 504 611 499 622 500 b 610 487 627 496 619 489 b 582 466 605 478 597 473 z m 522 418 b 544 435 529 429 534 436 b 573 459 548 450 561 454 b 544 436 567 448 556 439 b 522 418 541 426 533 422 z m 319 881 b 270 827 304 862 293 839 b 254 800 271 814 260 808 b 44 315 146 657 74 491 b 34 228 38 287 34 258 l 28 229 b 31 277 29 245 29 261 b 248 805 53 469 128 652 b 271 826 254 813 258 824 b 319 881 280 850 299 866 z m 409 915 b 122 486 279 795 188 649 b 409 915 180 655 266 804 z m 637 464 l 632 471 b 742 541 665 499 702 523 z m 446 -86 l 440 -84 l 485 50 l 491 47 z m 589 427 b 537 394 576 410 558 399 l 584 432 l 589 427 z m 105 437 b 99 405 106 426 104 415 b 105 437 96 416 99 428 z m 236 605 b 226 583 239 596 234 586 z m 364 924 b 346 907 361 916 354 910 b 364 924 350 917 358 920 z m 336 758 b 353 778 339 766 345 774 b 336 758 351 769 345 761 z m 200 524 b 195 508 205 517 198 513 b 200 524 191 515 198 519 z "},"H":{"ha":971,"x_min":0,"x_max":0,"o":"m 1311 985 b 1151 1028 1281 1040 1210 1059 b 988 863 1080 991 1031 927 b 786 460 904 737 841 600 b 767 442 782 450 779 442 b 635 421 722 443 678 436 b 719 662 669 499 697 580 b 751 909 740 743 758 824 b 624 1042 747 979 693 1035 b 416 960 547 1051 470 1010 b 162 540 291 849 203 702 b 254 348 142 464 160 360 b 358 387 292 345 331 359 b 376 407 367 396 388 418 b 352 392 369 401 361 396 b 278 436 318 376 283 400 b 308 572 271 476 290 531 b 578 925 365 703 458 842 b 599 929 581 927 596 937 b 603 883 603 914 604 898 b 559 667 598 809 584 736 b 280 81 493 460 399 263 b 161 -61 246 29 206 -19 b 117 -85 149 -73 134 -82 b 118 -26 105 -87 116 -33 b 259 214 140 63 187 155 b 329 236 278 230 309 254 b 340 220 334 232 338 226 b 336 240 342 211 339 231 b 284 289 328 264 309 282 b 148 256 232 307 188 286 b 2 -60 65 193 -15 55 b 179 -159 16 -153 88 -183 b 419 47 278 -134 361 -27 b 534 224 463 102 502 161 b 656 333 561 273 604 312 b 750 354 684 345 717 357 b 750 354 750 354 750 354 b 751 353 751 354 751 353 b 735 300 745 335 740 317 b 670 -27 700 194 678 84 b 822 -229 664 -124 702 -248 b 838 -206 847 -225 856 -215 b 817 -95 815 -195 815 -128 b 977 495 828 109 896 310 b 1178 870 1034 626 1101 751 b 1298 976 1203 907 1246 982 b 1311 985 1320 973 1322 966 z m 195 557 b 234 660 195 581 209 622 b 195 557 221 625 208 591 z m 217 510 b 248 608 216 545 227 579 b 217 510 237 575 227 542 z m 246 687 b 249 701 241 693 246 697 b 254 700 251 703 253 703 b 246 687 254 695 251 690 z m 267 729 b 279 744 270 735 267 744 b 267 729 275 739 274 732 z m 188 227 l 147 189 b 188 227 158 204 172 217 z m 148 224 l 119 191 b 148 224 123 206 134 218 z m 589 688 b 559 581 585 651 575 614 b 555 580 559 580 556 580 b 589 688 566 616 578 652 z m 536 528 b 554 577 539 545 545 562 b 536 528 556 559 550 541 z m 523 495 b 535 525 523 506 527 517 b 522 495 538 514 533 501 z m 482 402 b 465 365 482 388 476 374 b 482 402 469 376 474 386 z m 216 -34 b 212 -39 215 -35 214 -38 b 211 -36 209 -40 209 -38 b 216 -32 213 -34 215 -33 z m 239 -71 b 375 98 289 -18 334 38 b 487 283 415 158 451 220 b 239 -71 485 233 307 -32 z m 277 -73 l 322 -24 b 276 -73 313 -45 297 -63 z m 340 -12 b 335 -9 339 -14 337 -13 l 358 20 b 340 -12 357 7 350 -4 z m 370 28 b 386 49 371 37 377 46 b 370 28 386 38 377 34 z m 508 231 b 414 80 479 179 448 129 b 406 75 412 78 409 77 b 387 50 403 64 399 54 b 405 76 388 62 395 71 b 406 82 405 78 405 81 b 504 241 440 135 474 187 b 508 231 511 238 510 234 z m 500 432 b 509 460 498 442 501 453 b 500 432 512 451 506 443 z m 510 463 b 522 493 511 474 515 484 b 510 463 524 481 519 469 z m 525 357 b 675 796 591 498 641 645 b 525 357 684 724 576 408 z m 723 863 b 592 404 716 699 660 550 b 723 863 652 553 703 704 z m 928 700 b 888 619 916 672 909 642 b 928 700 894 650 913 674 z m 887 616 b 865 557 887 594 871 577 b 887 616 861 581 874 599 z m 864 554 b 829 483 852 530 848 503 b 850 541 834 503 841 522 b 864 554 853 548 855 554 z m 780 354 b 766 291 783 329 782 325 b 779 354 762 312 773 331 z m 706 -87 b 702 -96 706 -91 704 -94 b 700 7 696 -62 696 -27 b 755 271 710 97 728 185 b 765 288 757 277 756 286 b 736 170 755 249 746 209 b 706 -87 715 86 705 0 z m 799 -43 b 794 -93 794 -59 798 -76 b 799 -43 789 -59 789 -57 z m 805 13 b 800 -37 803 -4 802 -20 b 805 13 796 -20 792 -3 z m 805 16 b 807 57 801 30 802 44 b 805 16 811 44 810 29 z m 808 61 b 818 112 811 78 815 95 b 808 61 821 94 818 76 z m 737 -71 b 822 347 733 75 774 212 b 737 -71 783 210 746 72 z m 816 445 b 828 480 815 458 819 470 b 816 445 832 465 822 456 z m 846 206 b 852 236 842 219 850 227 b 846 206 856 225 848 218 z m 925 436 b 924 445 920 439 922 443 b 931 459 926 450 929 455 b 925 436 933 451 930 443 z m 951 503 b 964 534 952 514 957 525 b 950 503 963 522 958 511 z m 867 454 b 855 432 865 446 861 438 b 853 445 847 436 851 441 b 1017 783 897 563 952 676 b 1031 798 1021 789 1022 797 b 1025 781 1031 792 1029 786 b 867 454 964 677 911 567 z m 999 600 l 994 602 b 1038 691 1009 632 1023 661 l 1044 688 z m 1032 800 b 1061 845 1034 819 1048 831 b 1032 800 1053 829 1047 811 z "},"I":{"ha":472,"x_min":0,"x_max":0,"o":"m 802 993 b 751 1002 787 996 772 998 b 802 1006 767 1008 785 1009 b 818 1013 808 1005 816 1005 b 807 1026 820 1022 812 1024 b 788 1033 801 1029 794 1030 b 803 1037 792 1040 798 1036 b 815 1049 811 1038 816 1041 b 803 1061 815 1056 810 1062 b 352 1027 652 1061 501 1049 b 344 1022 349 1026 346 1024 b 342 1012 342 1019 341 1015 b 356 1003 342 1004 348 1002 b 372 1001 361 1003 366 1008 b 354 992 366 998 360 995 b 346 977 349 988 342 985 b 363 972 349 968 357 970 b 413 978 379 979 396 981 b 365 960 394 970 379 966 b 352 945 358 958 353 952 b 359 927 351 938 354 931 b 394 920 370 918 382 923 b 376 902 389 912 377 914 b 397 899 382 895 390 897 b 490 917 428 905 459 911 b 499 919 493 918 496 918 b 488 901 495 912 490 905 b 350 604 436 804 390 706 b 66 -102 255 371 214 106 b 11 -152 53 -121 37 -150 b 3 -157 8 -153 5 -154 b 0 -166 1 -160 0 -163 b 14 -177 0 -175 6 -177 b 30 -179 19 -177 25 -172 b 12 -188 23 -182 17 -185 b 2 -202 6 -191 -1 -194 b 19 -208 5 -211 13 -209 b 70 -205 35 -202 53 -201 b 21 -220 50 -211 35 -215 b 7 -234 14 -222 8 -227 b 13 -252 5 -241 8 -248 b 48 -261 23 -262 36 -258 b 29 -278 42 -269 30 -267 b 50 -283 34 -286 42 -284 b 398 -252 163 -267 281 -256 b 418 -245 405 -252 413 -253 b 397 -231 415 -234 403 -238 b 430 -218 408 -226 421 -228 b 434 -199 435 -213 437 -205 b 419 -187 432 -192 426 -187 b 368 -178 404 -183 388 -181 b 418 -174 384 -172 401 -170 b 434 -166 425 -175 432 -175 b 423 -153 436 -158 429 -156 b 404 -147 417 -151 411 -149 b 420 -143 408 -139 415 -143 b 432 -131 427 -142 433 -139 b 419 -118 432 -124 426 -118 b 276 -118 372 -117 324 -117 b 277 -111 276 -115 276 -113 b 649 906 364 232 488 590 b 674 928 658 924 662 928 b 781 927 710 928 746 928 b 802 935 789 927 797 926 b 780 949 799 945 787 942 b 813 962 792 954 805 951 b 818 981 819 967 820 974 b 802 993 815 988 809 993 z m 281 289 b 272 247 284 275 277 263 b 281 289 269 261 272 277 z m 162 -69 b 130 -125 165 -120 164 -122 b 162 -69 142 -105 151 -89 z m 202 -125 b 217 -8 198 -85 203 -45 z m 256 -110 b 257 -84 253 -104 255 -98 b 256 -110 259 -98 260 -104 z m 270 -43 b 263 -67 263 -49 268 -59 b 270 -42 260 -57 258 -47 z m 270 -42 b 276 -9 268 -30 262 -18 b 270 -42 271 -19 269 -31 z m 276 -6 b 273 22 275 1 274 9 b 276 -6 277 14 278 4 z m 415 463 b 408 446 413 457 411 451 b 405 447 407 444 404 445 b 411 465 406 453 408 459 b 414 468 411 465 412 466 b 415 463 415 465 416 464 z m 426 497 b 434 526 426 507 429 517 b 426 497 439 514 432 506 z m 435 528 b 456 567 442 541 441 559 b 435 528 451 553 452 535 z m 457 570 b 479 610 458 587 458 604 b 457 570 468 599 468 581 z m 480 611 b 487 644 472 622 477 631 b 480 611 486 630 478 621 z m 233 -125 b 231 -76 228 -109 228 -92 b 484 734 275 205 360 478 b 492 748 487 739 490 743 l 498 745 b 233 -125 373 466 269 181 z m 296 325 b 282 291 294 313 289 301 b 285 315 282 299 283 307 b 517 878 345 510 414 701 b 542 913 524 891 529 905 b 501 830 533 883 515 858 b 296 325 417 668 349 499 z m 543 915 b 561 948 542 927 551 935 b 543 915 561 935 554 922 z "},"Ì":{"ha":472,"x_min":0,"x_max":0,"o":"m 802 993 b 751 1002 787 996 772 998 b 802 1006 767 1008 785 1009 b 818 1013 808 1005 816 1005 b 807 1026 820 1022 812 1024 b 788 1033 801 1029 794 1030 b 803 1037 792 1040 798 1036 b 815 1049 811 1038 816 1041 b 803 1061 815 1056 810 1062 b 352 1027 652 1061 501 1049 b 344 1022 349 1026 346 1024 b 342 1012 342 1019 341 1015 b 356 1003 342 1004 348 1002 b 372 1001 361 1003 366 1008 b 354 992 366 998 360 995 b 346 977 349 988 342 985 b 363 972 349 968 357 970 b 413 978 379 979 396 981 b 365 960 394 970 379 966 b 352 945 358 958 353 952 b 359 927 351 938 354 931 b 394 920 370 918 382 923 b 376 902 389 912 377 914 b 397 899 382 895 390 897 b 490 917 428 905 459 911 b 499 919 493 918 496 918 b 488 901 495 912 490 905 b 350 604 436 804 390 706 b 66 -102 255 371 214 106 b 11 -152 53 -121 37 -150 b 3 -157 8 -153 5 -154 b 0 -166 1 -160 0 -163 b 14 -177 0 -175 6 -177 b 30 -179 19 -177 25 -172 b 12 -188 23 -182 17 -185 b 2 -202 6 -191 -1 -194 b 19 -208 5 -211 13 -209 b 70 -205 35 -202 53 -201 b 21 -220 50 -211 35 -215 b 7 -234 14 -222 8 -227 b 13 -252 5 -241 8 -248 b 48 -261 23 -262 36 -258 b 29 -278 42 -269 30 -267 b 50 -283 34 -286 42 -284 b 398 -252 163 -267 281 -256 b 418 -245 405 -252 413 -253 b 397 -231 415 -234 403 -238 b 430 -218 408 -226 421 -228 b 434 -199 435 -213 437 -205 b 419 -187 432 -192 426 -187 b 368 -178 404 -183 388 -181 b 418 -174 384 -172 401 -170 b 434 -166 425 -175 432 -175 b 423 -153 436 -158 429 -156 b 404 -147 417 -151 411 -149 b 420 -143 408 -139 415 -143 b 432 -131 427 -142 433 -139 b 419 -118 432 -124 426 -118 b 276 -118 372 -117 324 -117 b 277 -111 276 -115 276 -113 b 649 906 364 232 488 590 b 674 928 658 924 662 928 b 781 927 710 928 746 928 b 802 935 789 927 797 926 b 780 949 799 945 787 942 b 813 962 792 954 805 951 b 818 981 819 967 820 974 b 802 993 815 988 809 993 z m 281 289 b 272 247 284 275 277 263 b 281 289 269 261 272 277 z m 162 -69 b 130 -125 165 -120 164 -122 b 162 -69 142 -105 151 -89 z m 202 -125 b 217 -8 198 -85 203 -45 z m 256 -110 b 257 -84 253 -104 255 -98 b 256 -110 259 -98 260 -104 z m 270 -43 b 263 -67 263 -49 268 -59 b 270 -42 260 -57 258 -47 z m 270 -42 b 276 -9 268 -30 262 -18 b 270 -42 271 -19 269 -31 z m 276 -6 b 273 22 275 1 274 9 b 276 -6 277 14 278 4 z m 415 463 b 408 446 413 457 411 451 b 405 447 407 444 404 445 b 411 465 406 453 408 459 b 414 468 411 465 412 466 b 415 463 415 465 416 464 z m 426 497 b 434 526 426 507 429 517 b 426 497 439 514 432 506 z m 435 528 b 456 567 442 541 441 559 b 435 528 451 553 452 535 z m 457 570 b 479 610 458 587 458 604 b 457 570 468 599 468 581 z m 480 611 b 487 644 472 622 477 631 b 480 611 486 630 478 621 z m 233 -125 b 231 -76 228 -109 228 -92 b 484 734 275 205 360 478 b 492 748 487 739 490 743 l 498 745 b 233 -125 373 466 269 181 z m 296 325 b 282 291 294 313 289 301 b 285 315 282 299 283 307 b 517 878 345 510 414 701 b 542 913 524 891 529 905 b 501 830 533 883 515 858 b 296 325 417 668 349 499 z m 543 915 b 561 948 542 927 551 935 b 543 915 561 935 554 922 z "},"Í":{"ha":472,"x_min":0,"x_max":0,"o":"m 802 993 b 751 1002 787 996 772 998 b 802 1006 767 1008 785 1009 b 818 1013 808 1005 816 1005 b 807 1026 820 1022 812 1024 b 788 1033 801 1029 794 1030 b 803 1037 792 1040 798 1036 b 815 1049 811 1038 816 1041 b 803 1061 815 1056 810 1062 b 352 1027 652 1061 501 1049 b 344 1022 349 1026 346 1024 b 342 1012 342 1019 341 1015 b 356 1003 342 1004 348 1002 b 372 1001 361 1003 366 1008 b 354 992 366 998 360 995 b 346 977 349 988 342 985 b 363 972 349 968 357 970 b 413 978 379 979 396 981 b 365 960 394 970 379 966 b 352 945 358 958 353 952 b 359 927 351 938 354 931 b 394 920 370 918 382 923 b 376 902 389 912 377 914 b 397 899 382 895 390 897 b 490 917 428 905 459 911 b 499 919 493 918 496 918 b 488 901 495 912 490 905 b 350 604 436 804 390 706 b 66 -102 255 371 214 106 b 11 -152 53 -121 37 -150 b 3 -157 8 -153 5 -154 b 0 -166 1 -160 0 -163 b 14 -177 0 -175 6 -177 b 30 -179 19 -177 25 -172 b 12 -188 23 -182 17 -185 b 2 -202 6 -191 -1 -194 b 19 -208 5 -211 13 -209 b 70 -205 35 -202 53 -201 b 21 -220 50 -211 35 -215 b 7 -234 14 -222 8 -227 b 13 -252 5 -241 8 -248 b 48 -261 23 -262 36 -258 b 29 -278 42 -269 30 -267 b 50 -283 34 -286 42 -284 b 398 -252 163 -267 281 -256 b 418 -245 405 -252 413 -253 b 397 -231 415 -234 403 -238 b 430 -218 408 -226 421 -228 b 434 -199 435 -213 437 -205 b 419 -187 432 -192 426 -187 b 368 -178 404 -183 388 -181 b 418 -174 384 -172 401 -170 b 434 -166 425 -175 432 -175 b 423 -153 436 -158 429 -156 b 404 -147 417 -151 411 -149 b 420 -143 408 -139 415 -143 b 432 -131 427 -142 433 -139 b 419 -118 432 -124 426 -118 b 276 -118 372 -117 324 -117 b 277 -111 276 -115 276 -113 b 649 906 364 232 488 590 b 674 928 658 924 662 928 b 781 927 710 928 746 928 b 802 935 789 927 797 926 b 780 949 799 945 787 942 b 813 962 792 954 805 951 b 818 981 819 967 820 974 b 802 993 815 988 809 993 z m 281 289 b 272 247 284 275 277 263 b 281 289 269 261 272 277 z m 162 -69 b 130 -125 165 -120 164 -122 b 162 -69 142 -105 151 -89 z m 202 -125 b 217 -8 198 -85 203 -45 z m 256 -110 b 257 -84 253 -104 255 -98 b 256 -110 259 -98 260 -104 z m 270 -43 b 263 -67 263 -49 268 -59 b 270 -42 260 -57 258 -47 z m 270 -42 b 276 -9 268 -30 262 -18 b 270 -42 271 -19 269 -31 z m 276 -6 b 273 22 275 1 274 9 b 276 -6 277 14 278 4 z m 415 463 b 408 446 413 457 411 451 b 405 447 407 444 404 445 b 411 465 406 453 408 459 b 414 468 411 465 412 466 b 415 463 415 465 416 464 z m 426 497 b 434 526 426 507 429 517 b 426 497 439 514 432 506 z m 435 528 b 456 567 442 541 441 559 b 435 528 451 553 452 535 z m 457 570 b 479 610 458 587 458 604 b 457 570 468 599 468 581 z m 480 611 b 487 644 472 622 477 631 b 480 611 486 630 478 621 z m 233 -125 b 231 -76 228 -109 228 -92 b 484 734 275 205 360 478 b 492 748 487 739 490 743 l 498 745 b 233 -125 373 466 269 181 z m 296 325 b 282 291 294 313 289 301 b 285 315 282 299 283 307 b 517 878 345 510 414 701 b 542 913 524 891 529 905 b 501 830 533 883 515 858 b 296 325 417 668 349 499 z m 543 915 b 561 948 542 927 551 935 b 543 915 561 935 554 922 z "},"Î":{"ha":472,"x_min":0,"x_max":0,"o":"m 802 993 b 751 1002 787 996 772 998 b 802 1006 767 1008 785 1009 b 818 1013 808 1005 816 1005 b 807 1026 820 1022 812 1024 b 788 1033 801 1029 794 1030 b 803 1037 792 1040 798 1036 b 815 1049 811 1038 816 1041 b 803 1061 815 1056 810 1062 b 352 1027 652 1061 501 1049 b 344 1022 349 1026 346 1024 b 342 1012 342 1019 341 1015 b 356 1003 342 1004 348 1002 b 372 1001 361 1003 366 1008 b 354 992 366 998 360 995 b 346 977 349 988 342 985 b 363 972 349 968 357 970 b 413 978 379 979 396 981 b 365 960 394 970 379 966 b 352 945 358 958 353 952 b 359 927 351 938 354 931 b 394 920 370 918 382 923 b 376 902 389 912 377 914 b 397 899 382 895 390 897 b 490 917 428 905 459 911 b 499 919 493 918 496 918 b 488 901 495 912 490 905 b 350 604 436 804 390 706 b 66 -102 255 371 214 106 b 11 -152 53 -121 37 -150 b 3 -157 8 -153 5 -154 b 0 -166 1 -160 0 -163 b 14 -177 0 -175 6 -177 b 30 -179 19 -177 25 -172 b 12 -188 23 -182 17 -185 b 2 -202 6 -191 -1 -194 b 19 -208 5 -211 13 -209 b 70 -205 35 -202 53 -201 b 21 -220 50 -211 35 -215 b 7 -234 14 -222 8 -227 b 13 -252 5 -241 8 -248 b 48 -261 23 -262 36 -258 b 29 -278 42 -269 30 -267 b 50 -283 34 -286 42 -284 b 398 -252 163 -267 281 -256 b 418 -245 405 -252 413 -253 b 397 -231 415 -234 403 -238 b 430 -218 408 -226 421 -228 b 434 -199 435 -213 437 -205 b 419 -187 432 -192 426 -187 b 368 -178 404 -183 388 -181 b 418 -174 384 -172 401 -170 b 434 -166 425 -175 432 -175 b 423 -153 436 -158 429 -156 b 404 -147 417 -151 411 -149 b 420 -143 408 -139 415 -143 b 432 -131 427 -142 433 -139 b 419 -118 432 -124 426 -118 b 276 -118 372 -117 324 -117 b 277 -111 276 -115 276 -113 b 649 906 364 232 488 590 b 674 928 658 924 662 928 b 781 927 710 928 746 928 b 802 935 789 927 797 926 b 780 949 799 945 787 942 b 813 962 792 954 805 951 b 818 981 819 967 820 974 b 802 993 815 988 809 993 z m 281 289 b 272 247 284 275 277 263 b 281 289 269 261 272 277 z m 162 -69 b 130 -125 165 -120 164 -122 b 162 -69 142 -105 151 -89 z m 202 -125 b 217 -8 198 -85 203 -45 z m 256 -110 b 257 -84 253 -104 255 -98 b 256 -110 259 -98 260 -104 z m 270 -43 b 263 -67 263 -49 268 -59 b 270 -42 260 -57 258 -47 z m 270 -42 b 276 -9 268 -30 262 -18 b 270 -42 271 -19 269 -31 z m 276 -6 b 273 22 275 1 274 9 b 276 -6 277 14 278 4 z m 415 463 b 408 446 413 457 411 451 b 405 447 407 444 404 445 b 411 465 406 453 408 459 b 414 468 411 465 412 466 b 415 463 415 465 416 464 z m 426 497 b 434 526 426 507 429 517 b 426 497 439 514 432 506 z m 435 528 b 456 567 442 541 441 559 b 435 528 451 553 452 535 z m 457 570 b 479 610 458 587 458 604 b 457 570 468 599 468 581 z m 480 611 b 487 644 472 622 477 631 b 480 611 486 630 478 621 z m 233 -125 b 231 -76 228 -109 228 -92 b 484 734 275 205 360 478 b 492 748 487 739 490 743 l 498 745 b 233 -125 373 466 269 181 z m 296 325 b 282 291 294 313 289 301 b 285 315 282 299 283 307 b 517 878 345 510 414 701 b 542 913 524 891 529 905 b 501 830 533 883 515 858 b 296 325 417 668 349 499 z m 543 915 b 561 948 542 927 551 935 b 543 915 561 935 554 922 z "},"Ï":{"ha":472,"x_min":0,"x_max":0,"o":"m 802 993 b 751 1002 787 996 772 998 b 802 1006 767 1008 785 1009 b 818 1013 808 1005 816 1005 b 807 1026 820 1022 812 1024 b 788 1033 801 1029 794 1030 b 803 1037 792 1040 798 1036 b 815 1049 811 1038 816 1041 b 803 1061 815 1056 810 1062 b 352 1027 652 1061 501 1049 b 344 1022 349 1026 346 1024 b 342 1012 342 1019 341 1015 b 356 1003 342 1004 348 1002 b 372 1001 361 1003 366 1008 b 354 992 366 998 360 995 b 346 977 349 988 342 985 b 363 972 349 968 357 970 b 413 978 379 979 396 981 b 365 960 394 970 379 966 b 352 945 358 958 353 952 b 359 927 351 938 354 931 b 394 920 370 918 382 923 b 376 902 389 912 377 914 b 397 899 382 895 390 897 b 490 917 428 905 459 911 b 499 919 493 918 496 918 b 488 901 495 912 490 905 b 350 604 436 804 390 706 b 66 -102 255 371 214 106 b 11 -152 53 -121 37 -150 b 3 -157 8 -153 5 -154 b 0 -166 1 -160 0 -163 b 14 -177 0 -175 6 -177 b 30 -179 19 -177 25 -172 b 12 -188 23 -182 17 -185 b 2 -202 6 -191 -1 -194 b 19 -208 5 -211 13 -209 b 70 -205 35 -202 53 -201 b 21 -220 50 -211 35 -215 b 7 -234 14 -222 8 -227 b 13 -252 5 -241 8 -248 b 48 -261 23 -262 36 -258 b 29 -278 42 -269 30 -267 b 50 -283 34 -286 42 -284 b 398 -252 163 -267 281 -256 b 418 -245 405 -252 413 -253 b 397 -231 415 -234 403 -238 b 430 -218 408 -226 421 -228 b 434 -199 435 -213 437 -205 b 419 -187 432 -192 426 -187 b 368 -178 404 -183 388 -181 b 418 -174 384 -172 401 -170 b 434 -166 425 -175 432 -175 b 423 -153 436 -158 429 -156 b 404 -147 417 -151 411 -149 b 420 -143 408 -139 415 -143 b 432 -131 427 -142 433 -139 b 419 -118 432 -124 426 -118 b 276 -118 372 -117 324 -117 b 277 -111 276 -115 276 -113 b 649 906 364 232 488 590 b 674 928 658 924 662 928 b 781 927 710 928 746 928 b 802 935 789 927 797 926 b 780 949 799 945 787 942 b 813 962 792 954 805 951 b 818 981 819 967 820 974 b 802 993 815 988 809 993 z m 281 289 b 272 247 284 275 277 263 b 281 289 269 261 272 277 z m 162 -69 b 130 -125 165 -120 164 -122 b 162 -69 142 -105 151 -89 z m 202 -125 b 217 -8 198 -85 203 -45 z m 256 -110 b 257 -84 253 -104 255 -98 b 256 -110 259 -98 260 -104 z m 270 -43 b 263 -67 263 -49 268 -59 b 270 -42 260 -57 258 -47 z m 270 -42 b 276 -9 268 -30 262 -18 b 270 -42 271 -19 269 -31 z m 276 -6 b 273 22 275 1 274 9 b 276 -6 277 14 278 4 z m 415 463 b 408 446 413 457 411 451 b 405 447 407 444 404 445 b 411 465 406 453 408 459 b 414 468 411 465 412 466 b 415 463 415 465 416 464 z m 426 497 b 434 526 426 507 429 517 b 426 497 439 514 432 506 z m 435 528 b 456 567 442 541 441 559 b 435 528 451 553 452 535 z m 457 570 b 479 610 458 587 458 604 b 457 570 468 599 468 581 z m 480 611 b 487 644 472 622 477 631 b 480 611 486 630 478 621 z m 233 -125 b 231 -76 228 -109 228 -92 b 484 734 275 205 360 478 b 492 748 487 739 490 743 l 498 745 b 233 -125 373 466 269 181 z m 296 325 b 282 291 294 313 289 301 b 285 315 282 299 283 307 b 517 878 345 510 414 701 b 542 913 524 891 529 905 b 501 830 533 883 515 858 b 296 325 417 668 349 499 z m 543 915 b 561 948 542 927 551 935 b 543 915 561 935 554 922 z "},"J":{"ha":649,"x_min":0,"x_max":0,"o":"m 879 924 b 867 965 887 942 888 963 b 863 973 852 968 860 971 b 818 1021 877 981 836 1015 b 638 1044 760 1038 699 1046 b 469 1019 582 1044 522 1040 b 440 968 441 1007 436 998 b 497 901 445 937 452 889 b 583 915 525 909 554 914 b 623 875 625 916 626 916 b 600 750 620 832 612 791 b 241 24 526 488 404 242 b 154 -65 217 -10 188 -40 b 128 -50 138 -77 130 -71 b 197 312 121 55 153 202 b 324 497 221 372 267 468 b 385 491 352 510 372 507 b 389 436 400 473 402 448 b 405 459 381 427 397 435 b 379 553 415 493 405 529 b 153 503 306 619 207 570 b 15 189 79 412 40 302 b 50 -139 -7 93 -12 -52 b 249 -174 96 -203 184 -218 b 482 98 347 -109 421 0 b 622 378 537 187 583 281 b 732 869 683 531 742 702 b 731 906 732 882 731 895 b 827 907 732 926 765 918 b 876 899 844 904 862 901 b 876 919 892 897 878 911 b 879 924 875 920 878 922 z m 476 991 b 473 993 473 990 472 991 b 480 999 475 996 477 997 b 486 997 482 999 484 998 z m 207 478 b 173 429 197 461 190 441 b 207 478 179 448 190 466 z m 172 426 b 160 401 173 417 167 410 b 172 426 159 411 163 421 z m 89 340 b 101 367 93 349 97 358 b 89 340 104 356 99 345 z m 138 439 l 144 437 l 128 408 l 123 410 z m 431 267 l 415 236 b 431 267 413 249 420 261 z m 398 212 b 381 188 394 203 394 191 b 398 212 383 198 390 207 z m 362 155 b 379 186 365 166 371 177 b 362 155 381 173 374 160 z m 361 153 b 348 127 363 141 353 136 b 361 153 347 137 352 147 z m 658 710 b 684 868 669 762 678 815 b 673 740 688 825 684 782 b 348 18 616 479 506 234 b 310 -21 338 3 329 -15 b 329 7 314 -11 321 -1 b 658 710 483 218 595 457 z m 308 -23 b 293 -43 309 -32 303 -36 b 308 -23 296 -35 301 -28 z m 534 249 b 366 -22 487 154 431 63 b 311 -86 349 -44 330 -65 b 287 -106 305 -94 297 -101 b 296 -89 284 -96 292 -93 b 545 290 397 24 481 152 b 677 646 600 405 644 524 b 701 767 687 686 695 727 b 710 787 703 775 702 783 b 661 562 700 711 683 635 b 534 249 627 455 584 350 z m 710 787 l 710 787 b 709 830 708 801 708 816 b 710 787 712 816 712 801 z "},"K":{"ha":604,"x_min":0,"x_max":0,"o":"m 391 144 b 571 -193 425 28 473 -130 b 743 -151 631 -232 715 -207 b 741 -142 749 -139 751 -134 b 635 -98 712 -166 661 -124 b 469 306 536 4 488 168 b 487 375 465 330 471 355 b 868 807 604 528 726 676 b 1110 945 937 871 1047 976 b 975 1021 1110 1040 1038 1049 b 854 940 931 1000 890 972 b 547 621 741 844 639 737 b 461 513 518 585 490 549 b 513 645 476 558 493 602 b 668 939 560 746 614 843 b 624 1040 692 983 673 1028 b 339 971 531 1062 418 1016 b 125 779 256 921 183 856 b 0 523 70 708 7 615 b 190 418 -7 412 98 368 b 208 431 197 421 215 434 b 117 464 174 416 125 421 b 161 595 110 504 141 563 b 417 865 228 701 314 793 b 460 890 430 876 445 884 b 455 872 467 892 458 877 b 343 648 414 800 377 725 b 177 127 257 450 213 310 b 147 -146 161 37 151 -54 b 163 -159 147 -157 152 -159 b 251 -160 193 -160 220 -160 b 271 -142 265 -159 270 -156 b 312 77 280 -68 294 5 b 373 209 321 119 344 180 b 391 144 380 185 385 164 z m 284 115 b 287 86 292 103 284 94 b 258 -22 280 80 270 -19 b 273 37 258 -31 278 47 b 273 64 268 46 275 55 b 284 86 281 70 278 78 b 284 115 283 94 285 102 z m 392 423 b 405 455 395 439 396 448 b 415 482 404 465 408 475 b 404 456 414 472 415 462 b 392 423 406 445 402 437 z m 137 749 b 125 726 137 739 130 734 b 138 748 122 740 130 744 b 150 766 139 756 143 762 b 137 749 151 758 145 751 z m 442 554 b 431 522 447 543 441 534 b 443 553 431 533 435 545 b 465 596 448 569 449 586 b 483 635 461 613 473 624 l 465 597 b 442 554 460 581 458 564 z m 218 200 b 210 141 226 179 219 160 b 188 16 199 70 197 87 b 172 -52 185 -7 188 -31 b 188 66 178 -13 182 27 b 203 126 197 115 193 77 b 211 140 204 131 207 136 b 218 200 204 161 220 179 b 234 247 228 214 228 231 b 243 264 236 253 233 263 b 252 310 239 279 246 292 b 243 265 256 290 248 278 b 230 213 240 247 236 230 b 218 200 228 206 226 201 z m 497 878 b 511 905 495 890 505 896 b 496 878 511 894 505 884 b 472 829 494 859 481 845 b 285 393 398 689 335 543 b 272 357 281 381 277 371 b 275 385 266 369 273 377 b 475 851 324 547 392 703 b 497 878 481 861 484 873 z m 252 192 b 249 141 254 175 253 158 b 217 -27 228 57 226 59 b 205 -59 216 -39 212 -50 b 208 -21 206 -42 206 -31 b 250 175 220 75 222 83 b 252 191 251 181 252 186 b 385 582 288 324 332 455 b 459 741 408 636 433 689 b 474 762 462 749 467 756 b 465 735 476 751 469 744 b 271 226 387 571 323 400 b 252 192 267 213 268 197 z m 72 567 b 109 642 75 596 88 622 z m 73 643 b 102 693 76 663 86 681 l 73 643 z m 543 -69 b 521 -29 532 -59 524 -45 b 543 -69 532 -40 540 -54 z m 835 894 b 815 874 831 885 824 881 b 835 894 819 883 826 890 z m 939 943 b 916 927 935 934 926 928 b 939 944 920 936 927 940 z m 184 799 b 178 795 182 797 180 796 b 176 798 175 794 174 796 b 183 804 178 800 180 802 l 184 799 z m 583 -77 b 570 -58 576 -72 572 -65 b 581 -66 577 -57 578 -62 b 583 -77 583 -69 588 -72 z m 260 -35 b 260 -49 263 -39 263 -44 b 259 -41 259 -46 259 -43 b 260 -35 259 -39 260 -37 z "},"L":{"ha":496,"x_min":0,"x_max":0,"o":"m 570 -47 b 295 -57 478 -43 387 -46 b 327 75 303 -12 314 32 b 748 923 419 379 577 657 b 635 1044 798 1001 701 1048 b 84 639 409 1031 188 841 b 72 484 62 596 48 532 b 242 444 103 422 189 411 b 259 457 250 448 272 466 b 181 466 234 442 202 446 b 228 629 142 502 206 599 b 451 846 290 713 366 786 b 547 899 480 869 513 886 b 373 589 484 799 425 695 b 158 -75 272 380 189 156 b 10 -103 108 -83 59 -93 b 0 -118 4 -104 -1 -111 b 14 -127 1 -126 7 -128 b 30 -129 19 -127 25 -122 b 13 -138 24 -132 18 -135 b 4 -153 8 -142 1 -145 b 21 -158 8 -162 15 -160 b 72 -152 37 -151 55 -149 b 23 -170 52 -160 37 -164 b 10 -185 17 -172 11 -178 b 18 -203 9 -192 12 -199 b 53 -210 28 -212 41 -207 b 35 -228 48 -218 35 -217 b 56 -231 41 -235 48 -233 b 148 -213 87 -225 118 -220 b 254 -215 184 -205 223 -200 b 272 -207 261 -217 268 -214 b 306 -188 279 -195 292 -187 b 670 -176 426 -175 549 -157 b 715 -244 713 -183 727 -202 b 712 -253 714 -247 713 -250 b 764 -213 734 -248 753 -233 b 769 -148 774 -193 776 -170 b 570 -47 745 -66 645 -50 z m 119 643 b 113 638 118 640 116 637 b 114 643 113 640 113 641 b 118 647 115 645 116 647 b 119 643 120 648 120 645 z m 133 678 b 179 734 144 699 160 718 b 138 675 165 714 152 695 b 133 678 136 673 134 674 z m 137 608 b 176 684 142 638 158 660 b 175 682 176 684 176 683 b 178 683 176 683 177 684 b 180 680 179 682 180 680 b 137 608 166 656 152 632 z m 202 766 b 217 784 203 775 209 781 b 202 766 215 776 210 769 z m 218 786 b 235 803 221 794 227 800 b 218 786 230 794 226 788 z m 261 828 b 259 830 259 826 257 828 b 263 835 260 832 262 834 b 268 835 265 837 267 837 b 261 828 266 832 264 830 z m 282 -1 b 281 -19 285 -7 284 -14 b 282 -1 278 -13 278 -7 z m 441 433 b 453 459 441 443 446 452 b 441 433 453 449 449 439 z m 454 461 b 477 507 457 478 465 494 b 454 461 474 490 466 474 z m 478 510 b 501 550 481 526 484 542 b 478 510 496 535 488 522 z m 502 553 b 514 585 498 566 508 575 b 502 553 517 572 508 563 z m 515 587 b 532 613 517 597 523 607 b 515 587 527 600 528 589 z m 225 -39 b 563 788 211 71 441 636 b 225 -39 411 517 293 267 z m 576 877 b 330 405 481 727 399 569 b 576 877 331 465 507 801 z m 306 358 b 281 309 300 340 303 318 b 306 358 292 324 292 344 z m 280 305 b 270 258 283 288 283 286 b 280 305 266 277 280 290 z m 247 205 b 237 160 252 184 240 173 b 247 205 234 175 242 187 z m 220 116 b 224 86 224 106 225 96 b 220 116 216 108 216 96 z m 216 81 b 223 84 217 82 220 83 b 189 -39 207 44 205 1 b 216 81 193 2 202 42 z m 322 -107 b 347 -107 330 -105 339 -105 b 322 -107 339 -110 330 -110 z m 384 -102 b 384 -100 384 -101 384 -101 l 433 -100 l 434 -102 z "},"M":{"ha":1239,"x_min":0,"x_max":0,"o":"m 1198 792 b 1120 638 1165 729 1152 705 b 922 -53 1009 401 934 182 b 1060 -269 917 -171 947 -254 b 1124 -265 1081 -272 1103 -271 b 1119 -261 1127 -263 1122 -262 b 1070 -91 1043 -225 1060 -155 b 1289 653 1092 45 1171 361 b 1309 955 1325 743 1425 940 b 1104 821 1242 963 1139 863 b 731 247 955 646 830 454 b 718 233 728 241 724 236 b 810 513 747 327 777 421 b 1027 1054 869 679 957 887 b 866 1121 1081 1184 983 1226 b 663 844 790 1051 703 911 b 359 219 573 688 432 384 b 336 172 354 208 345 188 b 358 250 343 197 352 230 b 657 928 432 486 539 710 b 662 990 668 947 670 970 b 618 1035 655 1011 638 1027 b 333 970 527 1067 409 1019 b 21 600 194 882 85 753 b 22 437 -1 551 -13 483 b 189 416 63 383 130 386 b 208 431 197 420 218 434 b 181 425 199 428 190 426 b 117 466 156 423 120 430 b 160 591 113 506 139 559 b 445 886 234 710 326 811 b 462 889 450 890 456 892 b 433 835 452 871 443 853 b 280 488 373 724 322 607 b 161 -136 208 288 168 77 b 291 -128 159 -182 278 -164 b 428 205 329 -29 384 97 b 782 904 525 439 665 695 b 894 1059 801 938 872 1042 b 912 1059 912 1074 915 1065 b 891 1015 905 1042 898 1029 b 605 29 700 646 567 291 b 688 -20 618 -59 668 -70 b 792 205 718 50 753 129 b 1097 690 878 376 980 538 b 1195 804 1127 730 1159 768 b 1198 792 1199 808 1205 806 z m 442 554 b 465 597 448 569 449 587 b 475 630 460 608 467 615 b 464 597 475 618 471 607 b 441 555 459 582 459 564 b 432 519 448 541 437 531 b 419 487 430 507 425 496 b 407 456 417 476 413 465 b 420 486 406 472 407 481 b 419 505 417 492 417 499 b 433 518 422 511 427 516 b 442 554 427 533 437 543 z m 278 342 b 289 386 275 360 284 373 b 300 423 290 399 294 412 b 288 387 302 403 302 403 b 278 342 291 371 287 355 z m 1190 478 b 1178 444 1193 465 1188 452 b 1171 413 1179 433 1176 422 b 1099 196 1145 341 1119 270 b 1085 173 1096 188 1097 176 b 1085 151 1087 166 1087 158 b 1041 -52 1067 84 1053 16 b 1031 -66 1040 -59 1040 -66 b 1033 -120 1038 -82 1033 -100 b 1031 -67 1025 -100 1031 -83 b 1061 85 1041 -16 1048 35 b 1085 172 1069 114 1077 143 b 1172 437 1108 262 1137 351 b 1179 443 1173 440 1177 441 b 1191 477 1178 456 1182 468 b 1207 516 1193 491 1198 505 b 1190 478 1205 501 1205 486 z m 224 147 b 221 109 226 134 225 121 b 194 -44 212 58 203 7 b 214 104 195 6 202 55 b 222 108 214 105 219 107 b 224 146 217 120 218 134 b 238 199 225 164 230 182 b 224 147 236 181 238 162 z m 1233 774 b 1172 639 1213 729 1192 684 b 1016 247 1110 512 1059 381 b 959 -105 981 132 962 14 b 954 -136 961 -116 959 -126 b 963 58 949 -71 952 -6 b 1090 480 988 204 1035 343 b 1220 764 1130 577 1175 670 b 1228 778 1222 769 1225 773 l 1233 774 z m 222 -42 b 512 838 267 266 368 556 b 504 803 515 826 512 813 b 291 252 420 624 344 442 b 234 -15 266 164 247 75 b 222 -42 233 -25 229 -34 z m 989 -96 b 1001 50 988 -47 992 2 b 1196 624 1037 251 1109 440 b 1204 635 1198 628 1201 632 b 1196 603 1208 621 1200 612 b 1064 257 1148 489 1100 375 b 996 -81 1029 147 1006 34 b 989 -96 996 -86 998 -92 z m 915 982 b 852 847 894 937 874 892 b 693 456 790 721 737 590 b 633 105 658 343 637 224 b 628 75 635 95 633 84 b 638 268 623 139 627 204 b 770 689 664 414 713 553 b 902 972 810 785 856 879 b 910 986 904 977 907 981 l 915 982 z m 663 114 b 676 260 663 163 667 212 b 877 832 715 460 788 649 b 885 843 879 836 882 840 b 877 811 888 829 881 820 b 741 466 828 697 779 584 b 670 129 705 357 681 244 b 663 114 670 124 672 118 z m 304 441 b 505 884 361 613 405 733 b 304 441 417 727 369 609 z m 77 578 b 104 645 78 604 93 624 l 110 641 z m 78 665 l 84 662 b 59 614 76 646 67 630 l 54 617 z m 755 407 b 770 448 755 422 761 436 b 755 407 769 433 764 419 z m 258 281 b 251 238 263 266 254 256 b 258 281 247 253 250 268 z m 188 811 b 174 798 189 802 180 800 z m 389 406 b 394 434 383 419 392 424 b 389 406 400 421 391 416 z m 158 771 b 153 764 157 769 155 766 b 148 764 151 762 148 763 b 154 773 150 767 152 770 b 158 771 158 775 159 774 z "},"N":{"ha":901,"x_min":0,"x_max":0,"o":"m 179 147 b 144 -94 159 68 148 -13 b 170 -158 144 -117 146 -147 b 284 -117 205 -174 271 -155 b 702 698 382 158 522 412 b 955 1009 773 812 852 923 b 649 330 843 787 731 565 b 600 -190 595 174 542 -83 b 752 -268 632 -248 692 -279 b 731 -108 716 -249 721 -175 b 1091 964 786 267 944 612 b 1070 1169 1117 1026 1156 1138 b 924 1119 1021 1187 963 1154 b 373 286 674 896 520 587 b 646 911 435 505 537 711 b 665 964 656 927 663 945 b 518 1040 667 1041 570 1048 b 53 670 312 1005 152 844 b 19 441 14 602 -24 513 b 182 422 53 386 126 391 b 198 432 185 424 194 429 b 181 431 210 440 207 439 b 123 441 163 425 137 425 b 122 516 105 459 113 495 b 461 895 193 674 311 807 b 179 147 333 660 238 408 z m 398 443 b 407 471 397 453 401 463 b 421 503 408 483 413 494 b 433 536 421 515 425 527 b 456 579 438 552 439 570 b 466 612 449 590 457 598 b 455 580 466 601 462 589 b 433 537 449 565 448 547 b 420 503 435 524 430 511 b 406 472 422 491 417 479 b 398 443 411 460 404 452 z m 110 711 b 89 678 106 698 99 687 b 66 640 85 663 77 650 b 90 677 71 654 73 670 b 110 711 89 693 100 702 z m 178 -75 b 421 743 185 114 306 517 b 531 923 451 802 489 872 b 489 849 520 905 499 867 b 354 553 435 743 401 665 b 252 253 313 455 279 355 b 178 -75 222 145 202 34 z m 862 628 l 853 605 b 727 274 809 495 766 385 b 645 -77 688 160 661 43 b 659 79 639 -24 649 28 b 787 471 686 215 733 344 b 837 584 803 509 820 546 b 854 604 841 592 841 604 b 862 628 848 614 854 621 z m 892 810 b 937 891 906 837 920 865 b 884 783 918 856 910 815 b 868 738 884 766 874 752 b 674 262 797 581 726 425 b 609 -115 634 139 607 14 b 607 -129 608 -120 608 -125 b 620 104 593 -47 604 29 b 790 595 655 275 719 436 b 866 757 814 650 840 704 b 884 782 871 766 872 779 b 892 810 881 793 888 801 z m 530 849 b 337 399 458 702 393 552 b 221 -37 284 258 245 112 b 530 849 211 125 412 692 z m 704 -104 b 869 464 720 96 791 281 b 704 -104 804 277 730 93 z m 68 562 b 111 649 69 588 82 616 z m 878 1043 b 873 1044 875 1044 874 1044 b 873 1047 873 1045 873 1046 b 892 1064 880 1052 886 1058 l 893 1062 z m 851 1022 b 838 1007 849 1015 844 1009 b 851 1022 840 1013 845 1019 z m 164 788 b 168 786 168 789 170 788 b 163 778 167 783 165 780 b 158 778 161 776 158 777 b 164 788 160 782 162 785 z m 482 652 b 474 635 489 642 476 639 z m 133 743 b 136 754 126 747 135 750 b 142 756 137 755 140 755 b 133 743 142 749 137 742 z m 944 1072 b 948 1082 944 1076 946 1079 b 958 1085 951 1084 955 1085 l 944 1072 z "},"Ñ":{"ha":901,"x_min":0,"x_max":0,"o":"m 179 147 b 144 -94 159 68 148 -13 b 170 -158 144 -117 146 -147 b 284 -117 205 -174 271 -155 b 702 698 382 158 522 412 b 955 1009 773 812 852 923 b 649 330 843 787 731 565 b 600 -190 595 174 542 -83 b 752 -268 632 -248 692 -279 b 731 -108 716 -249 721 -175 b 1091 964 786 267 944 612 b 1070 1169 1117 1026 1156 1138 b 924 1119 1021 1187 963 1154 b 373 286 674 896 520 587 b 646 911 435 505 537 711 b 665 964 656 927 663 945 b 518 1040 667 1041 570 1048 b 53 670 312 1005 152 844 b 19 441 14 602 -24 513 b 182 422 53 386 126 391 b 198 432 185 424 194 429 b 181 431 210 440 207 439 b 123 441 163 425 137 425 b 122 516 105 459 113 495 b 461 895 193 674 311 807 b 179 147 333 660 238 408 z m 398 443 b 407 471 397 453 401 463 b 421 503 408 483 413 494 b 433 536 421 515 425 527 b 456 579 438 552 439 570 b 466 612 449 590 457 598 b 455 580 466 601 462 589 b 433 537 449 565 448 547 b 420 503 435 524 430 511 b 406 472 422 491 417 479 b 398 443 411 460 404 452 z m 110 711 b 89 678 106 698 99 687 b 66 640 85 663 77 650 b 90 677 71 654 73 670 b 110 711 89 693 100 702 z m 178 -75 b 421 743 185 114 306 517 b 531 923 451 802 489 872 b 489 849 520 905 499 867 b 354 553 435 743 401 665 b 252 253 313 455 279 355 b 178 -75 222 145 202 34 z m 862 628 l 853 605 b 727 274 809 495 766 385 b 645 -77 688 160 661 43 b 659 79 639 -24 649 28 b 787 471 686 215 733 344 b 837 584 803 509 820 546 b 854 604 841 592 841 604 b 862 628 848 614 854 621 z m 892 810 b 937 891 906 837 920 865 b 884 783 918 856 910 815 b 868 738 884 766 874 752 b 674 262 797 581 726 425 b 609 -115 634 139 607 14 b 607 -129 608 -120 608 -125 b 620 104 593 -47 604 29 b 790 595 655 275 719 436 b 866 757 814 650 840 704 b 884 782 871 766 872 779 b 892 810 881 793 888 801 z m 530 849 b 337 399 458 702 393 552 b 221 -37 284 258 245 112 b 530 849 211 125 412 692 z m 704 -104 b 869 464 720 96 791 281 b 704 -104 804 277 730 93 z m 68 562 b 111 649 69 588 82 616 z m 878 1043 b 873 1044 875 1044 874 1044 b 873 1047 873 1045 873 1046 b 892 1064 880 1052 886 1058 l 893 1062 z m 851 1022 b 838 1007 849 1015 844 1009 b 851 1022 840 1013 845 1019 z m 164 788 b 168 786 168 789 170 788 b 163 778 167 783 165 780 b 158 778 161 776 158 777 b 164 788 160 782 162 785 z m 482 652 b 474 635 489 642 476 639 z m 133 743 b 136 754 126 747 135 750 b 142 756 137 755 140 755 b 133 743 142 749 137 742 z m 944 1072 b 948 1082 944 1076 946 1079 b 958 1085 951 1084 955 1085 l 944 1072 z "},"O":{"ha":890,"x_min":0,"x_max":0,"o":"m 781 1070 b 277 928 604 1176 405 1063 b 0 336 134 777 -4 552 b 93 124 2 253 21 177 b 108 91 104 117 109 104 b 124 -38 107 47 113 4 b 539 -121 171 -250 371 -264 b 916 748 772 77 917 444 b 781 1070 916 860 891 1005 z m 782 289 l 790 317 b 805 348 795 327 800 338 b 837 446 813 381 826 413 b 864 550 846 481 851 516 b 879 666 869 589 873 627 b 884 783 884 705 885 744 b 889 801 883 789 885 796 b 890 705 892 769 892 737 b 871 563 888 657 881 610 b 863 551 870 558 870 552 b 836 447 865 519 852 467 b 804 348 836 412 825 377 b 790 318 806 335 808 322 b 782 289 796 307 790 298 z m 226 823 b 207 796 225 811 218 801 b 154 719 194 767 176 741 b 117 651 149 692 131 672 b 154 718 123 676 136 699 b 206 797 165 748 183 775 b 226 823 207 809 215 819 b 252 855 229 837 239 849 b 286 895 256 875 274 882 b 252 856 277 880 270 863 b 226 823 249 841 239 828 z m 99 614 b 83 574 97 600 92 586 b 65 530 81 558 75 543 b 84 573 70 545 68 563 b 99 614 80 590 91 601 z m 263 453 b 253 418 268 442 262 434 b 264 453 253 431 257 443 b 289 504 268 471 277 489 b 263 453 283 486 281 466 z m 186 706 b 171 679 187 693 179 686 b 187 705 174 689 176 700 b 190 718 187 710 189 714 b 346 911 233 789 286 854 b 358 920 350 914 354 917 b 355 909 363 913 358 911 b 200 718 297 851 245 787 b 186 706 196 713 194 706 z m 610 47 b 594 25 610 36 602 30 b 611 47 596 35 599 44 b 624 72 610 58 618 64 b 844 638 739 242 814 435 b 854 754 850 676 853 715 b 843 581 859 696 856 638 b 634 73 810 398 738 225 b 610 47 627 64 623 51 z m 122 271 b 178 525 123 358 142 445 b 585 972 257 702 396 900 b 725 962 626 987 692 1000 b 773 623 794 883 789 728 b 345 -92 733 369 581 34 b 283 -85 318 -106 295 -116 b 266 68 268 -44 264 22 b 324 90 267 83 281 83 b 321 127 379 99 376 108 b 275 143 309 131 298 134 b 271 150 273 144 271 147 b 418 562 279 294 346 439 b 632 790 464 641 557 760 b 672 791 645 796 659 796 b 645 825 686 785 664 813 b 336 731 528 903 412 828 b 169 413 263 636 206 528 b 131 279 154 369 141 324 b 122 271 130 276 129 273 z m 150 179 b 422 773 146 311 269 654 b 150 179 270 603 190 400 z m 315 551 b 480 771 327 612 423 741 b 315 551 414 706 359 632 z m 480 681 l 475 686 b 517 722 485 702 500 714 z m 770 261 b 755 226 770 248 764 235 b 770 261 756 239 762 251 z m 562 -13 b 581 10 565 -3 572 5 b 562 -13 578 0 571 -8 z m 235 369 b 242 394 234 378 237 387 b 235 369 247 383 238 377 z m 734 180 b 716 155 728 170 727 162 b 734 180 721 165 721 173 z m 465 670 b 450 653 464 662 461 657 b 465 670 455 662 458 667 z m 315 790 b 328 803 315 797 318 801 b 315 790 323 796 321 791 z m 347 956 b 335 946 348 946 339 947 z m 379 938 l 391 948 b 379 938 389 942 388 933 z m 796 631 l 794 643 b 796 631 798 639 800 635 z m 790 586 b 788 590 789 587 789 589 b 789 596 788 592 789 594 l 791 592 z "},"Ò":{"ha":890,"x_min":0,"x_max":0,"o":"m 781 1070 b 277 928 604 1176 405 1063 b 0 336 134 777 -4 552 b 93 124 2 253 21 177 b 108 91 104 117 109 104 b 124 -38 107 47 113 4 b 539 -121 171 -250 371 -264 b 916 748 772 77 917 444 b 781 1070 916 860 891 1005 z m 782 289 l 790 317 b 805 348 795 327 800 338 b 837 446 813 381 826 413 b 864 550 846 481 851 516 b 879 666 869 589 873 627 b 884 783 884 705 885 744 b 889 801 883 789 885 796 b 890 705 892 769 892 737 b 871 563 888 657 881 610 b 863 551 870 558 870 552 b 836 447 865 519 852 467 b 804 348 836 412 825 377 b 790 318 806 335 808 322 b 782 289 796 307 790 298 z m 226 823 b 207 796 225 811 218 801 b 154 719 194 767 176 741 b 117 651 149 692 131 672 b 154 718 123 676 136 699 b 206 797 165 748 183 775 b 226 823 207 809 215 819 b 252 855 229 837 239 849 b 286 895 256 875 274 882 b 252 856 277 880 270 863 b 226 823 249 841 239 828 z m 99 614 b 83 574 97 600 92 586 b 65 530 81 558 75 543 b 84 573 70 545 68 563 b 99 614 80 590 91 601 z m 263 453 b 253 418 268 442 262 434 b 264 453 253 431 257 443 b 289 504 268 471 277 489 b 263 453 283 486 281 466 z m 186 706 b 171 679 187 693 179 686 b 187 705 174 689 176 700 b 190 718 187 710 189 714 b 346 911 233 789 286 854 b 358 920 350 914 354 917 b 355 909 363 913 358 911 b 200 718 297 851 245 787 b 186 706 196 713 194 706 z m 610 47 b 594 25 610 36 602 30 b 611 47 596 35 599 44 b 624 72 610 58 618 64 b 844 638 739 242 814 435 b 854 754 850 676 853 715 b 843 581 859 696 856 638 b 634 73 810 398 738 225 b 610 47 627 64 623 51 z m 122 271 b 178 525 123 358 142 445 b 585 972 257 702 396 900 b 725 962 626 987 692 1000 b 773 623 794 883 789 728 b 345 -92 733 369 581 34 b 283 -85 318 -106 295 -116 b 266 68 268 -44 264 22 b 324 90 267 83 281 83 b 321 127 379 99 376 108 b 275 143 309 131 298 134 b 271 150 273 144 271 147 b 418 562 279 294 346 439 b 632 790 464 641 557 760 b 672 791 645 796 659 796 b 645 825 686 785 664 813 b 336 731 528 903 412 828 b 169 413 263 636 206 528 b 131 279 154 369 141 324 b 122 271 130 276 129 273 z m 150 179 b 422 773 146 311 269 654 b 150 179 270 603 190 400 z m 315 551 b 480 771 327 612 423 741 b 315 551 414 706 359 632 z m 480 681 l 475 686 b 517 722 485 702 500 714 z m 770 261 b 755 226 770 248 764 235 b 770 261 756 239 762 251 z m 562 -13 b 581 10 565 -3 572 5 b 562 -13 578 0 571 -8 z m 235 369 b 242 394 234 378 237 387 b 235 369 247 383 238 377 z m 734 180 b 716 155 728 170 727 162 b 734 180 721 165 721 173 z m 465 670 b 450 653 464 662 461 657 b 465 670 455 662 458 667 z m 315 790 b 328 803 315 797 318 801 b 315 790 323 796 321 791 z m 347 956 b 335 946 348 946 339 947 z m 379 938 l 391 948 b 379 938 389 942 388 933 z m 796 631 l 794 643 b 796 631 798 639 800 635 z m 790 586 b 788 590 789 587 789 589 b 789 596 788 592 789 594 l 791 592 z "},"Ó":{"ha":890,"x_min":0,"x_max":0,"o":"m 781 1070 b 277 928 604 1176 405 1063 b 0 336 134 777 -4 552 b 93 124 2 253 21 177 b 108 91 104 117 109 104 b 124 -38 107 47 113 4 b 539 -121 171 -250 371 -264 b 916 748 772 77 917 444 b 781 1070 916 860 891 1005 z m 782 289 l 790 317 b 805 348 795 327 800 338 b 837 446 813 381 826 413 b 864 550 846 481 851 516 b 879 666 869 589 873 627 b 884 783 884 705 885 744 b 889 801 883 789 885 796 b 890 705 892 769 892 737 b 871 563 888 657 881 610 b 863 551 870 558 870 552 b 836 447 865 519 852 467 b 804 348 836 412 825 377 b 790 318 806 335 808 322 b 782 289 796 307 790 298 z m 226 823 b 207 796 225 811 218 801 b 154 719 194 767 176 741 b 117 651 149 692 131 672 b 154 718 123 676 136 699 b 206 797 165 748 183 775 b 226 823 207 809 215 819 b 252 855 229 837 239 849 b 286 895 256 875 274 882 b 252 856 277 880 270 863 b 226 823 249 841 239 828 z m 99 614 b 83 574 97 600 92 586 b 65 530 81 558 75 543 b 84 573 70 545 68 563 b 99 614 80 590 91 601 z m 263 453 b 253 418 268 442 262 434 b 264 453 253 431 257 443 b 289 504 268 471 277 489 b 263 453 283 486 281 466 z m 186 706 b 171 679 187 693 179 686 b 187 705 174 689 176 700 b 190 718 187 710 189 714 b 346 911 233 789 286 854 b 358 920 350 914 354 917 b 355 909 363 913 358 911 b 200 718 297 851 245 787 b 186 706 196 713 194 706 z m 610 47 b 594 25 610 36 602 30 b 611 47 596 35 599 44 b 624 72 610 58 618 64 b 844 638 739 242 814 435 b 854 754 850 676 853 715 b 843 581 859 696 856 638 b 634 73 810 398 738 225 b 610 47 627 64 623 51 z m 122 271 b 178 525 123 358 142 445 b 585 972 257 702 396 900 b 725 962 626 987 692 1000 b 773 623 794 883 789 728 b 345 -92 733 369 581 34 b 283 -85 318 -106 295 -116 b 266 68 268 -44 264 22 b 324 90 267 83 281 83 b 321 127 379 99 376 108 b 275 143 309 131 298 134 b 271 150 273 144 271 147 b 418 562 279 294 346 439 b 632 790 464 641 557 760 b 672 791 645 796 659 796 b 645 825 686 785 664 813 b 336 731 528 903 412 828 b 169 413 263 636 206 528 b 131 279 154 369 141 324 b 122 271 130 276 129 273 z m 150 179 b 422 773 146 311 269 654 b 150 179 270 603 190 400 z m 315 551 b 480 771 327 612 423 741 b 315 551 414 706 359 632 z m 480 681 l 475 686 b 517 722 485 702 500 714 z m 770 261 b 755 226 770 248 764 235 b 770 261 756 239 762 251 z m 562 -13 b 581 10 565 -3 572 5 b 562 -13 578 0 571 -8 z m 235 369 b 242 394 234 378 237 387 b 235 369 247 383 238 377 z m 734 180 b 716 155 728 170 727 162 b 734 180 721 165 721 173 z m 465 670 b 450 653 464 662 461 657 b 465 670 455 662 458 667 z m 315 790 b 328 803 315 797 318 801 b 315 790 323 796 321 791 z m 347 956 b 335 946 348 946 339 947 z m 379 938 l 391 948 b 379 938 389 942 388 933 z m 796 631 l 794 643 b 796 631 798 639 800 635 z m 790 586 b 788 590 789 587 789 589 b 789 596 788 592 789 594 l 791 592 z "},"Ô":{"ha":890,"x_min":0,"x_max":0,"o":"m 781 1070 b 277 928 604 1176 405 1063 b 0 336 134 777 -4 552 b 93 124 2 253 21 177 b 108 91 104 117 109 104 b 124 -38 107 47 113 4 b 539 -121 171 -250 371 -264 b 916 748 772 77 917 444 b 781 1070 916 860 891 1005 z m 782 289 l 790 317 b 805 348 795 327 800 338 b 837 446 813 381 826 413 b 864 550 846 481 851 516 b 879 666 869 589 873 627 b 884 783 884 705 885 744 b 889 801 883 789 885 796 b 890 705 892 769 892 737 b 871 563 888 657 881 610 b 863 551 870 558 870 552 b 836 447 865 519 852 467 b 804 348 836 412 825 377 b 790 318 806 335 808 322 b 782 289 796 307 790 298 z m 226 823 b 207 796 225 811 218 801 b 154 719 194 767 176 741 b 117 651 149 692 131 672 b 154 718 123 676 136 699 b 206 797 165 748 183 775 b 226 823 207 809 215 819 b 252 855 229 837 239 849 b 286 895 256 875 274 882 b 252 856 277 880 270 863 b 226 823 249 841 239 828 z m 99 614 b 83 574 97 600 92 586 b 65 530 81 558 75 543 b 84 573 70 545 68 563 b 99 614 80 590 91 601 z m 263 453 b 253 418 268 442 262 434 b 264 453 253 431 257 443 b 289 504 268 471 277 489 b 263 453 283 486 281 466 z m 186 706 b 171 679 187 693 179 686 b 187 705 174 689 176 700 b 190 718 187 710 189 714 b 346 911 233 789 286 854 b 358 920 350 914 354 917 b 355 909 363 913 358 911 b 200 718 297 851 245 787 b 186 706 196 713 194 706 z m 610 47 b 594 25 610 36 602 30 b 611 47 596 35 599 44 b 624 72 610 58 618 64 b 844 638 739 242 814 435 b 854 754 850 676 853 715 b 843 581 859 696 856 638 b 634 73 810 398 738 225 b 610 47 627 64 623 51 z m 122 271 b 178 525 123 358 142 445 b 585 972 257 702 396 900 b 725 962 626 987 692 1000 b 773 623 794 883 789 728 b 345 -92 733 369 581 34 b 283 -85 318 -106 295 -116 b 266 68 268 -44 264 22 b 324 90 267 83 281 83 b 321 127 379 99 376 108 b 275 143 309 131 298 134 b 271 150 273 144 271 147 b 418 562 279 294 346 439 b 632 790 464 641 557 760 b 672 791 645 796 659 796 b 645 825 686 785 664 813 b 336 731 528 903 412 828 b 169 413 263 636 206 528 b 131 279 154 369 141 324 b 122 271 130 276 129 273 z m 150 179 b 422 773 146 311 269 654 b 150 179 270 603 190 400 z m 315 551 b 480 771 327 612 423 741 b 315 551 414 706 359 632 z m 480 681 l 475 686 b 517 722 485 702 500 714 z m 770 261 b 755 226 770 248 764 235 b 770 261 756 239 762 251 z m 562 -13 b 581 10 565 -3 572 5 b 562 -13 578 0 571 -8 z m 235 369 b 242 394 234 378 237 387 b 235 369 247 383 238 377 z m 734 180 b 716 155 728 170 727 162 b 734 180 721 165 721 173 z m 465 670 b 450 653 464 662 461 657 b 465 670 455 662 458 667 z m 315 790 b 328 803 315 797 318 801 b 315 790 323 796 321 791 z m 347 956 b 335 946 348 946 339 947 z m 379 938 l 391 948 b 379 938 389 942 388 933 z m 796 631 l 794 643 b 796 631 798 639 800 635 z m 790 586 b 788 590 789 587 789 589 b 789 596 788 592 789 594 l 791 592 z "},"Õ":{"ha":890,"x_min":0,"x_max":0,"o":"m 781 1070 b 277 928 604 1176 405 1063 b 0 336 134 777 -4 552 b 93 124 2 253 21 177 b 108 91 104 117 109 104 b 124 -38 107 47 113 4 b 539 -121 171 -250 371 -264 b 916 748 772 77 917 444 b 781 1070 916 860 891 1005 z m 782 289 l 790 317 b 805 348 795 327 800 338 b 837 446 813 381 826 413 b 864 550 846 481 851 516 b 879 666 869 589 873 627 b 884 783 884 705 885 744 b 889 801 883 789 885 796 b 890 705 892 769 892 737 b 871 563 888 657 881 610 b 863 551 870 558 870 552 b 836 447 865 519 852 467 b 804 348 836 412 825 377 b 790 318 806 335 808 322 b 782 289 796 307 790 298 z m 226 823 b 207 796 225 811 218 801 b 154 719 194 767 176 741 b 117 651 149 692 131 672 b 154 718 123 676 136 699 b 206 797 165 748 183 775 b 226 823 207 809 215 819 b 252 855 229 837 239 849 b 286 895 256 875 274 882 b 252 856 277 880 270 863 b 226 823 249 841 239 828 z m 99 614 b 83 574 97 600 92 586 b 65 530 81 558 75 543 b 84 573 70 545 68 563 b 99 614 80 590 91 601 z m 263 453 b 253 418 268 442 262 434 b 264 453 253 431 257 443 b 289 504 268 471 277 489 b 263 453 283 486 281 466 z m 186 706 b 171 679 187 693 179 686 b 187 705 174 689 176 700 b 190 718 187 710 189 714 b 346 911 233 789 286 854 b 358 920 350 914 354 917 b 355 909 363 913 358 911 b 200 718 297 851 245 787 b 186 706 196 713 194 706 z m 610 47 b 594 25 610 36 602 30 b 611 47 596 35 599 44 b 624 72 610 58 618 64 b 844 638 739 242 814 435 b 854 754 850 676 853 715 b 843 581 859 696 856 638 b 634 73 810 398 738 225 b 610 47 627 64 623 51 z m 122 271 b 178 525 123 358 142 445 b 585 972 257 702 396 900 b 725 962 626 987 692 1000 b 773 623 794 883 789 728 b 345 -92 733 369 581 34 b 283 -85 318 -106 295 -116 b 266 68 268 -44 264 22 b 324 90 267 83 281 83 b 321 127 379 99 376 108 b 275 143 309 131 298 134 b 271 150 273 144 271 147 b 418 562 279 294 346 439 b 632 790 464 641 557 760 b 672 791 645 796 659 796 b 645 825 686 785 664 813 b 336 731 528 903 412 828 b 169 413 263 636 206 528 b 131 279 154 369 141 324 b 122 271 130 276 129 273 z m 150 179 b 422 773 146 311 269 654 b 150 179 270 603 190 400 z m 315 551 b 480 771 327 612 423 741 b 315 551 414 706 359 632 z m 480 681 l 475 686 b 517 722 485 702 500 714 z m 770 261 b 755 226 770 248 764 235 b 770 261 756 239 762 251 z m 562 -13 b 581 10 565 -3 572 5 b 562 -13 578 0 571 -8 z m 235 369 b 242 394 234 378 237 387 b 235 369 247 383 238 377 z m 734 180 b 716 155 728 170 727 162 b 734 180 721 165 721 173 z m 465 670 b 450 653 464 662 461 657 b 465 670 455 662 458 667 z m 315 790 b 328 803 315 797 318 801 b 315 790 323 796 321 791 z m 347 956 b 335 946 348 946 339 947 z m 379 938 l 391 948 b 379 938 389 942 388 933 z m 796 631 l 794 643 b 796 631 798 639 800 635 z m 790 586 b 788 590 789 587 789 589 b 789 596 788 592 789 594 l 791 592 z "},"Ö":{"ha":890,"x_min":0,"x_max":0,"o":"m 781 1070 b 277 928 604 1176 405 1063 b 0 336 134 777 -4 552 b 93 124 2 253 21 177 b 108 91 104 117 109 104 b 124 -38 107 47 113 4 b 539 -121 171 -250 371 -264 b 916 748 772 77 917 444 b 781 1070 916 860 891 1005 z m 782 289 l 790 317 b 805 348 795 327 800 338 b 837 446 813 381 826 413 b 864 550 846 481 851 516 b 879 666 869 589 873 627 b 884 783 884 705 885 744 b 889 801 883 789 885 796 b 890 705 892 769 892 737 b 871 563 888 657 881 610 b 863 551 870 558 870 552 b 836 447 865 519 852 467 b 804 348 836 412 825 377 b 790 318 806 335 808 322 b 782 289 796 307 790 298 z m 226 823 b 207 796 225 811 218 801 b 154 719 194 767 176 741 b 117 651 149 692 131 672 b 154 718 123 676 136 699 b 206 797 165 748 183 775 b 226 823 207 809 215 819 b 252 855 229 837 239 849 b 286 895 256 875 274 882 b 252 856 277 880 270 863 b 226 823 249 841 239 828 z m 99 614 b 83 574 97 600 92 586 b 65 530 81 558 75 543 b 84 573 70 545 68 563 b 99 614 80 590 91 601 z m 263 453 b 253 418 268 442 262 434 b 264 453 253 431 257 443 b 289 504 268 471 277 489 b 263 453 283 486 281 466 z m 186 706 b 171 679 187 693 179 686 b 187 705 174 689 176 700 b 190 718 187 710 189 714 b 346 911 233 789 286 854 b 358 920 350 914 354 917 b 355 909 363 913 358 911 b 200 718 297 851 245 787 b 186 706 196 713 194 706 z m 610 47 b 594 25 610 36 602 30 b 611 47 596 35 599 44 b 624 72 610 58 618 64 b 844 638 739 242 814 435 b 854 754 850 676 853 715 b 843 581 859 696 856 638 b 634 73 810 398 738 225 b 610 47 627 64 623 51 z m 122 271 b 178 525 123 358 142 445 b 585 972 257 702 396 900 b 725 962 626 987 692 1000 b 773 623 794 883 789 728 b 345 -92 733 369 581 34 b 283 -85 318 -106 295 -116 b 266 68 268 -44 264 22 b 324 90 267 83 281 83 b 321 127 379 99 376 108 b 275 143 309 131 298 134 b 271 150 273 144 271 147 b 418 562 279 294 346 439 b 632 790 464 641 557 760 b 672 791 645 796 659 796 b 645 825 686 785 664 813 b 336 731 528 903 412 828 b 169 413 263 636 206 528 b 131 279 154 369 141 324 b 122 271 130 276 129 273 z m 150 179 b 422 773 146 311 269 654 b 150 179 270 603 190 400 z m 315 551 b 480 771 327 612 423 741 b 315 551 414 706 359 632 z m 480 681 l 475 686 b 517 722 485 702 500 714 z m 770 261 b 755 226 770 248 764 235 b 770 261 756 239 762 251 z m 562 -13 b 581 10 565 -3 572 5 b 562 -13 578 0 571 -8 z m 235 369 b 242 394 234 378 237 387 b 235 369 247 383 238 377 z m 734 180 b 716 155 728 170 727 162 b 734 180 721 165 721 173 z m 465 670 b 450 653 464 662 461 657 b 465 670 455 662 458 667 z m 315 790 b 328 803 315 797 318 801 b 315 790 323 796 321 791 z m 347 956 b 335 946 348 946 339 947 z m 379 938 l 391 948 b 379 938 389 942 388 933 z m 796 631 l 794 643 b 796 631 798 639 800 635 z m 790 586 b 788 590 789 587 789 589 b 789 596 788 592 789 594 l 791 592 z "},"Ø":{"ha":890,"x_min":0,"x_max":0,"o":"m 781 1070 b 277 928 604 1176 405 1063 b 0 336 134 777 -4 552 b 93 124 2 253 21 177 b 108 91 104 117 109 104 b 124 -38 107 47 113 4 b 539 -121 171 -250 371 -264 b 916 748 772 77 917 444 b 781 1070 916 860 891 1005 z m 782 289 l 790 317 b 805 348 795 327 800 338 b 837 446 813 381 826 413 b 864 550 846 481 851 516 b 879 666 869 589 873 627 b 884 783 884 705 885 744 b 889 801 883 789 885 796 b 890 705 892 769 892 737 b 871 563 888 657 881 610 b 863 551 870 558 870 552 b 836 447 865 519 852 467 b 804 348 836 412 825 377 b 790 318 806 335 808 322 b 782 289 796 307 790 298 z m 226 823 b 207 796 225 811 218 801 b 154 719 194 767 176 741 b 117 651 149 692 131 672 b 154 718 123 676 136 699 b 206 797 165 748 183 775 b 226 823 207 809 215 819 b 252 855 229 837 239 849 b 286 895 256 875 274 882 b 252 856 277 880 270 863 b 226 823 249 841 239 828 z m 99 614 b 83 574 97 600 92 586 b 65 530 81 558 75 543 b 84 573 70 545 68 563 b 99 614 80 590 91 601 z m 263 453 b 253 418 268 442 262 434 b 264 453 253 431 257 443 b 289 504 268 471 277 489 b 263 453 283 486 281 466 z m 186 706 b 171 679 187 693 179 686 b 187 705 174 689 176 700 b 190 718 187 710 189 714 b 346 911 233 789 286 854 b 358 920 350 914 354 917 b 355 909 363 913 358 911 b 200 718 297 851 245 787 b 186 706 196 713 194 706 z m 610 47 b 594 25 610 36 602 30 b 611 47 596 35 599 44 b 624 72 610 58 618 64 b 844 638 739 242 814 435 b 854 754 850 676 853 715 b 843 581 859 696 856 638 b 634 73 810 398 738 225 b 610 47 627 64 623 51 z m 122 271 b 178 525 123 358 142 445 b 585 972 257 702 396 900 b 725 962 626 987 692 1000 b 773 623 794 883 789 728 b 345 -92 733 369 581 34 b 283 -85 318 -106 295 -116 b 266 68 268 -44 264 22 b 324 90 267 83 281 83 b 321 127 379 99 376 108 b 275 143 309 131 298 134 b 271 150 273 144 271 147 b 418 562 279 294 346 439 b 632 790 464 641 557 760 b 672 791 645 796 659 796 b 645 825 686 785 664 813 b 336 731 528 903 412 828 b 169 413 263 636 206 528 b 131 279 154 369 141 324 b 122 271 130 276 129 273 z m 150 179 b 422 773 146 311 269 654 b 150 179 270 603 190 400 z m 315 551 b 480 771 327 612 423 741 b 315 551 414 706 359 632 z m 480 681 l 475 686 b 517 722 485 702 500 714 z m 770 261 b 755 226 770 248 764 235 b 770 261 756 239 762 251 z m 562 -13 b 581 10 565 -3 572 5 b 562 -13 578 0 571 -8 z m 235 369 b 242 394 234 378 237 387 b 235 369 247 383 238 377 z m 734 180 b 716 155 728 170 727 162 b 734 180 721 165 721 173 z m 465 670 b 450 653 464 662 461 657 b 465 670 455 662 458 667 z m 315 790 b 328 803 315 797 318 801 b 315 790 323 796 321 791 z m 347 956 b 335 946 348 946 339 947 z m 379 938 l 391 948 b 379 938 389 942 388 933 z m 796 631 l 794 643 b 796 631 798 639 800 635 z m 790 586 b 788 590 789 587 789 589 b 789 596 788 592 789 594 l 791 592 z "},"P":{"ha":713,"x_min":0,"x_max":0,"o":"m 347 337 b 510 720 394 468 448 596 b 441 809 532 765 505 803 b 344 734 396 813 364 775 b 250 513 308 663 277 589 b 121 43 193 360 150 203 b 102 -172 110 -28 104 -100 b 228 -163 103 -209 222 -208 b 297 189 244 -45 268 73 b 329 207 303 209 303 215 b 597 290 423 180 526 228 b 786 593 688 371 753 476 b 792 860 811 679 818 774 b 449 1030 744 1020 592 1074 b 17 605 280 978 88 788 b 188 420 -45 447 74 326 b 204 436 200 429 209 440 b 175 426 196 429 185 425 b 113 472 150 428 116 435 b 158 600 109 512 137 566 b 523 921 237 727 384 888 b 650 618 688 959 696 735 b 421 338 603 498 537 399 b 345 317 397 326 372 318 b 347 337 341 326 345 331 z m 217 -3 b 217 -32 221 -14 216 -23 b 211 -55 210 -38 215 -48 b 216 -31 206 -45 205 -37 b 217 -3 213 -22 214 -12 z m 362 446 b 374 481 362 459 366 471 b 387 513 374 493 379 504 b 399 546 388 525 392 537 b 422 589 405 561 406 579 b 432 620 418 600 424 607 b 421 590 431 609 428 599 b 398 547 416 574 416 556 b 387 514 403 535 398 521 b 374 481 389 501 384 489 b 362 446 377 470 371 461 z m 159 84 b 157 46 162 71 161 58 b 135 -107 150 -5 143 -56 b 135 -62 127 -91 133 -76 b 148 31 139 -31 144 0 b 158 45 149 37 149 44 b 160 83 153 57 154 71 b 172 136 160 101 165 119 b 159 84 171 118 173 99 z m 660 404 b 645 378 662 393 655 388 b 661 403 648 388 653 397 b 756 605 702 465 734 533 b 776 690 763 633 769 661 b 771 632 782 670 775 651 b 684 428 755 559 725 490 b 660 404 678 418 674 405 z m 404 707 b 268 353 359 589 312 472 b 404 707 301 476 346 594 z m 165 -106 b 257 331 173 30 220 197 b 261 326 259 322 258 328 b 264 324 262 325 264 324 b 165 -106 227 195 184 27 z m 256 423 b 373 725 255 463 340 684 b 256 423 331 625 291 525 z m 710 565 b 606 388 703 515 652 427 b 710 565 647 443 681 503 z m 74 582 b 106 647 75 607 87 631 l 74 582 z m 50 623 b 74 670 58 639 66 655 l 80 667 l 55 619 l 50 623 z m 185 182 b 190 217 179 194 184 205 b 185 182 197 203 185 194 z m 172 801 b 172 803 172 801 171 803 b 182 814 175 807 179 811 b 184 812 184 816 186 815 b 175 800 181 808 178 804 b 172 801 174 800 173 800 z m 209 271 b 216 308 204 288 211 296 b 209 271 221 294 213 285 z m 148 767 b 145 772 144 768 143 770 b 152 779 147 774 149 777 b 155 776 154 780 156 779 b 148 767 153 773 150 770 z m 353 427 b 346 400 354 417 351 408 b 353 427 341 410 348 416 z m 203 -81 b 203 -99 207 -86 207 -93 z "},"Q":{"ha":896,"x_min":0,"x_max":0,"o":"m 712 -142 b 711 -163 713 -149 713 -156 b 657 -185 704 -183 677 -185 b 514 -146 607 -184 558 -171 b 546 -121 525 -138 536 -130 b 924 748 779 77 924 444 b 789 1070 923 860 899 1005 b 285 928 612 1176 413 1063 b 8 336 142 777 4 552 b 100 124 9 253 28 177 b 115 91 111 117 117 104 b 115 88 115 90 115 89 b -15 39 66 98 16 79 b -64 -78 -45 1 -51 -32 b -68 -96 -64 -79 -68 -95 b -59 -88 -69 -109 -66 -101 b 93 -30 -34 -37 36 -20 b 133 -43 106 -33 120 -37 b 389 -207 167 -187 272 -237 b 517 -277 431 -232 474 -255 b 727 -246 576 -308 690 -321 b 726 -154 741 -217 741 -182 b 712 -142 723 -148 711 -132 z m 73 530 b 91 572 77 544 76 562 b 73 530 88 557 82 542 z m 91 575 b 106 614 89 590 99 602 b 92 575 105 600 100 586 z m 58 31 b 82 36 65 43 73 39 z m 570 -13 b 589 10 573 -3 580 5 b 570 -13 586 0 579 -8 z m 601 25 b 618 47 602 35 609 43 b 601 25 618 36 609 30 z m 724 155 b 741 180 729 165 729 173 b 724 155 736 170 735 162 z m 762 226 b 778 261 764 239 769 251 b 762 226 777 248 771 235 z m 789 289 l 798 316 b 789 289 803 306 797 297 z m 799 318 b 812 347 803 328 808 337 b 799 318 814 334 814 322 z m 814 351 b 844 443 821 383 833 413 b 814 351 843 410 832 378 z m 846 449 b 871 548 852 482 861 515 b 846 449 871 513 862 479 z m 892 783 b 896 800 890 789 892 796 b 898 705 899 769 900 737 b 879 563 895 657 889 610 b 872 551 878 558 877 553 b 886 666 876 589 881 628 b 892 783 891 705 893 744 z m 851 638 b 862 754 858 676 861 715 b 851 581 867 696 863 638 b 641 73 817 398 746 225 b 618 48 635 64 631 51 b 631 72 618 58 626 65 b 851 638 747 242 822 435 z m 803 631 b 802 643 803 635 802 639 b 803 631 806 639 807 635 z m 797 596 l 799 592 l 798 586 b 796 590 797 587 796 589 b 797 596 796 592 796 594 z m 732 962 b 780 623 802 882 797 728 b 665 266 760 499 722 378 b 459 -18 614 162 546 58 b 336 -71 427 -47 382 -86 b 275 9 301 -59 277 -27 b 274 68 273 30 273 50 b 331 90 274 83 289 83 b 328 127 387 99 383 112 b 284 140 316 130 302 134 b 282 143 283 140 282 142 b 425 560 291 287 354 438 b 640 790 471 640 564 760 b 680 791 653 796 667 796 b 653 825 694 785 672 813 b 344 731 536 903 419 828 b 176 413 270 636 214 528 b 138 279 161 369 148 324 b 129 271 137 276 137 273 b 186 525 130 358 150 445 b 593 972 265 702 403 900 b 732 962 634 987 699 1000 z m 322 551 b 487 771 335 612 431 741 b 322 551 422 706 366 632 z m 525 722 l 487 681 l 482 686 b 525 722 493 702 508 714 z m 473 670 b 457 653 472 662 468 657 b 473 670 463 662 465 667 z m 158 179 b 429 773 153 311 277 654 b 158 179 277 603 198 400 z m 271 452 b 261 418 275 441 269 433 b 271 452 261 430 264 442 z m 272 455 b 296 504 276 473 285 490 b 272 455 291 486 289 467 z m 243 369 b 250 394 242 378 244 387 b 243 369 255 383 246 377 z m 178 679 b 194 705 179 689 185 699 b 178 679 193 694 187 684 z m 322 790 b 336 803 323 797 326 801 b 323 790 331 796 329 791 z m 398 948 b 387 938 396 943 395 933 z m 354 956 b 342 946 356 946 347 947 z m 354 911 b 366 920 358 914 362 917 b 363 909 371 913 365 911 b 207 718 305 851 253 787 b 195 706 204 713 202 707 b 198 717 195 710 196 714 b 354 911 241 789 293 854 z m 294 895 b 260 856 284 880 278 864 b 294 895 264 875 282 883 z m 259 855 b 234 823 256 841 247 829 b 259 855 237 837 246 848 z m 233 822 b 215 796 232 811 225 801 b 162 719 202 768 184 742 b 213 797 173 749 191 775 b 233 822 215 808 222 818 z m 161 718 b 125 651 156 691 139 672 b 161 718 131 676 144 699 z m 602 -229 b 632 -229 612 -226 622 -226 b 602 -229 620 -233 620 -233 z m 620 -203 l 659 -203 b 620 -203 646 -208 633 -208 z "},"R":{"ha":717,"x_min":0,"x_max":0,"o":"m 328 -62 b 482 -171 370 -105 423 -149 b 732 -124 565 -202 688 -203 b 744 -91 740 -110 750 -77 b 708 -121 738 -107 724 -118 b 485 -44 628 -131 543 -98 b 350 207 414 23 367 111 b 367 227 346 226 348 226 b 570 292 436 227 510 256 b 805 824 747 400 842 645 b 512 1042 776 970 652 1060 b 191 862 392 1027 277 951 b 0 528 110 777 10 649 b 191 420 -8 413 107 367 b 208 436 202 427 216 444 b 175 421 199 428 187 423 b 135 434 161 420 146 424 b 117 472 124 443 117 457 b 166 608 113 516 144 572 b 511 918 243 730 375 879 b 669 811 580 938 654 901 b 425 365 700 637 591 451 b 349 343 402 352 376 345 b 352 366 345 353 350 359 b 512 717 400 494 450 595 b 439 808 538 768 492 807 b 350 738 397 809 369 774 b 233 465 305 650 266 559 b 103 -176 155 242 108 52 b 228 -166 102 -209 225 -205 b 253 48 235 -90 243 -7 b 328 -62 272 8 297 -29 z m 225 35 b 225 -8 228 21 228 6 b 219 -33 219 -15 223 -24 b 226 -9 215 -22 214 -14 b 225 35 220 5 225 20 b 231 51 231 39 228 46 b 225 35 236 43 234 37 z m 194 247 b 192 215 196 236 195 226 b 179 156 188 195 184 175 b 144 -32 164 94 152 31 b 134 -98 141 -54 138 -76 b 138 -22 127 -72 135 -47 b 168 138 145 32 157 85 b 187 218 173 165 180 192 b 194 247 189 228 191 238 z m 377 476 b 386 509 378 488 381 499 b 408 552 394 523 396 541 b 420 588 407 566 415 576 b 433 593 422 594 428 593 b 440 626 424 604 429 613 b 432 593 438 612 429 604 b 407 553 419 582 422 562 b 385 510 405 536 405 518 b 377 476 386 494 386 494 z m 97 695 b 83 668 96 685 91 675 b 53 615 76 649 66 631 b 84 668 62 633 63 656 b 97 695 80 681 89 688 z m 392 667 b 258 319 347 552 302 436 b 392 667 291 440 335 556 z m 222 326 b 358 692 257 452 302 574 b 362 688 359 691 361 689 b 363 685 362 687 363 686 b 222 326 316 565 269 446 z m 166 -97 b 213 173 167 -5 187 85 b 165 -97 197 83 179 -7 z m 778 692 b 690 464 768 610 738 531 b 777 692 729 536 758 612 z m 718 597 b 627 427 700 535 669 476 b 625 432 629 435 628 428 b 625 435 625 433 624 434 b 718 597 660 486 691 541 z m 71 567 b 101 645 73 597 87 621 l 107 642 z m 307 81 b 281 138 293 97 283 117 b 307 81 297 123 299 100 z m 144 757 b 122 727 137 747 129 737 b 139 761 122 741 132 750 l 144 757 z m 288 40 b 263 86 275 52 267 68 b 288 40 276 74 285 57 z m 612 419 b 596 400 612 409 605 401 z m 162 780 b 175 797 158 791 168 793 z m 340 144 b 333 175 335 154 329 161 b 340 144 337 164 344 156 z m 366 450 b 368 445 367 447 368 446 b 361 428 365 440 363 434 b 357 430 360 426 357 427 b 363 447 359 436 361 442 b 366 450 363 448 364 449 z m 211 -58 l 213 -58 l 213 -77 l 211 -77 z "},"S":{"ha":632,"x_min":0,"x_max":0,"o":"m 326 257 b 204 338 309 316 264 349 b 5 86 98 318 21 183 b 190 -197 -20 -54 55 -187 b 529 289 445 -217 636 98 b 409 580 480 377 392 463 b 559 825 422 672 484 753 b 646 883 584 849 614 869 b 618 841 634 865 626 853 b 557 713 592 801 567 760 b 640 606 546 659 592 619 b 659 606 646 605 655 602 b 657 624 665 612 660 618 b 805 869 613 707 739 835 b 840 923 833 883 839 890 b 692 1050 840 986 785 1048 b 246 645 516 1052 289 857 b 282 408 227 555 236 473 b 416 130 342 324 420 241 b 212 -78 412 27 311 -74 b 218 251 26 -86 140 186 b 315 246 262 288 295 289 b 326 178 325 225 329 201 b 326 257 334 204 334 231 z m 55 128 b 80 175 60 145 69 161 b 66 131 76 163 71 151 b 43 29 56 94 50 66 b 55 128 39 63 43 97 z m 348 738 b 540 951 384 828 478 924 b 505 918 531 934 516 928 b 468 886 493 907 480 897 b 434 851 457 875 445 863 b 404 817 424 840 414 829 b 375 778 394 804 384 791 b 348 738 366 765 357 751 z m 463 818 b 590 924 497 864 533 906 b 463 818 548 889 504 855 z m 84 71 b 121 186 85 112 97 152 b 84 71 110 150 98 114 z m 438 58 b 424 25 438 37 438 37 b 423 31 424 27 422 29 b 438 58 428 40 433 49 z m 474 15 b 466 6 473 11 470 7 b 463 11 462 4 462 8 b 471 19 464 15 467 18 b 474 15 472 19 473 16 z "},"T":{"ha":476,"x_min":0,"x_max":0,"o":"m 778 1197 b 282 1052 610 1156 450 1091 b 148 1031 238 1042 193 1035 b 16 1082 90 1030 38 1054 b 0 1081 0 1102 -1 1115 b 32 983 2 1046 13 1012 b 196 901 67 928 132 902 b 225 885 208 902 219 896 b 303 727 258 836 285 783 b 320 507 324 661 343 574 b 190 147 277 384 232 267 b 100 -103 161 63 130 -20 b 102 -136 96 -114 97 -126 b 111 -145 103 -140 106 -144 b 120 -138 117 -146 118 -141 b 139 -96 128 -125 126 -108 b 134 -123 140 -105 138 -115 b 130 -149 133 -132 131 -140 b 138 -162 130 -154 131 -160 b 149 -152 144 -163 147 -158 b 156 -137 152 -147 154 -142 b 250 122 185 -65 221 50 b 400 494 300 246 350 370 b 421 523 404 503 405 515 b 409 489 416 509 412 499 b 214 -16 345 320 281 151 b 163 -152 201 -48 174 -119 b 164 -189 155 -177 139 -195 b 180 -183 170 -188 177 -178 b 201 -181 190 -203 196 -186 b 216 -153 207 -172 212 -163 b 500 532 315 58 411 317 b 634 881 548 648 593 763 b 628 944 642 903 647 924 b 612 975 621 954 616 964 b 660 992 630 982 645 987 b 871 1070 731 1018 800 1047 b 1075 1072 916 1084 1020 1105 b 1115 1003 1107 1052 1116 1035 b 1122 1003 1114 975 1116 984 b 1129 1049 1126 1018 1129 1033 b 778 1197 1128 1232 910 1229 z m 806 1173 b 807 1167 806 1171 806 1169 l 549 1087 l 547 1094 b 806 1173 633 1122 718 1153 z m 521 1083 b 478 1069 508 1075 493 1070 b 521 1083 490 1078 505 1083 z m 185 36 b 360 505 239 194 299 350 l 370 501 z m 306 133 b 299 123 304 129 302 126 l 297 126 l 305 142 b 306 133 310 139 307 136 z m 328 193 b 369 294 340 227 349 263 b 328 193 364 257 343 226 z m 434 436 b 381 310 416 394 399 352 b 370 297 379 305 378 298 b 409 399 378 333 396 365 b 444 466 418 422 430 445 b 434 436 440 456 437 446 z m 412 624 b 480 790 429 681 452 737 b 412 624 462 732 440 677 z m 391 661 b 349 790 375 718 362 755 b 298 901 335 826 314 866 b 509 942 360 909 445 927 b 391 661 475 858 427 746 z m 524 890 b 534 913 520 899 527 904 b 524 890 533 904 530 896 z m 797 1072 b 576 990 725 1040 651 1016 b 588 1003 574 1003 583 1001 b 765 1067 647 1024 706 1046 b 798 1074 775 1071 786 1078 b 797 1072 798 1073 798 1072 z m 799 1075 b 846 1089 812 1087 829 1088 b 799 1075 831 1082 817 1072 z m 489 1040 b 857 1153 529 1067 818 1156 b 489 1040 734 1117 614 1070 z "},"U":{"ha":833,"x_min":0,"x_max":0,"o":"m 702 97 b 1061 969 758 408 915 689 b 1001 1069 1087 1020 1045 1057 b 931 1045 966 1078 947 1070 b 589 463 812 853 698 660 b 326 61 512 322 435 178 b 319 59 324 59 322 58 b 314 63 317 59 315 61 b 314 176 306 100 305 139 b 605 895 362 432 466 675 b 621 998 624 925 646 961 b 435 1035 584 1053 491 1050 b 54 697 280 991 133 837 b 66 407 6 611 -44 458 b 188 447 107 389 164 409 b 190 449 189 447 189 448 b 176 446 198 463 194 454 b 108 506 132 425 93 460 b 429 892 155 653 284 803 b 176 248 320 687 222 475 b 203 3 161 175 142 61 b 415 47 278 -69 364 -13 b 619 352 489 133 562 254 b 564 11 587 242 558 125 b 677 -167 568 -59 593 -156 b 802 -86 732 -174 780 -131 b 810 -64 806 -77 816 -57 b 771 -102 800 -80 787 -93 b 699 -43 729 -119 707 -77 b 702 97 688 3 694 52 z m 908 755 b 946 831 921 780 934 806 l 953 828 b 908 755 942 801 927 777 z m 958 970 b 942 938 957 958 951 947 b 958 970 943 951 949 962 z m 933 918 l 813 697 b 933 918 816 731 887 867 z m 799 679 b 790 662 806 668 793 666 z m 106 730 b 86 697 103 717 96 705 b 106 730 86 711 98 720 z m 85 694 b 63 658 81 681 73 668 b 85 694 68 671 70 687 z m 62 574 b 110 672 67 611 84 645 z m 130 761 b 133 772 122 765 132 768 b 138 774 134 773 137 773 b 130 761 139 767 133 759 z m 164 802 b 155 795 162 799 161 794 b 157 800 156 797 156 799 b 163 806 158 803 161 805 b 164 802 166 807 167 804 z m 194 107 b 213 275 186 165 198 221 b 194 107 204 219 201 163 z m 253 261 b 231 134 244 219 238 177 b 281 384 225 222 252 303 b 253 262 271 343 261 302 z m 339 555 b 352 585 339 566 344 577 b 339 555 354 573 349 562 z m 485 919 b 464 886 480 907 478 893 b 485 919 464 902 475 910 z m 463 884 b 438 841 460 867 451 852 b 463 884 441 858 449 874 z m 437 838 b 395 760 429 809 410 785 b 437 838 406 787 414 817 z m 376 723 b 367 703 380 715 374 711 b 376 723 368 715 370 720 z m 357 607 b 539 948 407 726 468 840 b 547 958 541 951 544 955 b 552 960 548 959 550 959 b 545 940 557 951 549 946 b 367 609 477 835 418 724 b 352 587 363 601 362 591 b 357 608 352 594 354 601 z m 339 553 b 327 521 340 541 336 529 b 339 553 325 533 330 545 z m 327 518 b 308 469 324 501 317 484 b 327 518 307 487 314 505 z m 307 466 b 291 412 304 447 298 429 b 307 466 289 431 294 451 z m 285 127 b 283 131 284 129 283 130 b 284 137 283 133 283 135 b 286 133 284 136 285 135 b 285 127 285 131 285 129 z m 295 196 b 291 167 294 186 293 177 b 296 196 288 177 289 188 z m 296 200 b 298 235 293 211 294 224 b 296 200 301 223 300 211 z m 299 238 b 303 258 300 244 301 251 b 299 238 307 249 307 242 z m 671 17 b 674 20 671 18 673 18 b 675 10 674 16 675 13 b 672 -5 675 5 678 -2 b 672 -3 669 -7 672 -6 b 671 17 671 4 671 10 z m 637 77 b 643 -27 640 43 641 8 b 637 77 626 6 634 42 z m 603 93 b 611 -38 608 45 604 3 b 603 93 597 3 600 44 z "},"Ù":{"ha":833,"x_min":0,"x_max":0,"o":"m 702 97 b 1061 969 758 408 915 689 b 1001 1069 1087 1020 1045 1057 b 931 1045 966 1078 947 1070 b 589 463 812 853 698 660 b 326 61 512 322 435 178 b 319 59 324 59 322 58 b 314 63 317 59 315 61 b 314 176 306 100 305 139 b 605 895 362 432 466 675 b 621 998 624 925 646 961 b 435 1035 584 1053 491 1050 b 54 697 280 991 133 837 b 66 407 6 611 -44 458 b 188 447 107 389 164 409 b 190 449 189 447 189 448 b 176 446 198 463 194 454 b 108 506 132 425 93 460 b 429 892 155 653 284 803 b 176 248 320 687 222 475 b 203 3 161 175 142 61 b 415 47 278 -69 364 -13 b 619 352 489 133 562 254 b 564 11 587 242 558 125 b 677 -167 568 -59 593 -156 b 802 -86 732 -174 780 -131 b 810 -64 806 -77 816 -57 b 771 -102 800 -80 787 -93 b 699 -43 729 -119 707 -77 b 702 97 688 3 694 52 z m 908 755 b 946 831 921 780 934 806 l 953 828 b 908 755 942 801 927 777 z m 958 970 b 942 938 957 958 951 947 b 958 970 943 951 949 962 z m 933 918 l 813 697 b 933 918 816 731 887 867 z m 799 679 b 790 662 806 668 793 666 z m 106 730 b 86 697 103 717 96 705 b 106 730 86 711 98 720 z m 85 694 b 63 658 81 681 73 668 b 85 694 68 671 70 687 z m 62 574 b 110 672 67 611 84 645 z m 130 761 b 133 772 122 765 132 768 b 138 774 134 773 137 773 b 130 761 139 767 133 759 z m 164 802 b 155 795 162 799 161 794 b 157 800 156 797 156 799 b 163 806 158 803 161 805 b 164 802 166 807 167 804 z m 194 107 b 213 275 186 165 198 221 b 194 107 204 219 201 163 z m 253 261 b 231 134 244 219 238 177 b 281 384 225 222 252 303 b 253 262 271 343 261 302 z m 339 555 b 352 585 339 566 344 577 b 339 555 354 573 349 562 z m 485 919 b 464 886 480 907 478 893 b 485 919 464 902 475 910 z m 463 884 b 438 841 460 867 451 852 b 463 884 441 858 449 874 z m 437 838 b 395 760 429 809 410 785 b 437 838 406 787 414 817 z m 376 723 b 367 703 380 715 374 711 b 376 723 368 715 370 720 z m 357 607 b 539 948 407 726 468 840 b 547 958 541 951 544 955 b 552 960 548 959 550 959 b 545 940 557 951 549 946 b 367 609 477 835 418 724 b 352 587 363 601 362 591 b 357 608 352 594 354 601 z m 339 553 b 327 521 340 541 336 529 b 339 553 325 533 330 545 z m 327 518 b 308 469 324 501 317 484 b 327 518 307 487 314 505 z m 307 466 b 291 412 304 447 298 429 b 307 466 289 431 294 451 z m 285 127 b 283 131 284 129 283 130 b 284 137 283 133 283 135 b 286 133 284 136 285 135 b 285 127 285 131 285 129 z m 295 196 b 291 167 294 186 293 177 b 296 196 288 177 289 188 z m 296 200 b 298 235 293 211 294 224 b 296 200 301 223 300 211 z m 299 238 b 303 258 300 244 301 251 b 299 238 307 249 307 242 z m 671 17 b 674 20 671 18 673 18 b 675 10 674 16 675 13 b 672 -5 675 5 678 -2 b 672 -3 669 -7 672 -6 b 671 17 671 4 671 10 z m 637 77 b 643 -27 640 43 641 8 b 637 77 626 6 634 42 z m 603 93 b 611 -38 608 45 604 3 b 603 93 597 3 600 44 z "},"Ú":{"ha":833,"x_min":0,"x_max":0,"o":"m 702 97 b 1061 969 758 408 915 689 b 1001 1069 1087 1020 1045 1057 b 931 1045 966 1078 947 1070 b 589 463 812 853 698 660 b 326 61 512 322 435 178 b 319 59 324 59 322 58 b 314 63 317 59 315 61 b 314 176 306 100 305 139 b 605 895 362 432 466 675 b 621 998 624 925 646 961 b 435 1035 584 1053 491 1050 b 54 697 280 991 133 837 b 66 407 6 611 -44 458 b 188 447 107 389 164 409 b 190 449 189 447 189 448 b 176 446 198 463 194 454 b 108 506 132 425 93 460 b 429 892 155 653 284 803 b 176 248 320 687 222 475 b 203 3 161 175 142 61 b 415 47 278 -69 364 -13 b 619 352 489 133 562 254 b 564 11 587 242 558 125 b 677 -167 568 -59 593 -156 b 802 -86 732 -174 780 -131 b 810 -64 806 -77 816 -57 b 771 -102 800 -80 787 -93 b 699 -43 729 -119 707 -77 b 702 97 688 3 694 52 z m 908 755 b 946 831 921 780 934 806 l 953 828 b 908 755 942 801 927 777 z m 958 970 b 942 938 957 958 951 947 b 958 970 943 951 949 962 z m 933 918 l 813 697 b 933 918 816 731 887 867 z m 799 679 b 790 662 806 668 793 666 z m 106 730 b 86 697 103 717 96 705 b 106 730 86 711 98 720 z m 85 694 b 63 658 81 681 73 668 b 85 694 68 671 70 687 z m 62 574 b 110 672 67 611 84 645 z m 130 761 b 133 772 122 765 132 768 b 138 774 134 773 137 773 b 130 761 139 767 133 759 z m 164 802 b 155 795 162 799 161 794 b 157 800 156 797 156 799 b 163 806 158 803 161 805 b 164 802 166 807 167 804 z m 194 107 b 213 275 186 165 198 221 b 194 107 204 219 201 163 z m 253 261 b 231 134 244 219 238 177 b 281 384 225 222 252 303 b 253 262 271 343 261 302 z m 339 555 b 352 585 339 566 344 577 b 339 555 354 573 349 562 z m 485 919 b 464 886 480 907 478 893 b 485 919 464 902 475 910 z m 463 884 b 438 841 460 867 451 852 b 463 884 441 858 449 874 z m 437 838 b 395 760 429 809 410 785 b 437 838 406 787 414 817 z m 376 723 b 367 703 380 715 374 711 b 376 723 368 715 370 720 z m 357 607 b 539 948 407 726 468 840 b 547 958 541 951 544 955 b 552 960 548 959 550 959 b 545 940 557 951 549 946 b 367 609 477 835 418 724 b 352 587 363 601 362 591 b 357 608 352 594 354 601 z m 339 553 b 327 521 340 541 336 529 b 339 553 325 533 330 545 z m 327 518 b 308 469 324 501 317 484 b 327 518 307 487 314 505 z m 307 466 b 291 412 304 447 298 429 b 307 466 289 431 294 451 z m 285 127 b 283 131 284 129 283 130 b 284 137 283 133 283 135 b 286 133 284 136 285 135 b 285 127 285 131 285 129 z m 295 196 b 291 167 294 186 293 177 b 296 196 288 177 289 188 z m 296 200 b 298 235 293 211 294 224 b 296 200 301 223 300 211 z m 299 238 b 303 258 300 244 301 251 b 299 238 307 249 307 242 z m 671 17 b 674 20 671 18 673 18 b 675 10 674 16 675 13 b 672 -5 675 5 678 -2 b 672 -3 669 -7 672 -6 b 671 17 671 4 671 10 z m 637 77 b 643 -27 640 43 641 8 b 637 77 626 6 634 42 z m 603 93 b 611 -38 608 45 604 3 b 603 93 597 3 600 44 z "},"Û":{"ha":833,"x_min":0,"x_max":0,"o":"m 702 97 b 1061 969 758 408 915 689 b 1001 1069 1087 1020 1045 1057 b 931 1045 966 1078 947 1070 b 589 463 812 853 698 660 b 326 61 512 322 435 178 b 319 59 324 59 322 58 b 314 63 317 59 315 61 b 314 176 306 100 305 139 b 605 895 362 432 466 675 b 621 998 624 925 646 961 b 435 1035 584 1053 491 1050 b 54 697 280 991 133 837 b 66 407 6 611 -44 458 b 188 447 107 389 164 409 b 190 449 189 447 189 448 b 176 446 198 463 194 454 b 108 506 132 425 93 460 b 429 892 155 653 284 803 b 176 248 320 687 222 475 b 203 3 161 175 142 61 b 415 47 278 -69 364 -13 b 619 352 489 133 562 254 b 564 11 587 242 558 125 b 677 -167 568 -59 593 -156 b 802 -86 732 -174 780 -131 b 810 -64 806 -77 816 -57 b 771 -102 800 -80 787 -93 b 699 -43 729 -119 707 -77 b 702 97 688 3 694 52 z m 908 755 b 946 831 921 780 934 806 l 953 828 b 908 755 942 801 927 777 z m 958 970 b 942 938 957 958 951 947 b 958 970 943 951 949 962 z m 933 918 l 813 697 b 933 918 816 731 887 867 z m 799 679 b 790 662 806 668 793 666 z m 106 730 b 86 697 103 717 96 705 b 106 730 86 711 98 720 z m 85 694 b 63 658 81 681 73 668 b 85 694 68 671 70 687 z m 62 574 b 110 672 67 611 84 645 z m 130 761 b 133 772 122 765 132 768 b 138 774 134 773 137 773 b 130 761 139 767 133 759 z m 164 802 b 155 795 162 799 161 794 b 157 800 156 797 156 799 b 163 806 158 803 161 805 b 164 802 166 807 167 804 z m 194 107 b 213 275 186 165 198 221 b 194 107 204 219 201 163 z m 253 261 b 231 134 244 219 238 177 b 281 384 225 222 252 303 b 253 262 271 343 261 302 z m 339 555 b 352 585 339 566 344 577 b 339 555 354 573 349 562 z m 485 919 b 464 886 480 907 478 893 b 485 919 464 902 475 910 z m 463 884 b 438 841 460 867 451 852 b 463 884 441 858 449 874 z m 437 838 b 395 760 429 809 410 785 b 437 838 406 787 414 817 z m 376 723 b 367 703 380 715 374 711 b 376 723 368 715 370 720 z m 357 607 b 539 948 407 726 468 840 b 547 958 541 951 544 955 b 552 960 548 959 550 959 b 545 940 557 951 549 946 b 367 609 477 835 418 724 b 352 587 363 601 362 591 b 357 608 352 594 354 601 z m 339 553 b 327 521 340 541 336 529 b 339 553 325 533 330 545 z m 327 518 b 308 469 324 501 317 484 b 327 518 307 487 314 505 z m 307 466 b 291 412 304 447 298 429 b 307 466 289 431 294 451 z m 285 127 b 283 131 284 129 283 130 b 284 137 283 133 283 135 b 286 133 284 136 285 135 b 285 127 285 131 285 129 z m 295 196 b 291 167 294 186 293 177 b 296 196 288 177 289 188 z m 296 200 b 298 235 293 211 294 224 b 296 200 301 223 300 211 z m 299 238 b 303 258 300 244 301 251 b 299 238 307 249 307 242 z m 671 17 b 674 20 671 18 673 18 b 675 10 674 16 675 13 b 672 -5 675 5 678 -2 b 672 -3 669 -7 672 -6 b 671 17 671 4 671 10 z m 637 77 b 643 -27 640 43 641 8 b 637 77 626 6 634 42 z m 603 93 b 611 -38 608 45 604 3 b 603 93 597 3 600 44 z "},"Ü":{"ha":833,"x_min":0,"x_max":0,"o":"m 702 97 b 1061 969 758 408 915 689 b 1001 1069 1087 1020 1045 1057 b 931 1045 966 1078 947 1070 b 589 463 812 853 698 660 b 326 61 512 322 435 178 b 319 59 324 59 322 58 b 314 63 317 59 315 61 b 314 176 306 100 305 139 b 605 895 362 432 466 675 b 621 998 624 925 646 961 b 435 1035 584 1053 491 1050 b 54 697 280 991 133 837 b 66 407 6 611 -44 458 b 188 447 107 389 164 409 b 190 449 189 447 189 448 b 176 446 198 463 194 454 b 108 506 132 425 93 460 b 429 892 155 653 284 803 b 176 248 320 687 222 475 b 203 3 161 175 142 61 b 415 47 278 -69 364 -13 b 619 352 489 133 562 254 b 564 11 587 242 558 125 b 677 -167 568 -59 593 -156 b 802 -86 732 -174 780 -131 b 810 -64 806 -77 816 -57 b 771 -102 800 -80 787 -93 b 699 -43 729 -119 707 -77 b 702 97 688 3 694 52 z m 908 755 b 946 831 921 780 934 806 l 953 828 b 908 755 942 801 927 777 z m 958 970 b 942 938 957 958 951 947 b 958 970 943 951 949 962 z m 933 918 l 813 697 b 933 918 816 731 887 867 z m 799 679 b 790 662 806 668 793 666 z m 106 730 b 86 697 103 717 96 705 b 106 730 86 711 98 720 z m 85 694 b 63 658 81 681 73 668 b 85 694 68 671 70 687 z m 62 574 b 110 672 67 611 84 645 z m 130 761 b 133 772 122 765 132 768 b 138 774 134 773 137 773 b 130 761 139 767 133 759 z m 164 802 b 155 795 162 799 161 794 b 157 800 156 797 156 799 b 163 806 158 803 161 805 b 164 802 166 807 167 804 z m 194 107 b 213 275 186 165 198 221 b 194 107 204 219 201 163 z m 253 261 b 231 134 244 219 238 177 b 281 384 225 222 252 303 b 253 262 271 343 261 302 z m 339 555 b 352 585 339 566 344 577 b 339 555 354 573 349 562 z m 485 919 b 464 886 480 907 478 893 b 485 919 464 902 475 910 z m 463 884 b 438 841 460 867 451 852 b 463 884 441 858 449 874 z m 437 838 b 395 760 429 809 410 785 b 437 838 406 787 414 817 z m 376 723 b 367 703 380 715 374 711 b 376 723 368 715 370 720 z m 357 607 b 539 948 407 726 468 840 b 547 958 541 951 544 955 b 552 960 548 959 550 959 b 545 940 557 951 549 946 b 367 609 477 835 418 724 b 352 587 363 601 362 591 b 357 608 352 594 354 601 z m 339 553 b 327 521 340 541 336 529 b 339 553 325 533 330 545 z m 327 518 b 308 469 324 501 317 484 b 327 518 307 487 314 505 z m 307 466 b 291 412 304 447 298 429 b 307 466 289 431 294 451 z m 285 127 b 283 131 284 129 283 130 b 284 137 283 133 283 135 b 286 133 284 136 285 135 b 285 127 285 131 285 129 z m 295 196 b 291 167 294 186 293 177 b 296 196 288 177 289 188 z m 296 200 b 298 235 293 211 294 224 b 296 200 301 223 300 211 z m 299 238 b 303 258 300 244 301 251 b 299 238 307 249 307 242 z m 671 17 b 674 20 671 18 673 18 b 675 10 674 16 675 13 b 672 -5 675 5 678 -2 b 672 -3 669 -7 672 -6 b 671 17 671 4 671 10 z m 637 77 b 643 -27 640 43 641 8 b 637 77 626 6 634 42 z m 603 93 b 611 -38 608 45 604 3 b 603 93 597 3 600 44 z "},"V":{"ha":761,"x_min":0,"x_max":0,"o":"m 332 248 b 624 918 397 484 496 710 b 598 1026 650 960 638 1009 b 328 985 505 1066 410 1038 b 54 689 214 910 120 808 b 38 423 14 617 -36 499 b 186 428 76 385 148 397 b 205 446 194 434 216 453 b 147 438 188 436 166 433 b 114 481 127 444 114 461 b 164 617 111 525 141 581 b 362 844 218 703 285 779 b 428 890 382 863 404 878 b 421 865 438 894 425 872 b 234 447 346 731 284 591 b 185 21 190 317 139 158 b 416 8 224 -93 351 -51 b 934 708 624 197 793 460 b 1070 971 983 794 1027 882 b 1080 1000 1075 980 1084 988 b 1059 1007 1076 1013 1066 1006 b 1058 1010 1059 1007 1058 1009 b 1037 1009 1049 1034 1043 1020 b 1027 992 1034 1004 1031 999 b 1032 1021 1024 1006 1030 1013 b 1019 1040 1035 1033 1028 1037 b 984 1039 1008 1043 997 1035 b 961 1016 973 1042 966 1025 b 898 911 940 980 918 946 b 362 121 734 626 590 351 b 323 87 350 108 337 97 b 316 86 321 85 318 85 b 313 91 314 87 313 89 b 332 248 312 144 318 197 z m 303 217 b 304 241 301 225 301 233 b 303 218 308 234 307 225 b 297 178 301 205 299 192 b 292 144 295 166 294 155 b 297 177 288 155 290 168 b 303 217 295 191 290 205 z m 601 292 b 584 269 601 280 592 275 b 601 291 585 279 592 288 b 621 317 603 303 610 313 b 640 343 622 329 629 339 b 660 369 641 355 649 365 b 689 414 662 389 678 400 b 659 370 686 396 675 380 b 640 344 659 358 651 348 b 601 292 627 327 614 309 z m 137 768 b 120 745 137 758 133 752 b 138 767 125 757 129 764 b 154 787 140 776 146 783 b 137 768 150 777 146 770 z m 588 226 b 605 248 589 237 597 243 b 588 227 603 238 599 229 b 561 194 585 212 575 200 b 531 157 558 176 545 167 b 562 193 537 173 548 185 b 588 226 565 208 575 220 z m 407 29 b 358 -5 395 12 376 4 b 404 32 371 10 387 22 l 515 133 b 407 29 486 103 452 61 z m 323 491 b 339 547 317 513 332 529 b 553 962 393 694 465 833 b 549 939 561 949 553 945 b 353 568 473 821 408 697 b 338 548 350 561 352 548 b 322 492 344 526 328 510 b 259 274 299 420 274 348 b 233 130 250 226 242 178 b 243 248 230 169 234 209 b 310 476 260 326 282 402 b 323 491 312 481 311 492 z m 220 289 b 200 105 212 228 201 167 b 220 289 189 168 203 229 z m 72 585 b 109 661 75 614 88 641 l 72 585 z m 396 754 b 433 831 405 781 418 806 b 396 754 432 811 423 792 z m 412 80 b 337 20 390 46 364 25 z m 67 650 b 103 712 72 674 84 696 z m 447 849 b 482 908 454 871 466 891 b 447 849 474 886 462 866 z m 483 144 l 478 148 l 510 185 l 515 180 z m 369 700 b 381 727 370 710 374 719 b 369 700 380 715 380 715 z m 526 197 b 548 227 529 209 537 216 b 526 198 545 215 537 204 z m 534 816 b 517 789 532 805 525 796 b 534 816 519 800 525 809 z m 175 814 b 180 821 177 816 178 819 b 184 821 182 824 184 823 b 179 814 183 818 181 816 z m 329 606 b 337 631 327 615 331 624 b 329 606 341 622 334 617 z m 635 288 b 614 258 631 276 624 265 b 635 288 617 270 624 281 z m 559 236 b 572 257 560 245 565 253 b 559 236 574 245 563 242 z m 48 622 b 51 620 50 624 52 623 b 49 614 51 618 50 616 b 44 614 47 612 44 612 b 48 622 45 617 46 619 z "},"W":{"ha":1083,"x_min":0,"x_max":0,"o":"m 1301 1002 b 1288 1008 1300 1009 1296 1013 b 1276 996 1282 1005 1285 995 b 1270 1024 1273 1005 1282 1017 b 1255 999 1259 1018 1258 1008 b 1213 884 1241 961 1226 922 b 1155 740 1195 835 1175 788 b 1125 672 1145 717 1135 694 b 1065 539 1106 627 1086 582 b 1045 502 1060 526 1053 513 b 1041 495 1044 500 1043 498 b 1059 546 1041 514 1052 530 b 1166 787 1097 625 1133 705 b 1220 926 1184 833 1205 879 b 1250 1019 1230 957 1240 988 b 1246 1039 1253 1026 1255 1034 b 1225 1038 1240 1043 1231 1043 b 1218 1032 1222 1036 1220 1034 b 1211 1029 1216 1030 1216 1026 b 1192 1025 1197 1035 1197 1034 b 1182 1001 1189 1017 1186 1009 b 995 557 1126 850 1066 702 b 778 184 931 428 863 301 b 709 111 765 166 724 115 b 695 142 695 108 695 133 b 825 736 707 337 760 559 b 824 805 836 768 855 803 b 753 744 786 806 767 771 b 322 -12 640 520 478 182 b 297 -28 311 -26 298 -34 b 308 127 288 22 296 79 b 628 922 367 376 490 709 b 639 977 640 938 644 958 b 603 1020 634 996 621 1012 b 178 857 446 1095 280 967 b 0 533 101 773 7 652 b 195 433 -6 411 126 360 b 208 449 200 438 204 443 b 188 437 202 444 195 439 b 142 440 173 430 156 432 b 117 478 128 448 119 462 b 168 621 110 521 146 586 b 365 845 222 705 288 781 b 433 893 385 864 408 880 b 426 870 436 882 429 876 b 151 64 302 650 170 318 b 191 -123 146 4 152 -78 b 364 -101 245 -185 323 -155 b 651 367 457 21 576 227 b 637 68 623 236 617 139 b 718 -5 649 29 677 -2 b 936 168 819 -11 890 95 b 1319 967 1095 418 1224 686 b 1301 1002 1323 978 1303 989 z m 101 712 b 84 680 98 700 92 689 b 101 712 82 692 89 699 z m 82 678 b 53 626 75 659 65 642 b 82 678 62 644 63 666 z m 71 580 b 66 582 70 578 68 578 b 108 654 73 609 88 634 b 71 580 96 629 84 605 z m 122 738 b 144 768 123 751 131 763 z m 159 795 l 172 811 b 159 795 172 802 168 796 z m 301 173 b 308 212 300 187 289 202 b 301 173 303 200 300 187 z m 502 756 b 517 782 503 766 508 775 b 502 756 515 771 510 762 z m 492 916 l 433 813 b 492 916 445 852 465 887 z m 557 964 b 554 943 561 957 560 948 b 364 589 481 830 417 712 b 348 566 360 580 362 567 b 557 964 402 706 472 840 z m 346 647 b 338 624 349 638 343 633 b 346 647 338 632 341 641 z m 347 564 b 337 531 353 550 346 540 b 347 564 335 544 343 553 z m 336 529 b 320 484 338 512 326 499 b 336 529 320 500 326 517 z m 308 213 b 306 242 304 222 303 233 b 308 213 312 231 306 222 z m 307 453 b 292 401 307 435 302 416 b 307 453 289 421 300 436 z m 237 341 b 227 302 236 328 233 314 b 237 341 225 316 229 330 z m 209 236 b 227 298 214 257 212 280 b 203 103 216 233 203 169 b 209 236 195 147 197 193 z m 236 127 b 254 285 231 181 242 233 b 279 375 261 315 270 345 b 291 399 282 383 280 395 b 265 293 287 363 273 328 b 236 127 253 238 247 182 z m 301 173 b 291 136 293 163 299 150 b 301 173 295 151 285 165 z m 802 111 b 814 126 801 120 810 122 b 802 111 812 119 810 112 z m 827 101 l 847 124 b 827 101 846 113 838 103 z m 1002 430 l 1009 427 b 968 367 999 405 985 384 z m 960 344 b 942 313 957 332 951 321 b 960 344 944 325 950 336 z m 946 260 b 962 289 945 272 952 283 b 946 260 963 276 952 269 z m 963 291 b 987 334 966 308 975 323 b 963 291 985 317 976 302 z m 989 337 b 1018 391 993 358 1007 373 b 989 337 1015 370 1004 351 z m 1034 410 l 1028 412 l 1068 494 l 1074 491 z m 1108 565 b 1123 602 1107 579 1113 592 b 1107 565 1121 589 1115 576 z m 1141 639 b 1148 664 1137 651 1145 655 b 1141 639 1152 652 1145 647 z m 1161 686 b 1169 713 1157 696 1165 701 b 1161 686 1170 703 1167 693 z m 1180 731 b 1188 760 1181 741 1183 751 b 1180 731 1193 750 1187 743 z m 1189 763 b 1204 789 1192 773 1197 782 b 1189 763 1200 776 1201 766 z m 1246 902 b 1253 927 1242 910 1249 915 b 1246 902 1254 918 1252 909 z "},"X":{"ha":771,"x_min":0,"x_max":0,"o":"m 1039 1075 b 1027 1075 1035 1076 1031 1076 b 1016 1083 1020 1074 1017 1076 b 984 1095 1012 1105 999 1095 b 950 1109 974 1094 969 1120 b 927 1087 941 1104 933 1096 b 761 854 872 1009 817 931 b 613 644 712 784 662 714 b 592 631 608 638 602 630 b 592 686 592 649 592 667 b 586 965 590 779 588 872 b 529 1038 588 1000 564 1031 b 239 906 420 1070 308 984 b 85 484 135 789 55 623 b 300 446 107 379 240 366 b 310 467 305 453 322 485 b 273 442 301 454 288 445 b 213 598 186 425 191 525 b 396 890 240 691 314 812 b 432 908 411 904 434 925 b 433 501 416 773 423 637 b 421 368 436 462 448 408 b 421 368 421 368 421 368 b 268 157 371 296 320 227 b 27 -186 185 44 105 -71 b 2 -232 17 -201 9 -216 b 14 -260 -4 -246 3 -262 b 42 -273 28 -258 38 -255 b 47 -276 42 -274 46 -276 b 82 -290 66 -261 72 -279 b 98 -293 87 -293 92 -294 b 188 -201 129 -289 164 -233 b 437 129 271 -92 355 20 b 482 179 444 138 473 179 b 515 115 494 179 510 127 b 713 -157 550 29 597 -147 b 823 -80 762 -161 803 -134 b 689 42 755 -122 712 -19 b 637 217 668 99 651 158 b 634 388 625 268 605 340 b 636 390 635 389 635 389 b 941 846 730 535 838 695 b 1059 1026 982 906 1019 962 b 1039 1075 1069 1042 1056 1067 z m 175 746 b 167 715 172 736 169 725 b 175 746 162 726 165 739 z m 158 705 b 166 713 159 709 162 712 b 135 568 152 666 145 617 b 158 705 136 615 144 661 z m 169 547 b 182 645 162 580 167 615 z m 482 963 b 488 464 473 797 481 630 b 482 963 460 513 456 900 z m 556 764 b 561 577 560 705 561 645 b 556 764 552 612 550 720 z m 540 168 l 548 171 b 586 72 560 138 572 104 b 633 -27 600 38 617 6 b 540 168 584 30 560 98 z m 648 81 b 655 64 652 77 655 71 b 647 70 649 61 649 68 b 648 81 645 74 643 78 z m 641 18 b 567 209 609 48 564 167 b 573 207 569 208 572 208 b 641 18 594 144 613 79 z m 696 693 b 678 669 694 683 687 674 b 696 693 679 679 685 689 z m 676 667 b 650 630 674 650 661 641 b 676 667 655 645 660 660 z m 754 623 b 776 654 758 636 765 647 b 755 623 772 642 765 631 z m 642 537 b 848 829 704 638 773 736 b 642 537 787 726 715 631 z m 870 933 b 716 714 819 860 768 787 b 697 695 711 706 707 697 b 707 717 696 704 702 710 b 868 946 761 793 814 870 b 881 955 871 950 873 955 b 870 933 881 945 874 939 z "},"Y":{"ha":908,"x_min":0,"x_max":0,"o":"m 1135 1004 b 1034 1067 1118 1044 1071 1063 b 956 999 999 1072 971 1027 b 453 152 797 713 631 426 b 380 64 432 120 408 90 b 370 61 377 61 373 60 b 362 69 366 62 363 65 b 360 96 360 78 359 87 b 378 240 360 145 366 193 b 472 537 401 342 433 441 b 672 919 526 670 593 798 b 684 979 684 936 689 958 b 649 1030 680 1000 667 1019 b 376 985 594 1063 457 1038 b 102 689 261 910 167 809 b 87 418 61 617 -2 481 b 236 431 132 385 195 402 b 253 446 243 437 261 450 b 201 431 237 437 219 432 b 159 479 169 434 159 455 b 211 617 159 523 188 581 b 410 844 265 703 332 779 b 476 890 429 863 452 879 b 468 865 480 878 472 872 b 281 447 394 732 331 592 b 217 166 250 356 224 263 b 312 -20 211 88 218 -4 b 505 94 391 -33 462 37 b 661 335 561 172 613 252 b 687 359 667 345 675 359 b 682 322 699 359 687 333 b 567 83 650 255 613 167 b 176 -296 482 -73 347 -284 b 98 16 -6 -310 0 -110 b 107 29 101 20 104 24 b 98 23 111 33 101 25 b 4 -149 49 -23 16 -83 b 195 -381 -22 -289 78 -374 b 591 -112 371 -392 504 -252 b 1126 956 820 258 939 564 b 1135 1004 1132 969 1142 990 z m 93 613 b 93 617 92 612 91 615 b 96 622 93 619 95 621 b 99 618 98 624 99 622 b 93 613 97 617 96 614 z m 151 713 l 114 650 b 151 713 119 675 132 697 z m 119 586 b 157 660 122 614 135 641 z m 167 745 b 185 767 172 756 177 763 b 167 745 184 758 180 751 z m 186 769 b 201 787 188 777 194 783 b 186 769 197 778 194 771 z m 229 818 b 224 813 228 816 226 814 b 224 818 222 813 222 816 b 229 822 226 819 227 822 b 229 818 232 824 233 822 z m 564 789 b 582 817 567 800 573 809 b 564 789 579 806 573 796 z m 601 962 b 597 939 609 950 600 945 b 401 569 521 822 455 698 b 386 548 398 561 399 549 b 601 962 441 695 513 833 z m 529 908 b 495 849 521 886 509 867 b 529 908 502 871 513 891 z m 487 828 l 446 752 b 487 828 452 781 466 807 z m 430 728 b 417 700 430 717 425 707 b 430 728 418 710 422 720 z m 376 615 b 382 629 378 620 380 625 b 386 629 384 632 387 631 b 381 614 385 624 383 619 b 378 610 380 613 379 611 b 376 615 377 613 376 615 z m 385 546 b 370 494 390 526 376 511 b 385 546 366 514 378 529 z m 248 94 b 268 289 237 161 249 225 b 248 94 256 225 249 159 z m 306 274 b 280 130 297 226 290 178 b 291 248 278 170 281 210 b 358 476 307 326 330 402 b 369 492 360 481 359 491 b 306 274 346 419 321 348 z m 350 216 b 345 179 348 204 347 191 b 350 216 342 192 338 205 z m 343 173 b 340 143 340 163 342 153 b 343 173 337 160 337 162 z m 350 219 b 352 245 348 227 349 236 b 350 219 355 236 354 227 z m 1032 962 b 1015 931 1030 950 1024 939 b 1032 962 1015 944 1022 955 z m 347 -284 b 355 -273 345 -277 351 -276 b 365 -272 358 -271 361 -267 b 347 -284 360 -278 354 -282 z m 373 -263 b 403 -238 381 -253 392 -244 b 373 -263 396 -251 396 -251 z m 269 -305 b 468 -146 342 -261 409 -207 b 269 -305 424 -210 325 -288 z m 607 -13 b 584 -48 600 -25 592 -36 b 511 -145 562 -82 537 -115 b 456 -198 494 -164 475 -181 b 434 -212 451 -205 443 -210 b 465 -180 443 -200 454 -190 b 575 -46 506 -139 543 -94 b 589 -26 580 -39 585 -33 b 614 9 597 -14 605 -2 b 617 14 614 10 616 13 b 607 -13 616 4 612 -5 z m 731 222 b 681 116 712 180 702 160 b 661 76 674 103 668 89 b 629 33 652 60 641 46 b 677 133 646 66 662 99 b 723 227 688 160 714 207 b 730 237 724 230 726 236 b 731 221 741 240 732 224 z m 865 655 l 875 676 b 865 655 878 666 872 660 z m 876 678 b 888 702 878 687 882 695 b 887 687 890 697 890 692 b 876 678 885 683 881 679 z m 904 721 b 889 704 900 714 900 704 b 985 889 915 769 946 831 b 1013 928 993 903 997 921 b 968 840 1000 898 985 869 b 904 721 947 800 926 760 z m 977 731 b 983 758 977 743 985 750 b 977 731 990 749 987 741 z m 991 758 b 983 759 990 756 986 758 b 1009 802 997 770 1000 788 b 1029 836 1014 814 1021 825 b 991 758 1027 818 1002 767 z m 1033 964 b 1050 991 1033 976 1043 983 b 1033 964 1048 980 1043 970 z "},"Ý":{"ha":908,"x_min":0,"x_max":0,"o":"m 1135 1004 b 1034 1067 1118 1044 1071 1063 b 956 999 999 1072 971 1027 b 453 152 797 713 631 426 b 380 64 432 120 408 90 b 370 61 377 61 373 60 b 362 69 366 62 363 65 b 360 96 360 78 359 87 b 378 240 360 145 366 193 b 472 537 401 342 433 441 b 672 919 526 670 593 798 b 684 979 684 936 689 958 b 649 1030 680 1000 667 1019 b 376 985 594 1063 457 1038 b 102 689 261 910 167 809 b 87 418 61 617 -2 481 b 236 431 132 385 195 402 b 253 446 243 437 261 450 b 201 431 237 437 219 432 b 159 479 169 434 159 455 b 211 617 159 523 188 581 b 410 844 265 703 332 779 b 476 890 429 863 452 879 b 468 865 480 878 472 872 b 281 447 394 732 331 592 b 217 166 250 356 224 263 b 312 -20 211 88 218 -4 b 505 94 391 -33 462 37 b 661 335 561 172 613 252 b 687 359 667 345 675 359 b 682 322 699 359 687 333 b 567 83 650 255 613 167 b 176 -296 482 -73 347 -284 b 98 16 -6 -310 0 -110 b 107 29 101 20 104 24 b 98 23 111 33 101 25 b 4 -149 49 -23 16 -83 b 195 -381 -22 -289 78 -374 b 591 -112 371 -392 504 -252 b 1126 956 820 258 939 564 b 1135 1004 1132 969 1142 990 z m 93 613 b 93 617 92 612 91 615 b 96 622 93 619 95 621 b 99 618 98 624 99 622 b 93 613 97 617 96 614 z m 151 713 l 114 650 b 151 713 119 675 132 697 z m 119 586 b 157 660 122 614 135 641 z m 167 745 b 185 767 172 756 177 763 b 167 745 184 758 180 751 z m 186 769 b 201 787 188 777 194 783 b 186 769 197 778 194 771 z m 229 818 b 224 813 228 816 226 814 b 224 818 222 813 222 816 b 229 822 226 819 227 822 b 229 818 232 824 233 822 z m 564 789 b 582 817 567 800 573 809 b 564 789 579 806 573 796 z m 601 962 b 597 939 609 950 600 945 b 401 569 521 822 455 698 b 386 548 398 561 399 549 b 601 962 441 695 513 833 z m 529 908 b 495 849 521 886 509 867 b 529 908 502 871 513 891 z m 487 828 l 446 752 b 487 828 452 781 466 807 z m 430 728 b 417 700 430 717 425 707 b 430 728 418 710 422 720 z m 376 615 b 382 629 378 620 380 625 b 386 629 384 632 387 631 b 381 614 385 624 383 619 b 378 610 380 613 379 611 b 376 615 377 613 376 615 z m 385 546 b 370 494 390 526 376 511 b 385 546 366 514 378 529 z m 248 94 b 268 289 237 161 249 225 b 248 94 256 225 249 159 z m 306 274 b 280 130 297 226 290 178 b 291 248 278 170 281 210 b 358 476 307 326 330 402 b 369 492 360 481 359 491 b 306 274 346 419 321 348 z m 350 216 b 345 179 348 204 347 191 b 350 216 342 192 338 205 z m 343 173 b 340 143 340 163 342 153 b 343 173 337 160 337 162 z m 350 219 b 352 245 348 227 349 236 b 350 219 355 236 354 227 z m 1032 962 b 1015 931 1030 950 1024 939 b 1032 962 1015 944 1022 955 z m 347 -284 b 355 -273 345 -277 351 -276 b 365 -272 358 -271 361 -267 b 347 -284 360 -278 354 -282 z m 373 -263 b 403 -238 381 -253 392 -244 b 373 -263 396 -251 396 -251 z m 269 -305 b 468 -146 342 -261 409 -207 b 269 -305 424 -210 325 -288 z m 607 -13 b 584 -48 600 -25 592 -36 b 511 -145 562 -82 537 -115 b 456 -198 494 -164 475 -181 b 434 -212 451 -205 443 -210 b 465 -180 443 -200 454 -190 b 575 -46 506 -139 543 -94 b 589 -26 580 -39 585 -33 b 614 9 597 -14 605 -2 b 617 14 614 10 616 13 b 607 -13 616 4 612 -5 z m 731 222 b 681 116 712 180 702 160 b 661 76 674 103 668 89 b 629 33 652 60 641 46 b 677 133 646 66 662 99 b 723 227 688 160 714 207 b 730 237 724 230 726 236 b 731 221 741 240 732 224 z m 865 655 l 875 676 b 865 655 878 666 872 660 z m 876 678 b 888 702 878 687 882 695 b 887 687 890 697 890 692 b 876 678 885 683 881 679 z m 904 721 b 889 704 900 714 900 704 b 985 889 915 769 946 831 b 1013 928 993 903 997 921 b 968 840 1000 898 985 869 b 904 721 947 800 926 760 z m 977 731 b 983 758 977 743 985 750 b 977 731 990 749 987 741 z m 991 758 b 983 759 990 756 986 758 b 1009 802 997 770 1000 788 b 1029 836 1014 814 1021 825 b 991 758 1027 818 1002 767 z m 1033 964 b 1050 991 1033 976 1043 983 b 1033 964 1048 980 1043 970 z "},"Ÿ":{"ha":908,"x_min":0,"x_max":0,"o":"m 1135 1004 b 1034 1067 1118 1044 1071 1063 b 956 999 999 1072 971 1027 b 453 152 797 713 631 426 b 380 64 432 120 408 90 b 370 61 377 61 373 60 b 362 69 366 62 363 65 b 360 96 360 78 359 87 b 378 240 360 145 366 193 b 472 537 401 342 433 441 b 672 919 526 670 593 798 b 684 979 684 936 689 958 b 649 1030 680 1000 667 1019 b 376 985 594 1063 457 1038 b 102 689 261 910 167 809 b 87 418 61 617 -2 481 b 236 431 132 385 195 402 b 253 446 243 437 261 450 b 201 431 237 437 219 432 b 159 479 169 434 159 455 b 211 617 159 523 188 581 b 410 844 265 703 332 779 b 476 890 429 863 452 879 b 468 865 480 878 472 872 b 281 447 394 732 331 592 b 217 166 250 356 224 263 b 312 -20 211 88 218 -4 b 505 94 391 -33 462 37 b 661 335 561 172 613 252 b 687 359 667 345 675 359 b 682 322 699 359 687 333 b 567 83 650 255 613 167 b 176 -296 482 -73 347 -284 b 98 16 -6 -310 0 -110 b 107 29 101 20 104 24 b 98 23 111 33 101 25 b 4 -149 49 -23 16 -83 b 195 -381 -22 -289 78 -374 b 591 -112 371 -392 504 -252 b 1126 956 820 258 939 564 b 1135 1004 1132 969 1142 990 z m 93 613 b 93 617 92 612 91 615 b 96 622 93 619 95 621 b 99 618 98 624 99 622 b 93 613 97 617 96 614 z m 151 713 l 114 650 b 151 713 119 675 132 697 z m 119 586 b 157 660 122 614 135 641 z m 167 745 b 185 767 172 756 177 763 b 167 745 184 758 180 751 z m 186 769 b 201 787 188 777 194 783 b 186 769 197 778 194 771 z m 229 818 b 224 813 228 816 226 814 b 224 818 222 813 222 816 b 229 822 226 819 227 822 b 229 818 232 824 233 822 z m 564 789 b 582 817 567 800 573 809 b 564 789 579 806 573 796 z m 601 962 b 597 939 609 950 600 945 b 401 569 521 822 455 698 b 386 548 398 561 399 549 b 601 962 441 695 513 833 z m 529 908 b 495 849 521 886 509 867 b 529 908 502 871 513 891 z m 487 828 l 446 752 b 487 828 452 781 466 807 z m 430 728 b 417 700 430 717 425 707 b 430 728 418 710 422 720 z m 376 615 b 382 629 378 620 380 625 b 386 629 384 632 387 631 b 381 614 385 624 383 619 b 378 610 380 613 379 611 b 376 615 377 613 376 615 z m 385 546 b 370 494 390 526 376 511 b 385 546 366 514 378 529 z m 248 94 b 268 289 237 161 249 225 b 248 94 256 225 249 159 z m 306 274 b 280 130 297 226 290 178 b 291 248 278 170 281 210 b 358 476 307 326 330 402 b 369 492 360 481 359 491 b 306 274 346 419 321 348 z m 350 216 b 345 179 348 204 347 191 b 350 216 342 192 338 205 z m 343 173 b 340 143 340 163 342 153 b 343 173 337 160 337 162 z m 350 219 b 352 245 348 227 349 236 b 350 219 355 236 354 227 z m 1032 962 b 1015 931 1030 950 1024 939 b 1032 962 1015 944 1022 955 z m 347 -284 b 355 -273 345 -277 351 -276 b 365 -272 358 -271 361 -267 b 347 -284 360 -278 354 -282 z m 373 -263 b 403 -238 381 -253 392 -244 b 373 -263 396 -251 396 -251 z m 269 -305 b 468 -146 342 -261 409 -207 b 269 -305 424 -210 325 -288 z m 607 -13 b 584 -48 600 -25 592 -36 b 511 -145 562 -82 537 -115 b 456 -198 494 -164 475 -181 b 434 -212 451 -205 443 -210 b 465 -180 443 -200 454 -190 b 575 -46 506 -139 543 -94 b 589 -26 580 -39 585 -33 b 614 9 597 -14 605 -2 b 617 14 614 10 616 13 b 607 -13 616 4 612 -5 z m 731 222 b 681 116 712 180 702 160 b 661 76 674 103 668 89 b 629 33 652 60 641 46 b 677 133 646 66 662 99 b 723 227 688 160 714 207 b 730 237 724 230 726 236 b 731 221 741 240 732 224 z m 865 655 l 875 676 b 865 655 878 666 872 660 z m 876 678 b 888 702 878 687 882 695 b 887 687 890 697 890 692 b 876 678 885 683 881 679 z m 904 721 b 889 704 900 714 900 704 b 985 889 915 769 946 831 b 1013 928 993 903 997 921 b 968 840 1000 898 985 869 b 904 721 947 800 926 760 z m 977 731 b 983 758 977 743 985 750 b 977 731 990 749 987 741 z m 991 758 b 983 759 990 756 986 758 b 1009 802 997 770 1000 788 b 1029 836 1014 814 1021 825 b 991 758 1027 818 1002 767 z m 1033 964 b 1050 991 1033 976 1043 983 b 1033 964 1048 980 1043 970 z "},"Z":{"ha":1079,"x_min":0,"x_max":0,"o":"m 1144 922 b 1136 938 1131 924 1131 926 b 1124 983 1145 954 1139 974 b 1105 987 1118 986 1110 984 b 1108 1003 1097 993 1112 997 b 1082 1018 1102 1013 1095 1021 b 1059 1011 1075 1016 1069 1014 b 1055 1044 1075 1032 1073 1040 b 1031 1037 1047 1045 1038 1042 b 760 995 966 1004 832 993 b 552 1052 687 998 615 1013 b 530 1054 546 1057 537 1057 b 563 973 508 1042 537 1000 b 761 863 612 925 678 876 b 501 608 668 806 569 707 b 464 525 484 583 464 557 b 473 498 463 514 462 498 b 488 481 488 497 489 492 b 495 468 487 475 491 468 b 515 447 510 467 512 460 b 535 443 518 434 521 445 b 550 442 540 442 549 445 b 592 445 566 416 579 436 b 781 555 651 488 714 525 b 893 509 839 579 890 563 b 765 252 898 432 830 339 b 194 -269 617 57 421 -164 b 145 -163 133 -298 133 -217 b 386 190 172 -34 288 110 b 542 235 404 204 513 292 b 543 169 550 221 555 189 b 559 191 537 158 551 177 b 573 289 578 220 583 255 b 319 316 543 385 420 381 b 22 -80 180 226 80 81 b 127 -389 -20 -196 -11 -372 b 354 -330 206 -398 284 -364 b 735 -47 498 -260 621 -158 b 1036 330 851 65 957 189 b 1007 625 1092 429 1112 563 b 831 650 959 653 885 657 b 728 627 796 647 761 639 b 744 653 712 621 730 642 b 1094 889 848 742 976 833 b 1143 913 1114 899 1130 907 b 1144 922 1148 915 1152 922 z m 345 259 b 322 237 341 249 332 241 b 345 259 324 250 334 255 z m 320 236 b 299 216 314 228 307 221 b 320 236 304 229 310 235 z m 283 253 b 291 258 286 255 288 257 b 291 254 291 257 291 254 b 284 249 289 252 286 250 b 283 253 282 250 281 252 z m 230 194 b 211 173 224 187 217 180 b 230 194 213 183 220 191 z m 886 379 b 842 309 878 352 862 328 b 886 379 851 336 866 359 z m 841 308 b 816 271 839 293 829 279 b 841 308 818 286 827 300 z m 750 185 b 775 218 754 199 763 211 b 815 268 783 238 797 256 b 777 217 807 248 794 230 b 750 185 773 203 763 191 b 718 147 745 168 734 155 b 750 185 724 163 735 176 z m 717 145 b 682 103 711 126 695 116 b 717 145 689 120 701 135 z m 660 71 b 558 -21 628 39 593 8 z m 502 -155 b 471 -179 496 -167 484 -177 b 502 -155 477 -167 488 -158 z m 469 -181 b 448 -197 466 -189 457 -196 b 469 -181 453 -189 458 -180 z m 348 -263 b 318 -282 340 -273 330 -280 b 348 -263 325 -273 336 -266 z m 296 -291 b 202 -332 270 -314 237 -329 z m 235 -354 b 261 -343 241 -347 251 -343 b 235 -354 255 -353 245 -354 z m 1054 464 b 1035 399 1053 441 1047 419 b 919 211 1003 333 964 270 b 495 -214 799 50 656 -93 b 295 -334 432 -260 365 -300 b 263 -343 285 -341 274 -344 b 358 -291 294 -326 327 -309 b 710 -14 489 -217 604 -120 b 989 340 817 93 913 209 b 1054 464 1013 380 1032 422 z m 991 432 b 981 399 991 420 988 409 b 827 162 940 314 888 234 b 534 -134 740 54 642 -45 b 503 -154 525 -141 517 -153 b 527 -129 506 -141 518 -137 b 925 320 680 1 814 152 b 991 432 948 356 968 393 z m 888 381 b 908 419 887 397 901 406 b 888 381 906 404 898 391 z m 568 601 b 803 849 584 664 740 829 b 568 601 714 776 630 699 z m 854 843 b 877 843 861 849 871 849 b 638 634 791 781 710 712 b 854 843 695 720 772 784 z m 747 582 l 692 555 b 747 582 706 571 726 580 z m 658 599 b 993 863 677 653 911 838 b 658 599 873 788 758 705 z "},"[":{"ha":428,"x_min":0,"x_max":0,"o":"m 701 1033 b 673 1043 698 1046 683 1043 b 565 1044 637 1044 601 1044 b 471 1047 534 1047 502 1045 b 427 1018 451 1050 432 1038 b 368 863 407 966 387 915 b 232 490 323 739 277 615 b 47 -7 172 324 109 158 b 42 -45 43 -19 41 -32 b 72 -77 43 -68 51 -76 b 270 -87 138 -81 204 -84 b 280 -87 274 -88 277 -88 b 306 -44 297 -84 306 -69 b 281 -13 306 -21 302 -16 b 174 -6 246 -7 210 -9 b 156 20 147 -5 147 -4 b 327 474 213 171 269 323 b 497 928 384 625 443 775 b 540 960 507 958 507 958 b 654 963 578 961 616 962 b 697 984 671 963 687 970 b 701 1033 706 999 708 1017 z "},"\\":{"ha":592,"x_min":0,"x_max":0,"o":"m 520 54 b 445 265 498 125 471 195 b 193 931 361 487 277 709 b 159 1023 181 961 171 992 b 115 1040 153 1040 129 1051 b 85 1028 106 1034 96 1030 b 73 1000 66 1023 68 1015 b 247 531 131 844 189 687 b 336 286 277 449 306 367 b 439 19 369 197 401 107 b 468 -1 444 6 449 -9 b 501 6 481 -8 490 4 b 520 54 519 10 526 33 z "},"]":{"ha":500,"x_min":0,"x_max":0,"o":"m 619 1048 b 424 1049 554 1049 489 1048 b 407 1048 418 1049 413 1049 b 400 1036 401 1047 394 1045 l 384 1008 b 375 997 379 1008 374 1002 b 380 968 376 987 378 977 b 406 960 382 960 396 960 b 429 960 414 959 421 960 b 544 963 467 961 505 966 b 541 941 546 955 545 948 b 376 493 485 792 429 643 b 205 29 320 337 262 183 b 154 -3 192 -7 192 -6 b 37 3 115 -1 76 1 b 18 -13 25 4 12 7 b 14 -32 1 -17 18 -31 b 5 -62 -11 -36 5 -52 b 28 -73 6 -77 19 -73 b 197 -84 84 -77 140 -81 b 281 -30 249 -87 262 -79 b 431 373 331 104 381 239 b 578 759 480 501 529 630 b 660 989 606 835 635 911 b 619 1048 674 1033 664 1047 z "},"^":{"ha":393,"x_min":0,"x_max":0,"o":"m 311 900 b 298 995 306 931 303 963 b 231 1072 292 1038 268 1059 b 190 1057 209 1079 201 1073 b 90 921 157 1011 123 966 b 69 885 82 909 69 899 b 93 854 72 871 81 859 b 97 846 95 853 95 848 b 153 843 113 821 135 820 b 214 920 172 870 193 896 b 220 883 215 908 217 895 b 265 810 226 854 242 828 b 324 818 284 796 321 782 b 311 900 326 845 315 874 z "},"_":{"ha":608,"x_min":0,"x_max":0,"o":"m 532 -110 b 498 -69 536 -70 535 -69 b 143 -70 379 -69 261 -68 b 36 -72 107 -70 71 -66 b 18 -92 21 -75 21 -74 b 15 -93 18 -92 16 -93 b 18 -108 -1 -102 4 -106 b 57 -110 31 -109 44 -110 b 249 -110 121 -110 185 -110 l 249 -111 b 54 -111 184 -111 119 -111 b 12 -114 40 -111 26 -113 b 1 -126 4 -115 -3 -120 b 29 -155 8 -138 9 -156 b 61 -157 40 -155 51 -157 b 208 -158 110 -157 159 -156 b 498 -159 305 -161 401 -159 b 537 -132 516 -160 532 -149 b 532 -110 542 -122 532 -117 z m 293 -85 l 293 -84 l 314 -84 l 314 -85 z m 365 -85 l 365 -84 l 382 -84 l 382 -85 z "},"`":{"ha":256,"x_min":0,"x_max":0,"o":"m 172 855 b 179 1037 122 909 141 981 b 167 1070 190 1053 185 1064 b 109 1057 147 1076 125 1072 b 162 837 32 989 77 871 b 186 835 166 835 183 828 b 186 839 186 836 186 838 b 172 855 184 845 177 851 z "},"a":{"ha":515,"x_min":0,"x_max":0,"o":"m 564 305 b 530 287 542 314 540 305 b 437 121 498 230 468 176 b 369 4 416 83 396 46 b 358 6 363 -7 359 -6 b 368 87 356 33 359 61 b 475 380 398 186 434 284 b 542 542 497 434 519 487 b 533 600 552 564 558 581 b 477 629 512 616 488 630 b 444 602 462 628 452 614 b 406 536 431 581 420 560 b 387 558 399 544 393 551 b 296 599 363 584 333 602 b 171 531 247 594 205 565 b 66 390 130 489 95 442 b -11 164 26 320 0 243 b 33 14 -17 112 -19 44 b 172 48 78 -12 126 -3 b 247 150 199 80 224 114 b 263 163 250 156 256 161 b 274 -14 251 104 247 41 b 410 -27 299 -66 378 -74 b 495 120 436 12 468 70 b 578 275 523 171 550 220 b 564 305 585 289 588 296 z m 21 182 b 11 137 18 169 15 157 b 45 282 13 187 24 237 b 50 284 45 283 48 283 b 21 182 40 250 30 216 z m 50 285 b 66 327 46 302 58 314 b 50 285 64 312 59 298 z m 392 443 b 371 395 389 426 382 409 b 392 443 373 413 381 429 z m 256 538 b 235 523 252 530 244 524 b 256 538 238 532 247 538 z m 217 538 l 182 507 b 217 538 188 520 189 521 z m 118 417 b 102 390 116 406 111 396 b 117 417 101 403 110 410 z m 80 347 b 101 388 82 368 82 370 b 80 347 98 372 86 361 z m 112 342 b 93 305 105 330 99 317 b 112 342 93 320 100 333 z m 281 88 b 281 124 277 100 277 112 z m 304 65 b 307 113 300 81 302 98 b 304 65 311 97 309 81 z m 260 249 b 139 85 226 190 185 135 b 99 59 132 78 109 53 b 93 80 94 64 91 72 b 159 288 99 141 129 222 b 270 473 189 353 226 416 b 366 520 286 493 339 548 b 358 428 394 492 370 458 b 260 249 331 365 298 305 z m 421 442 l 427 440 l 354 258 b 421 442 370 321 392 383 z "},"à":{"ha":515,"x_min":0,"x_max":0,"o":"m 564 305 b 530 287 542 314 540 305 b 437 121 498 230 468 176 b 369 4 416 83 396 46 b 358 6 363 -7 359 -6 b 368 87 356 33 359 61 b 475 380 398 186 434 284 b 542 542 497 434 519 487 b 533 600 552 564 558 581 b 477 629 512 616 488 630 b 444 602 462 628 452 614 b 406 536 431 581 420 560 b 387 558 399 544 393 551 b 296 599 363 584 333 602 b 171 531 247 594 205 565 b 66 390 130 489 95 442 b -11 164 26 320 0 243 b 33 14 -17 112 -19 44 b 172 48 78 -12 126 -3 b 247 150 199 80 224 114 b 263 163 250 156 256 161 b 274 -14 251 104 247 41 b 410 -27 299 -66 378 -74 b 495 120 436 12 468 70 b 578 275 523 171 550 220 b 564 305 585 289 588 296 z m 21 182 b 11 137 18 169 15 157 b 45 282 13 187 24 237 b 50 284 45 283 48 283 b 21 182 40 250 30 216 z m 50 285 b 66 327 46 302 58 314 b 50 285 64 312 59 298 z m 392 443 b 371 395 389 426 382 409 b 392 443 373 413 381 429 z m 256 538 b 235 523 252 530 244 524 b 256 538 238 532 247 538 z m 217 538 l 182 507 b 217 538 188 520 189 521 z m 118 417 b 102 390 116 406 111 396 b 117 417 101 403 110 410 z m 80 347 b 101 388 82 368 82 370 b 80 347 98 372 86 361 z m 112 342 b 93 305 105 330 99 317 b 112 342 93 320 100 333 z m 281 88 b 281 124 277 100 277 112 z m 304 65 b 307 113 300 81 302 98 b 304 65 311 97 309 81 z m 260 249 b 139 85 226 190 185 135 b 99 59 132 78 109 53 b 93 80 94 64 91 72 b 159 288 99 141 129 222 b 270 473 189 353 226 416 b 366 520 286 493 339 548 b 358 428 394 492 370 458 b 260 249 331 365 298 305 z m 421 442 l 427 440 l 354 258 b 421 442 370 321 392 383 z "},"á":{"ha":515,"x_min":0,"x_max":0,"o":"m 564 305 b 530 287 542 314 540 305 b 437 121 498 230 468 176 b 369 4 416 83 396 46 b 358 6 363 -7 359 -6 b 368 87 356 33 359 61 b 475 380 398 186 434 284 b 542 542 497 434 519 487 b 533 600 552 564 558 581 b 477 629 512 616 488 630 b 444 602 462 628 452 614 b 406 536 431 581 420 560 b 387 558 399 544 393 551 b 296 599 363 584 333 602 b 171 531 247 594 205 565 b 66 390 130 489 95 442 b -11 164 26 320 0 243 b 33 14 -17 112 -19 44 b 172 48 78 -12 126 -3 b 247 150 199 80 224 114 b 263 163 250 156 256 161 b 274 -14 251 104 247 41 b 410 -27 299 -66 378 -74 b 495 120 436 12 468 70 b 578 275 523 171 550 220 b 564 305 585 289 588 296 z m 21 182 b 11 137 18 169 15 157 b 45 282 13 187 24 237 b 50 284 45 283 48 283 b 21 182 40 250 30 216 z m 50 285 b 66 327 46 302 58 314 b 50 285 64 312 59 298 z m 392 443 b 371 395 389 426 382 409 b 392 443 373 413 381 429 z m 256 538 b 235 523 252 530 244 524 b 256 538 238 532 247 538 z m 217 538 l 182 507 b 217 538 188 520 189 521 z m 118 417 b 102 390 116 406 111 396 b 117 417 101 403 110 410 z m 80 347 b 101 388 82 368 82 370 b 80 347 98 372 86 361 z m 112 342 b 93 305 105 330 99 317 b 112 342 93 320 100 333 z m 281 88 b 281 124 277 100 277 112 z m 304 65 b 307 113 300 81 302 98 b 304 65 311 97 309 81 z m 260 249 b 139 85 226 190 185 135 b 99 59 132 78 109 53 b 93 80 94 64 91 72 b 159 288 99 141 129 222 b 270 473 189 353 226 416 b 366 520 286 493 339 548 b 358 428 394 492 370 458 b 260 249 331 365 298 305 z m 421 442 l 427 440 l 354 258 b 421 442 370 321 392 383 z "},"â":{"ha":515,"x_min":0,"x_max":0,"o":"m 564 305 b 530 287 542 314 540 305 b 437 121 498 230 468 176 b 369 4 416 83 396 46 b 358 6 363 -7 359 -6 b 368 87 356 33 359 61 b 475 380 398 186 434 284 b 542 542 497 434 519 487 b 533 600 552 564 558 581 b 477 629 512 616 488 630 b 444 602 462 628 452 614 b 406 536 431 581 420 560 b 387 558 399 544 393 551 b 296 599 363 584 333 602 b 171 531 247 594 205 565 b 66 390 130 489 95 442 b -11 164 26 320 0 243 b 33 14 -17 112 -19 44 b 172 48 78 -12 126 -3 b 247 150 199 80 224 114 b 263 163 250 156 256 161 b 274 -14 251 104 247 41 b 410 -27 299 -66 378 -74 b 495 120 436 12 468 70 b 578 275 523 171 550 220 b 564 305 585 289 588 296 z m 21 182 b 11 137 18 169 15 157 b 45 282 13 187 24 237 b 50 284 45 283 48 283 b 21 182 40 250 30 216 z m 50 285 b 66 327 46 302 58 314 b 50 285 64 312 59 298 z m 392 443 b 371 395 389 426 382 409 b 392 443 373 413 381 429 z m 256 538 b 235 523 252 530 244 524 b 256 538 238 532 247 538 z m 217 538 l 182 507 b 217 538 188 520 189 521 z m 118 417 b 102 390 116 406 111 396 b 117 417 101 403 110 410 z m 80 347 b 101 388 82 368 82 370 b 80 347 98 372 86 361 z m 112 342 b 93 305 105 330 99 317 b 112 342 93 320 100 333 z m 281 88 b 281 124 277 100 277 112 z m 304 65 b 307 113 300 81 302 98 b 304 65 311 97 309 81 z m 260 249 b 139 85 226 190 185 135 b 99 59 132 78 109 53 b 93 80 94 64 91 72 b 159 288 99 141 129 222 b 270 473 189 353 226 416 b 366 520 286 493 339 548 b 358 428 394 492 370 458 b 260 249 331 365 298 305 z m 421 442 l 427 440 l 354 258 b 421 442 370 321 392 383 z "},"ã":{"ha":515,"x_min":0,"x_max":0,"o":"m 564 305 b 530 287 542 314 540 305 b 437 121 498 230 468 176 b 369 4 416 83 396 46 b 358 6 363 -7 359 -6 b 368 87 356 33 359 61 b 475 380 398 186 434 284 b 542 542 497 434 519 487 b 533 600 552 564 558 581 b 477 629 512 616 488 630 b 444 602 462 628 452 614 b 406 536 431 581 420 560 b 387 558 399 544 393 551 b 296 599 363 584 333 602 b 171 531 247 594 205 565 b 66 390 130 489 95 442 b -11 164 26 320 0 243 b 33 14 -17 112 -19 44 b 172 48 78 -12 126 -3 b 247 150 199 80 224 114 b 263 163 250 156 256 161 b 274 -14 251 104 247 41 b 410 -27 299 -66 378 -74 b 495 120 436 12 468 70 b 578 275 523 171 550 220 b 564 305 585 289 588 296 z m 21 182 b 11 137 18 169 15 157 b 45 282 13 187 24 237 b 50 284 45 283 48 283 b 21 182 40 250 30 216 z m 50 285 b 66 327 46 302 58 314 b 50 285 64 312 59 298 z m 392 443 b 371 395 389 426 382 409 b 392 443 373 413 381 429 z m 256 538 b 235 523 252 530 244 524 b 256 538 238 532 247 538 z m 217 538 l 182 507 b 217 538 188 520 189 521 z m 118 417 b 102 390 116 406 111 396 b 117 417 101 403 110 410 z m 80 347 b 101 388 82 368 82 370 b 80 347 98 372 86 361 z m 112 342 b 93 305 105 330 99 317 b 112 342 93 320 100 333 z m 281 88 b 281 124 277 100 277 112 z m 304 65 b 307 113 300 81 302 98 b 304 65 311 97 309 81 z m 260 249 b 139 85 226 190 185 135 b 99 59 132 78 109 53 b 93 80 94 64 91 72 b 159 288 99 141 129 222 b 270 473 189 353 226 416 b 366 520 286 493 339 548 b 358 428 394 492 370 458 b 260 249 331 365 298 305 z m 421 442 l 427 440 l 354 258 b 421 442 370 321 392 383 z "},"ä":{"ha":515,"x_min":0,"x_max":0,"o":"m 564 305 b 530 287 542 314 540 305 b 437 121 498 230 468 176 b 369 4 416 83 396 46 b 358 6 363 -7 359 -6 b 368 87 356 33 359 61 b 475 380 398 186 434 284 b 542 542 497 434 519 487 b 533 600 552 564 558 581 b 477 629 512 616 488 630 b 444 602 462 628 452 614 b 406 536 431 581 420 560 b 387 558 399 544 393 551 b 296 599 363 584 333 602 b 171 531 247 594 205 565 b 66 390 130 489 95 442 b -11 164 26 320 0 243 b 33 14 -17 112 -19 44 b 172 48 78 -12 126 -3 b 247 150 199 80 224 114 b 263 163 250 156 256 161 b 274 -14 251 104 247 41 b 410 -27 299 -66 378 -74 b 495 120 436 12 468 70 b 578 275 523 171 550 220 b 564 305 585 289 588 296 z m 21 182 b 11 137 18 169 15 157 b 45 282 13 187 24 237 b 50 284 45 283 48 283 b 21 182 40 250 30 216 z m 50 285 b 66 327 46 302 58 314 b 50 285 64 312 59 298 z m 392 443 b 371 395 389 426 382 409 b 392 443 373 413 381 429 z m 256 538 b 235 523 252 530 244 524 b 256 538 238 532 247 538 z m 217 538 l 182 507 b 217 538 188 520 189 521 z m 118 417 b 102 390 116 406 111 396 b 117 417 101 403 110 410 z m 80 347 b 101 388 82 368 82 370 b 80 347 98 372 86 361 z m 112 342 b 93 305 105 330 99 317 b 112 342 93 320 100 333 z m 281 88 b 281 124 277 100 277 112 z m 304 65 b 307 113 300 81 302 98 b 304 65 311 97 309 81 z m 260 249 b 139 85 226 190 185 135 b 99 59 132 78 109 53 b 93 80 94 64 91 72 b 159 288 99 141 129 222 b 270 473 189 353 226 416 b 366 520 286 493 339 548 b 358 428 394 492 370 458 b 260 249 331 365 298 305 z m 421 442 l 427 440 l 354 258 b 421 442 370 321 392 383 z "},"å":{"ha":515,"x_min":0,"x_max":0,"o":"m 564 305 b 530 287 542 314 540 305 b 437 121 498 230 468 176 b 369 4 416 83 396 46 b 358 6 363 -7 359 -6 b 368 87 356 33 359 61 b 475 380 398 186 434 284 b 542 542 497 434 519 487 b 533 600 552 564 558 581 b 477 629 512 616 488 630 b 444 602 462 628 452 614 b 406 536 431 581 420 560 b 387 558 399 544 393 551 b 296 599 363 584 333 602 b 171 531 247 594 205 565 b 66 390 130 489 95 442 b -11 164 26 320 0 243 b 33 14 -17 112 -19 44 b 172 48 78 -12 126 -3 b 247 150 199 80 224 114 b 263 163 250 156 256 161 b 274 -14 251 104 247 41 b 410 -27 299 -66 378 -74 b 495 120 436 12 468 70 b 578 275 523 171 550 220 b 564 305 585 289 588 296 z m 21 182 b 11 137 18 169 15 157 b 45 282 13 187 24 237 b 50 284 45 283 48 283 b 21 182 40 250 30 216 z m 50 285 b 66 327 46 302 58 314 b 50 285 64 312 59 298 z m 392 443 b 371 395 389 426 382 409 b 392 443 373 413 381 429 z m 256 538 b 235 523 252 530 244 524 b 256 538 238 532 247 538 z m 217 538 l 182 507 b 217 538 188 520 189 521 z m 118 417 b 102 390 116 406 111 396 b 117 417 101 403 110 410 z m 80 347 b 101 388 82 368 82 370 b 80 347 98 372 86 361 z m 112 342 b 93 305 105 330 99 317 b 112 342 93 320 100 333 z m 281 88 b 281 124 277 100 277 112 z m 304 65 b 307 113 300 81 302 98 b 304 65 311 97 309 81 z m 260 249 b 139 85 226 190 185 135 b 99 59 132 78 109 53 b 93 80 94 64 91 72 b 159 288 99 141 129 222 b 270 473 189 353 226 416 b 366 520 286 493 339 548 b 358 428 394 492 370 458 b 260 249 331 365 298 305 z m 421 442 l 427 440 l 354 258 b 421 442 370 321 392 383 z "},"b":{"ha":594,"x_min":0,"x_max":0,"o":"m 663 311 b 647 316 662 316 653 315 b 594 317 635 316 609 316 b 587 322 591 317 588 319 b 586 331 585 325 585 328 b 598 368 590 344 595 356 b 616 470 609 401 615 435 b 512 599 616 539 571 591 b 320 503 437 610 369 559 b 178 302 266 441 218 374 b 123 204 159 269 142 240 b 109 207 112 183 102 192 b 166 313 124 238 145 278 b 262 463 195 365 227 415 b 514 845 350 581 455 717 b 468 1044 554 933 558 1045 b 348 964 434 1044 383 1012 b 169 658 280 867 220 765 b 33 326 114 551 69 440 b 18 273 28 308 23 291 b 9 52 -1 200 -15 126 b -3 -15 17 27 6 6 b 82 -138 -31 -83 4 -135 b 229 -97 130 -141 184 -123 b 540 235 360 -19 464 104 b 577 261 547 250 561 259 b 649 269 603 264 626 266 b 657 274 653 269 656 271 b 663 311 663 285 665 298 z m 225 668 b 230 676 226 671 228 674 b 232 673 232 677 233 676 b 226 663 231 670 229 666 b 225 668 226 665 224 667 z m 466 957 b 484 950 478 970 486 967 b 434 820 480 903 457 861 b 360 701 411 780 386 740 b 216 500 315 632 267 565 b 466 957 261 644 399 889 z m 200 613 b 171 548 196 589 186 567 b 200 613 175 572 189 592 z m 170 545 b 154 506 169 531 163 517 b 170 545 154 521 160 535 z m 22 79 b 24 101 23 86 23 94 b 15 147 12 113 18 127 b 24 101 23 128 15 113 b 25 79 24 94 24 86 z m 50 157 b 45 102 48 139 47 121 b 50 157 39 134 39 138 l 48 187 b 50 157 54 177 49 167 z m 360 187 b 240 41 325 135 284 86 b 82 -66 194 -5 146 -47 b 82 -17 59 -72 79 -23 b 354 194 141 95 247 144 b 360 193 356 195 358 194 b 360 187 361 191 361 189 z m 430 299 b 409 280 426 290 418 283 b 189 191 332 261 261 226 b 334 428 227 276 276 355 b 473 523 372 474 459 558 b 430 299 494 469 462 364 z m 526 339 b 551 453 536 377 545 415 b 526 339 559 424 552 390 z m 577 395 b 584 475 580 421 583 446 b 577 395 591 447 590 432 z "},"c":{"ha":378,"x_min":0,"x_max":0,"o":"m 425 326 b 360 254 412 324 401 310 b 211 76 315 190 266 131 b 110 62 172 37 123 34 b 180 346 77 135 133 265 b 291 491 211 397 244 453 b 342 512 305 503 323 511 b 349 501 351 513 351 506 b 287 446 339 468 310 446 b 282 443 284 446 283 445 b 281 437 280 442 280 439 b 341 414 292 406 311 398 b 401 501 376 432 400 460 b 341 582 401 542 375 566 b 182 546 290 607 220 581 b 3 245 95 465 33 360 b 95 -1 -24 137 5 30 b 309 103 189 -32 260 41 b 434 273 351 158 390 211 b 447 302 443 285 448 293 b 425 326 445 315 436 327 z m 236 521 l 223 511 b 236 521 222 520 228 522 z m 212 542 l 157 487 b 212 542 172 509 190 527 z m 143 470 b 130 450 143 461 138 454 b 143 470 129 461 138 465 z m 54 310 b 86 374 58 334 69 356 b 54 310 76 353 65 331 z "},"ç":{"ha":378,"x_min":0,"x_max":0,"o":"m 425 326 b 360 254 412 324 401 310 b 211 76 315 190 266 131 b 110 62 172 37 123 34 b 180 346 77 135 133 265 b 291 491 211 397 244 453 b 342 512 305 503 323 511 b 349 501 351 513 351 506 b 287 446 339 468 310 446 b 282 443 284 446 283 445 b 281 437 280 442 280 439 b 341 414 292 406 311 398 b 401 501 376 432 400 460 b 341 582 401 542 375 566 b 182 546 290 607 220 581 b 3 245 95 465 33 360 b 95 -1 -24 137 5 30 b 309 103 189 -32 260 41 b 434 273 351 158 390 211 b 447 302 443 285 448 293 b 425 326 445 315 436 327 z m 236 521 l 223 511 b 236 521 222 520 228 522 z m 212 542 l 157 487 b 212 542 172 509 190 527 z m 143 470 b 130 450 143 461 138 454 b 143 470 129 461 138 465 z m 54 310 b 86 374 58 334 69 356 b 54 310 76 353 65 331 z "},"d":{"ha":594,"x_min":0,"x_max":0,"o":"m 415 216 b 426 240 417 224 421 233 b 735 686 534 384 642 531 b 843 938 780 760 843 855 b 774 1044 843 975 836 1030 b 641 958 724 1056 665 991 b 451 626 568 853 504 742 b 415 550 439 601 427 576 b 393 574 407 559 399 567 b 259 599 352 616 314 622 b 37 330 163 559 81 426 b 38 14 2 255 -64 74 b 159 31 77 -9 128 -2 b 283 193 204 82 246 136 b 277 151 281 176 279 164 b 278 -83 266 68 263 -7 b 361 -167 288 -136 322 -163 b 470 -108 411 -172 444 -146 b 656 274 550 11 606 141 b 659 284 657 277 658 281 b 638 313 664 300 657 306 b 614 294 623 318 618 304 b 442 -61 565 171 508 53 b 387 -110 435 -72 407 -125 b 368 -15 365 -93 366 -43 b 415 216 375 63 391 141 z m 768 959 b 785 949 775 967 784 964 b 757 841 786 911 776 874 b 540 511 694 725 622 614 b 519 496 534 504 527 499 b 768 959 564 639 706 894 z m 513 705 b 501 676 512 694 508 684 b 513 705 501 689 507 694 z m 472 551 b 495 603 473 571 486 586 b 472 551 493 584 485 565 z m 471 549 b 448 495 471 527 456 512 b 471 549 453 514 456 534 z m 428 450 b 419 433 432 440 425 436 z m 232 528 b 240 534 234 531 237 533 b 240 529 243 534 243 531 b 230 523 237 527 235 522 b 232 528 231 525 231 527 z m 174 504 b 160 482 172 495 167 487 b 174 504 156 494 167 498 z m 159 480 b 136 457 154 470 146 462 b 159 480 145 468 145 481 z m 14 173 b 38 260 18 203 19 234 b 14 173 35 230 21 202 z m 39 263 b 62 324 37 287 53 304 b 39 263 58 303 50 282 z m 77 345 b 100 400 76 368 90 383 l 105 397 z m 112 355 b 94 318 110 341 104 328 b 112 355 97 332 103 345 z m 290 58 b 288 52 289 56 288 54 b 286 58 287 54 286 56 b 287 74 286 63 286 68 b 290 74 287 77 289 77 b 290 58 290 69 290 64 z m 307 8 b 313 76 309 31 311 53 b 307 8 318 53 316 30 z m 166 114 b 114 61 151 94 134 76 b 98 69 105 55 100 61 b 101 121 95 86 96 104 b 277 485 134 254 187 381 b 372 529 304 515 345 555 b 384 477 387 516 392 495 b 166 114 332 346 252 226 z "},"e":{"ha":375,"x_min":0,"x_max":0,"o":"m 430 321 b 394 295 411 330 406 317 b 290 141 366 249 327 182 b 162 43 255 101 213 61 b 106 73 124 31 112 48 b 126 244 96 110 104 188 b 144 255 128 251 136 256 b 294 316 203 253 250 281 b 397 474 345 355 381 411 b 333 588 408 522 380 571 b 323 591 330 589 327 590 b 112 474 234 614 159 540 b -6 191 53 394 1 292 b 99 1 -14 92 34 17 b 298 71 184 -20 248 22 b 433 267 353 129 399 195 b 430 321 445 292 453 310 z m 253 541 b 229 524 248 532 239 526 b 253 541 234 533 243 539 z m 197 532 b 183 517 195 524 190 521 b 197 532 185 527 189 531 z m 311 502 b 167 312 295 416 244 356 b 311 502 170 356 262 479 z m 155 489 b 136 463 152 478 145 469 b 155 489 139 474 146 483 z m 49 306 b 87 382 55 334 68 360 z m 97 405 b 115 437 99 418 105 429 b 97 405 113 424 107 413 z "},"è":{"ha":375,"x_min":0,"x_max":0,"o":"m 430 321 b 394 295 411 330 406 317 b 290 141 366 249 327 182 b 162 43 255 101 213 61 b 106 73 124 31 112 48 b 126 244 96 110 104 188 b 144 255 128 251 136 256 b 294 316 203 253 250 281 b 397 474 345 355 381 411 b 333 588 408 522 380 571 b 323 591 330 589 327 590 b 112 474 234 614 159 540 b -6 191 53 394 1 292 b 99 1 -14 92 34 17 b 298 71 184 -20 248 22 b 433 267 353 129 399 195 b 430 321 445 292 453 310 z m 253 541 b 229 524 248 532 239 526 b 253 541 234 533 243 539 z m 197 532 b 183 517 195 524 190 521 b 197 532 185 527 189 531 z m 311 502 b 167 312 295 416 244 356 b 311 502 170 356 262 479 z m 155 489 b 136 463 152 478 145 469 b 155 489 139 474 146 483 z m 49 306 b 87 382 55 334 68 360 z m 97 405 b 115 437 99 418 105 429 b 97 405 113 424 107 413 z "},"é":{"ha":375,"x_min":0,"x_max":0,"o":"m 430 321 b 394 295 411 330 406 317 b 290 141 366 249 327 182 b 162 43 255 101 213 61 b 106 73 124 31 112 48 b 126 244 96 110 104 188 b 144 255 128 251 136 256 b 294 316 203 253 250 281 b 397 474 345 355 381 411 b 333 588 408 522 380 571 b 323 591 330 589 327 590 b 112 474 234 614 159 540 b -6 191 53 394 1 292 b 99 1 -14 92 34 17 b 298 71 184 -20 248 22 b 433 267 353 129 399 195 b 430 321 445 292 453 310 z m 253 541 b 229 524 248 532 239 526 b 253 541 234 533 243 539 z m 197 532 b 183 517 195 524 190 521 b 197 532 185 527 189 531 z m 311 502 b 167 312 295 416 244 356 b 311 502 170 356 262 479 z m 155 489 b 136 463 152 478 145 469 b 155 489 139 474 146 483 z m 49 306 b 87 382 55 334 68 360 z m 97 405 b 115 437 99 418 105 429 b 97 405 113 424 107 413 z "},"ê":{"ha":375,"x_min":0,"x_max":0,"o":"m 430 321 b 394 295 411 330 406 317 b 290 141 366 249 327 182 b 162 43 255 101 213 61 b 106 73 124 31 112 48 b 126 244 96 110 104 188 b 144 255 128 251 136 256 b 294 316 203 253 250 281 b 397 474 345 355 381 411 b 333 588 408 522 380 571 b 323 591 330 589 327 590 b 112 474 234 614 159 540 b -6 191 53 394 1 292 b 99 1 -14 92 34 17 b 298 71 184 -20 248 22 b 433 267 353 129 399 195 b 430 321 445 292 453 310 z m 253 541 b 229 524 248 532 239 526 b 253 541 234 533 243 539 z m 197 532 b 183 517 195 524 190 521 b 197 532 185 527 189 531 z m 311 502 b 167 312 295 416 244 356 b 311 502 170 356 262 479 z m 155 489 b 136 463 152 478 145 469 b 155 489 139 474 146 483 z m 49 306 b 87 382 55 334 68 360 z m 97 405 b 115 437 99 418 105 429 b 97 405 113 424 107 413 z "},"ë":{"ha":375,"x_min":0,"x_max":0,"o":"m 430 321 b 394 295 411 330 406 317 b 290 141 366 249 327 182 b 162 43 255 101 213 61 b 106 73 124 31 112 48 b 126 244 96 110 104 188 b 144 255 128 251 136 256 b 294 316 203 253 250 281 b 397 474 345 355 381 411 b 333 588 408 522 380 571 b 323 591 330 589 327 590 b 112 474 234 614 159 540 b -6 191 53 394 1 292 b 99 1 -14 92 34 17 b 298 71 184 -20 248 22 b 433 267 353 129 399 195 b 430 321 445 292 453 310 z m 253 541 b 229 524 248 532 239 526 b 253 541 234 533 243 539 z m 197 532 b 183 517 195 524 190 521 b 197 532 185 527 189 531 z m 311 502 b 167 312 295 416 244 356 b 311 502 170 356 262 479 z m 155 489 b 136 463 152 478 145 469 b 155 489 139 474 146 483 z m 49 306 b 87 382 55 334 68 360 z m 97 405 b 115 437 99 418 105 429 b 97 405 113 424 107 413 z "},"f":{"ha":335,"x_min":0,"x_max":0,"o":"m 497 1026 b 112 529 384 1140 141 598 b -48 -225 10 294 -83 34 b 73 -319 -39 -292 3 -347 b 198 -211 125 -296 168 -259 b 255 136 263 -108 284 17 b 267 163 251 150 253 156 b 389 266 312 185 357 227 b 397 305 406 286 408 295 b 347 295 371 331 372 324 b 239 215 317 261 281 233 b 210 218 230 210 218 211 b 153 253 193 232 174 244 b 194 317 168 276 181 297 b 408 644 266 426 340 533 b 500 820 443 700 473 759 b 497 1026 525 879 550 973 z m -38 -120 b -40 -116 -39 -119 -40 -117 b -38 -111 -39 -114 -39 -112 l -38 -117 b -38 -120 -38 -118 -38 -119 z m -32 -40 l -33 -40 l -33 -26 l -32 -26 z m -14 -116 b -6 -59 -11 -97 -24 -76 b -14 -116 -14 -77 -9 -97 z m -6 -58 b -7 -15 -10 -44 -10 -29 b -6 -58 -2 -33 -7 -46 z m 241 -35 b 240 -29 241 -33 240 -31 b 241 -26 240 -28 241 -27 l 242 -30 b 241 -35 242 -31 241 -33 z m 249 20 b 241 66 242 35 249 51 b 249 20 258 52 245 35 z m 242 102 b 241 67 245 91 245 78 b 242 102 239 78 239 91 z m 224 2 b 215 -8 224 -4 219 -6 b 224 66 224 14 213 38 b 224 2 224 40 224 21 z m 214 -10 b 217 -48 219 -22 219 -35 b 214 -10 209 -35 216 -22 z m 145 488 b 136 455 149 475 141 465 b 145 488 131 468 139 478 z m 135 452 b 123 429 133 444 129 436 b 135 452 125 438 122 449 z m 144 -101 b 99 -201 134 -136 119 -170 b 75 -231 91 -212 84 -222 b 48 -225 61 -246 56 -244 b 41 -194 44 -215 42 -205 b 47 -61 37 -150 39 -105 b 95 154 59 11 75 83 b 102 167 97 158 99 163 b 153 107 134 158 146 135 b 144 -101 172 37 164 -32 z m 146 491 b 166 531 151 505 153 521 b 146 491 163 516 160 500 z m 167 534 b 183 572 166 549 175 560 b 167 534 182 558 176 544 z m 407 777 b 227 495 351 692 283 580 b 216 480 224 490 221 486 b 219 501 215 487 216 495 b 415 902 272 630 342 783 b 466 966 429 923 444 952 b 479 962 472 970 478 971 b 407 777 479 908 439 827 z "},"g":{"ha":517,"x_min":0,"x_max":0,"o":"m 566 308 b 528 286 545 319 539 303 b 405 128 491 230 450 177 b 382 108 399 120 391 114 b 443 265 403 163 423 214 b 530 540 473 347 507 455 b 525 598 535 559 539 578 b 433 602 503 631 452 646 b 403 531 426 588 411 548 b 381 555 396 539 389 547 b 163 519 312 628 222 580 b -17 124 66 419 -12 264 b 27 20 -18 81 -1 39 b 148 23 61 -5 113 -9 b 250 145 187 59 218 105 b 239 116 246 135 243 125 b 208 37 229 89 217 64 b 167 -5 202 17 187 2 b -122 -267 39 -55 -58 -155 b -116 -487 -172 -355 -171 -452 b 125 -400 -27 -541 78 -467 b 322 -23 207 -282 265 -153 b 351 15 328 -8 338 5 b 552 232 433 72 497 149 b 578 275 559 242 572 264 b 566 308 587 291 588 296 z m 95 -216 b -1 -386 66 -275 38 -333 b -69 -410 -11 -399 -67 -463 b -36 -287 -71 -367 -56 -326 b 135 -95 5 -210 63 -144 b 153 -89 140 -92 147 -90 b 95 -216 132 -135 115 -176 z m 229 519 b 233 517 233 520 235 519 b 227 510 232 514 229 512 b 222 510 225 508 221 509 b 229 519 224 514 226 517 z m 168 490 b 154 469 166 482 161 474 b 168 490 151 481 161 484 z m 153 467 b 131 444 149 457 141 449 b 153 467 140 456 140 468 z m 12 167 b 35 252 15 197 16 227 b 12 167 32 222 18 196 z m 36 255 b 58 315 34 278 49 296 b 36 255 54 294 47 273 z m 72 335 b 100 386 74 355 84 373 z m 108 345 b 90 309 105 331 99 319 b 108 345 92 322 99 335 z m 219 191 b 115 62 189 145 159 97 b 100 60 111 59 105 58 b 91 72 95 62 92 67 b 96 115 91 87 93 101 b 268 471 128 245 186 366 b 359 517 284 491 331 538 b 376 464 375 504 381 484 b 316 340 363 420 343 378 b 219 191 283 291 251 241 z m 332 276 b 296 187 321 246 318 213 b 332 276 304 218 316 248 z m 285 146 b 274 128 282 140 278 134 b 285 146 276 136 274 145 z m 286 147 b 294 183 280 161 288 172 b 286 147 297 170 287 160 z m 298 105 b 308 130 297 114 301 124 b 298 105 311 120 305 112 z m 368 269 b 322 151 354 229 339 189 b 309 132 319 144 319 134 b 369 293 323 186 348 236 b 368 269 373 285 372 276 z m 384 414 b 377 387 386 402 381 397 b 384 414 373 399 380 404 z "},"h":{"ha":554,"x_min":0,"x_max":0,"o":"m 610 326 b 580 302 591 331 585 314 b 442 -14 537 193 489 88 b 375 -109 435 -30 392 -113 b 402 68 338 -101 395 48 b 504 329 434 156 469 242 b 566 500 528 384 549 442 b 533 595 575 535 562 573 b 420 598 496 624 457 621 b 131 231 298 520 209 359 b 103 209 108 194 101 200 b 155 316 107 235 132 280 b 287 506 197 380 242 445 b 466 775 352 593 414 679 b 513 1008 500 839 552 938 b 251 838 446 1127 298 920 b 28 322 159 674 84 501 b 13 35 0 235 -27 122 b 66 -18 22 16 41 -19 b 103 27 87 -17 95 12 b 382 479 179 190 259 345 b 436 527 398 497 416 513 b 446 518 448 535 450 524 b 429 489 441 508 435 498 b 348 329 398 438 371 385 b 256 42 309 236 272 143 b 363 -171 243 -46 258 -160 b 477 -64 417 -176 459 -104 b 633 298 530 56 584 176 b 610 326 642 319 633 320 z m 400 879 b 444 944 413 901 428 923 b 479 956 451 953 482 990 b 443 842 474 916 461 878 b 315 646 407 773 360 710 b 229 535 289 607 261 570 b 238 556 232 542 235 549 b 400 879 284 667 339 775 z m 232 752 b 224 728 235 743 232 733 b 232 752 223 737 230 741 z m 213 651 b 190 598 210 632 202 613 b 213 651 194 617 202 635 z m 177 639 b 168 622 183 629 174 625 b 177 639 171 627 174 633 z m 177 574 b 154 523 173 555 171 536 b 177 574 159 541 167 558 z m 153 520 b 142 489 157 510 151 502 b 153 520 142 500 146 511 z m 15 113 b 15 150 13 126 13 138 b 15 113 17 138 17 126 z m 43 108 b 43 151 38 122 38 137 z m 47 179 b 45 185 46 181 46 183 b 47 191 45 187 46 189 l 49 185 z m 446 465 b 327 194 404 375 366 284 b 446 465 355 289 395 380 z m 276 -41 b 298 99 275 7 277 54 b 276 -41 292 52 280 6 z m 310 147 b 299 103 311 132 307 116 b 310 147 295 117 302 129 z m 319 67 b 445 397 350 181 392 291 b 451 405 447 400 449 402 b 308 -42 397 257 324 117 b 319 67 300 -4 309 32 z m 355 -41 b 352 -41 354 -45 352 -44 b 353 -32 352 -38 352 -35 b 355 -32 353 -32 354 -32 b 355 -41 355 -35 355 -38 z "},"i":{"ha":236,"x_min":0,"x_max":0,"o":"m 283 308 b 252 287 264 316 261 304 b 161 110 221 228 191 168 b 94 5 142 73 120 38 b 81 9 86 -4 83 0 b 90 90 76 29 79 54 b 224 445 127 211 172 330 b 265 548 240 479 254 513 b 263 583 269 560 268 572 b 209 623 252 607 233 616 b 171 608 194 629 177 622 b -15 162 87 469 24 319 b -10 -13 -29 104 -33 35 b 147 -7 21 -76 99 -88 b 299 272 203 87 249 171 b 283 308 312 298 301 302 z m 0 45 b 0 105 -5 65 -5 85 z m 25 47 b 21 79 21 57 20 68 b 31 126 23 95 26 111 b 25 47 33 100 25 74 z m 79 267 b 133 421 91 320 109 372 l 140 419 b 79 267 119 368 99 318 z m 144 499 b 100 414 128 471 120 440 b 150 521 111 452 128 488 b 144 499 151 513 149 505 z m 163 543 b 151 524 162 533 160 526 b 163 543 152 531 157 538 z m 98 411 b 89 377 102 398 91 389 b 98 412 82 391 90 401 z m 88 374 b 77 353 85 367 81 360 b 88 374 78 367 78 368 z m 398 842 b 372 874 383 849 386 875 b 323 885 354 874 343 899 b 286 869 301 903 293 884 b 232 766 267 835 250 800 b 231 740 228 757 221 746 b 252 754 243 732 245 749 b 257 755 253 754 255 755 b 257 752 257 754 257 753 b 254 718 257 740 239 726 b 281 739 266 711 269 733 b 277 723 284 732 279 728 b 304 690 265 691 271 685 b 313 687 309 691 313 694 b 330 684 315 670 324 678 b 344 705 336 690 341 697 b 395 821 361 743 378 782 b 398 842 398 828 404 839 z m 269 779 b 277 801 267 788 272 793 b 269 779 281 790 272 785 z m 293 824 b 291 822 293 823 292 823 b 290 831 288 825 288 829 b 299 844 293 836 296 840 b 301 841 300 843 301 842 b 293 824 300 835 297 829 z "}}}
